<ttFont>
    <TTGlyph name=".notdef" xMin="100" yMin="28" xMax="500" yMax="772">
      <contour>
        <pt x="121" y="240" on="1"/>
        <pt x="116" y="297" on="0"/>
        <pt x="100" y="412" on="0"/>
        <pt x="100" y="475" on="1"/>
        <pt x="100" y="514" on="0"/>
        <pt x="104" y="602" on="0"/>
        <pt x="109" y="644" on="1"/>
        <pt x="130" y="644" on="1"/>
        <pt x="140" y="644" on="0"/>
        <pt x="143" y="603" on="0"/>
        <pt x="143" y="565" on="1"/>
        <pt x="153" y="565" on="1"/>
        <pt x="155" y="578" on="0"/>
        <pt x="160" y="610" on="0"/>
        <pt x="168" y="639" on="0"/>
        <pt x="180" y="658" on="0"/>
        <pt x="190" y="658" on="1"/>
        <pt x="192" y="656" on="0"/>
        <pt x="195" y="656" on="1"/>
        <pt x="197" y="656" on="1"/>
        <pt x="201" y="656" on="0"/>
        <pt x="209" y="642" on="0"/>
        <pt x="215" y="608" on="1"/>
        <pt x="216" y="598" on="0"/>
        <pt x="217" y="583" on="0"/>
        <pt x="218" y="563" on="0"/>
        <pt x="220" y="532" on="0"/>
        <pt x="222" y="505" on="1"/>
        <pt x="225" y="451" on="0"/>
        <pt x="235" y="332" on="0"/>
        <pt x="241" y="268" on="1"/>
        <pt x="252" y="154" on="1"/>
        <pt x="308" y="156" on="0"/>
        <pt x="364" y="160" on="1"/>
        <pt x="365" y="179" on="0"/>
        <pt x="366" y="217" on="0"/>
        <pt x="366" y="237" on="1"/>
        <pt x="366" y="300" on="0"/>
        <pt x="360" y="426" on="0"/>
        <pt x="360" y="489" on="1"/>
        <pt x="360" y="531" on="0"/>
        <pt x="365" y="614" on="0"/>
        <pt x="372" y="656" on="1"/>
        <pt x="342" y="656" on="0"/>
        <pt x="307" y="660" on="0"/>
        <pt x="291" y="666" on="0"/>
        <pt x="287" y="673" on="0"/>
        <pt x="287" y="675" on="1"/>
        <pt x="287" y="677" on="0"/>
        <pt x="289" y="681" on="1"/>
        <pt x="329" y="679" on="1"/>
        <pt x="334" y="679" on="1"/>
        <pt x="337" y="679" on="0"/>
        <pt x="347" y="678" on="1"/>
        <pt x="358" y="676" on="0"/>
        <pt x="364" y="674" on="0"/>
        <pt x="375" y="674" on="1"/>
        <pt x="375" y="676" on="0"/>
        <pt x="364" y="680" on="0"/>
        <pt x="349" y="682" on="0"/>
        <pt x="335" y="683" on="0"/>
        <pt x="331" y="683" on="1"/>
        <pt x="292" y="686" on="1"/>
        <pt x="296" y="692" on="0"/>
        <pt x="296" y="696" on="1"/>
        <pt x="296" y="699" on="0"/>
        <pt x="269" y="703" on="0"/>
        <pt x="236" y="709" on="0"/>
        <pt x="209" y="718" on="0"/>
        <pt x="209" y="726" on="1"/>
        <pt x="209" y="737" on="0"/>
        <pt x="241" y="751" on="0"/>
        <pt x="261" y="758" on="1"/>
        <pt x="283" y="756" on="1"/>
        <pt x="299" y="755" on="0"/>
        <pt x="338" y="753" on="0"/>
        <pt x="369" y="748" on="1"/>
        <pt x="379" y="747" on="0"/>
        <pt x="379" y="744" on="0"/>
        <pt x="388" y="744" on="1"/>
        <pt x="392" y="744" on="0"/>
        <pt x="396" y="748" on="1"/>
        <pt x="397" y="748" on="0"/>
        <pt x="401" y="746" on="0"/>
        <pt x="421" y="738" on="0"/>
        <pt x="462" y="721" on="0"/>
        <pt x="500" y="706" on="1"/>
        <pt x="493" y="670" on="0"/>
        <pt x="495" y="603" on="0"/>
        <pt x="492" y="565" on="1"/>
        <pt x="481" y="561" on="1"/>
        <pt x="480" y="503" on="0"/>
        <pt x="478" y="386" on="0"/>
        <pt x="476" y="263" on="0"/>
        <pt x="473" y="130" on="0"/>
        <pt x="470" y="55" on="1"/>
        <pt x="429" y="53" on="1"/>
        <pt x="384" y="51" on="0"/>
        <pt x="293" y="41" on="0"/>
        <pt x="245" y="38" on="1"/>
        <pt x="247" y="33" on="1"/>
        <pt x="295" y="33" on="0"/>
        <pt x="385" y="41" on="0"/>
        <pt x="430" y="44" on="1"/>
        <pt x="479" y="47" on="1"/>
        <pt x="480" y="116" on="0"/>
        <pt x="481" y="239" on="0"/>
        <pt x="483" y="351" on="0"/>
        <pt x="485" y="454" on="0"/>
        <pt x="488" y="505" on="1"/>
        <pt x="486" y="460" on="0"/>
        <pt x="485" y="371" on="0"/>
        <pt x="485" y="326" on="1"/>
        <pt x="485" y="293" on="0"/>
        <pt x="486" y="227" on="0"/>
        <pt x="486" y="194" on="1"/>
        <pt x="486" y="169" on="1"/>
        <pt x="486" y="156" on="0"/>
        <pt x="485" y="121" on="0"/>
        <pt x="484" y="75" on="0"/>
        <pt x="483" y="43" on="1"/>
        <pt x="430" y="39" on="1"/>
        <pt x="380" y="35" on="0"/>
        <pt x="280" y="29" on="0"/>
        <pt x="227" y="28" on="1"/>
        <pt x="208" y="28" on="1"/>
        <pt x="199" y="28" on="0"/>
        <pt x="189" y="29" on="1"/>
        <pt x="132" y="32" on="1"/>
        <pt x="132" y="90" on="1"/>
        <pt x="132" y="107" on="0"/>
        <pt x="130" y="142" on="0"/>
        <pt x="128" y="162" on="1"/>
      </contour>
      <contour>
        <pt x="401" y="590" on="1"/>
        <pt x="392" y="504" on="0"/>
        <pt x="387" y="336" on="0"/>
        <pt x="385" y="251" on="1"/>
        <pt x="391" y="350" on="0"/>
        <pt x="406" y="553" on="0"/>
        <pt x="420" y="656" on="1"/>
        <pt x="419" y="656" on="0"/>
        <pt x="413" y="638" on="0"/>
        <pt x="407" y="614" on="0"/>
        <pt x="401" y="593" on="0"/>
      </contour>
      <contour>
        <pt x="464" y="433" on="1"/>
        <pt x="466" y="505" on="0"/>
        <pt x="467" y="644" on="0"/>
        <pt x="481" y="710" on="1"/>
        <pt x="397" y="742" on="1"/>
        <pt x="396" y="741" on="1"/>
        <pt x="477" y="710" on="1"/>
        <pt x="465" y="625" on="0"/>
        <pt x="459" y="446" on="0"/>
        <pt x="459" y="345" on="1"/>
        <pt x="459" y="295" on="0"/>
        <pt x="460" y="197" on="0"/>
        <pt x="460" y="149" on="1"/>
        <pt x="462" y="220" on="0"/>
        <pt x="462" y="362" on="0"/>
      </contour>
      <contour>
        <pt x="394" y="769" on="1"/>
        <pt x="394" y="768" on="0"/>
        <pt x="380" y="758" on="0"/>
        <pt x="378" y="756" on="1"/>
        <pt x="390" y="750" on="1"/>
        <pt x="381" y="750" on="0"/>
        <pt x="379" y="752" on="0"/>
        <pt x="369" y="754" on="1"/>
        <pt x="331" y="762" on="0"/>
        <pt x="294" y="762" on="0"/>
        <pt x="284" y="764" on="1"/>
        <pt x="295" y="767" on="0"/>
        <pt x="321" y="772" on="0"/>
        <pt x="335" y="772" on="1"/>
        <pt x="354" y="772" on="0"/>
        <pt x="384" y="769" on="0"/>
      </contour>
    </TTGlyph>
    <TTGlyph name="A" xMin="20" yMin="-72" xMax="754" yMax="717">
      <contour>
        <pt x="556" y="163" on="1"/>
        <pt x="550" y="166" on="1"/>
        <pt x="508" y="177" on="0"/>
        <pt x="414" y="183" on="0"/>
        <pt x="365" y="193" on="1"/>
        <pt x="413" y="183" on="0"/>
        <pt x="505" y="172" on="0"/>
        <pt x="550" y="157" on="1"/>
        <pt x="536" y="148" on="0"/>
        <pt x="520" y="148" on="1"/>
        <pt x="501" y="150" on="0"/>
        <pt x="464" y="158" on="0"/>
        <pt x="443" y="160" on="1"/>
        <pt x="443" y="166" on="0"/>
        <pt x="446" y="169" on="1"/>
        <pt x="417" y="169" on="0"/>
        <pt x="360" y="181" on="0"/>
        <pt x="306" y="196" on="0"/>
        <pt x="255" y="209" on="0"/>
        <pt x="233" y="209" on="1"/>
        <pt x="233" y="206" on="0"/>
        <pt x="232" y="206" on="1"/>
        <pt x="258" y="201" on="0"/>
        <pt x="304" y="183" on="0"/>
        <pt x="333" y="178" on="1"/>
        <pt x="361" y="171" on="0"/>
        <pt x="414" y="165" on="0"/>
        <pt x="440" y="160" on="1"/>
        <pt x="398" y="164" on="0"/>
        <pt x="311" y="180" on="0"/>
        <pt x="269" y="190" on="1"/>
        <pt x="222" y="202" on="1"/>
        <pt x="197" y="138" on="0"/>
        <pt x="146" y="15" on="0"/>
        <pt x="122" y="-48" on="1"/>
        <pt x="120" y="-44" on="0"/>
        <pt x="111" y="-43" on="0"/>
        <pt x="102" y="-43" on="0"/>
        <pt x="94" y="-38" on="0"/>
        <pt x="94" y="-30" on="1"/>
        <pt x="94" y="-22" on="0"/>
        <pt x="102" y="7" on="0"/>
        <pt x="113" y="31" on="1"/>
        <pt x="111" y="33" on="0"/>
        <pt x="102" y="34" on="0"/>
        <pt x="100" y="34" on="1"/>
        <pt x="80" y="-8" on="0"/>
        <pt x="43" y="-53" on="0"/>
        <pt x="32" y="-53" on="1"/>
        <pt x="20" y="-53" on="0"/>
        <pt x="20" y="-30" on="1"/>
        <pt x="20" y="-11" on="0"/>
        <pt x="34" y="48" on="0"/>
        <pt x="55" y="116" on="0"/>
        <pt x="81" y="189" on="0"/>
        <pt x="93" y="224" on="1"/>
        <pt x="82" y="231" on="0"/>
        <pt x="57" y="237" on="0"/>
        <pt x="42" y="239" on="1"/>
        <pt x="45" y="243" on="0"/>
        <pt x="45" y="255" on="0"/>
        <pt x="47" y="267" on="0"/>
        <pt x="53" y="275" on="0"/>
        <pt x="61" y="275" on="1"/>
        <pt x="63" y="275" on="0"/>
        <pt x="73" y="273" on="1"/>
        <pt x="73" y="282" on="1"/>
        <pt x="57" y="290" on="0"/>
        <pt x="40" y="312" on="0"/>
        <pt x="40" y="323" on="1"/>
        <pt x="40" y="347" on="0"/>
        <pt x="86" y="347" on="1"/>
        <pt x="99" y="347" on="0"/>
        <pt x="126" y="344" on="0"/>
        <pt x="140" y="342" on="1"/>
        <pt x="186" y="447" on="1"/>
        <pt x="201" y="481" on="0"/>
        <pt x="236" y="553" on="0"/>
        <pt x="284" y="623" on="0"/>
        <pt x="345" y="686" on="0"/>
        <pt x="385" y="711" on="1"/>
        <pt x="400" y="717" on="1"/>
        <pt x="428" y="710" on="0"/>
        <pt x="463" y="701" on="0"/>
        <pt x="474" y="699" on="1"/>
        <pt x="484" y="695" on="0"/>
        <pt x="490" y="694" on="1"/>
        <pt x="489" y="694" on="1"/>
        <pt x="490" y="691" on="1"/>
        <pt x="490" y="690" on="0"/>
        <pt x="489" y="689" on="1"/>
        <pt x="501" y="668" on="1"/>
        <pt x="566" y="559" on="0"/>
        <pt x="656" y="325" on="0"/>
        <pt x="688" y="212" on="1"/>
        <pt x="696" y="187" on="0"/>
        <pt x="719" y="130" on="0"/>
        <pt x="740" y="79" on="0"/>
        <pt x="754" y="38" on="0"/>
        <pt x="754" y="29" on="1"/>
        <pt x="754" y="22" on="0"/>
        <pt x="748" y="19" on="0"/>
        <pt x="743" y="19" on="1"/>
        <pt x="717" y="84" on="0"/>
        <pt x="694" y="147" on="1"/>
        <pt x="671" y="209" on="0"/>
        <pt x="649" y="272" on="1"/>
        <pt x="669" y="209" on="0"/>
        <pt x="691" y="147" on="1"/>
        <pt x="714" y="84" on="0"/>
        <pt x="737" y="19" on="1"/>
        <pt x="730" y="19" on="1"/>
        <pt x="724" y="19" on="0"/>
        <pt x="722" y="13" on="1"/>
        <pt x="724" y="11" on="0"/>
        <pt x="730" y="-6" on="0"/>
        <pt x="736" y="-25" on="0"/>
        <pt x="740" y="-45" on="0"/>
        <pt x="740" y="-50" on="1"/>
        <pt x="740" y="-72" on="0"/>
        <pt x="727" y="-72" on="1"/>
        <pt x="720" y="-72" on="0"/>
        <pt x="712" y="-66" on="0"/>
        <pt x="707" y="-61" on="1"/>
        <pt x="697" y="-51" on="1"/>
        <pt x="691" y="-45" on="0"/>
        <pt x="682" y="-39" on="1"/>
        <pt x="586" y="237" on="1"/>
        <pt x="607" y="172" on="0"/>
        <pt x="648" y="42" on="0"/>
        <pt x="670" y="-21" on="1"/>
        <pt x="654" y="-2" on="0"/>
        <pt x="627" y="52" on="0"/>
        <pt x="604" y="112" on="0"/>
        <pt x="584" y="175" on="0"/>
        <pt x="574" y="203" on="1"/>
        <pt x="574" y="201" on="0"/>
        <pt x="575" y="198" on="0"/>
        <pt x="575" y="196" on="1"/>
        <pt x="575" y="180" on="0"/>
        <pt x="565" y="172" on="1"/>
      </contour>
      <contour>
        <pt x="550" y="267" on="1"/>
        <pt x="552" y="267" on="0"/>
        <pt x="560" y="270" on="0"/>
        <pt x="562" y="270" on="1"/>
        <pt x="529" y="353" on="0"/>
        <pt x="464" y="509" on="0"/>
        <pt x="425" y="581" on="1"/>
        <pt x="419" y="575" on="1"/>
        <pt x="434" y="548" on="1"/>
        <pt x="469" y="484" on="0"/>
        <pt x="525" y="348" on="0"/>
        <pt x="550" y="276" on="1"/>
        <pt x="521" y="354" on="0"/>
        <pt x="454" y="509" on="0"/>
        <pt x="416" y="572" on="1"/>
        <pt x="412" y="570" on="1"/>
        <pt x="378" y="535" on="0"/>
        <pt x="319" y="437" on="0"/>
        <pt x="293" y="386" on="1"/>
        <pt x="267" y="323" on="1"/>
        <pt x="284" y="319" on="1"/>
        <pt x="299" y="315" on="0"/>
        <pt x="328" y="306" on="0"/>
        <pt x="339" y="301" on="1"/>
        <pt x="361" y="290" on="0"/>
        <pt x="433" y="278" on="0"/>
        <pt x="502" y="267" on="0"/>
        <pt x="553" y="254" on="0"/>
        <pt x="553" y="242" on="1"/>
        <pt x="431" y="256" on="1"/>
        <pt x="442" y="254" on="0"/>
        <pt x="474" y="249" on="0"/>
        <pt x="507" y="243" on="0"/>
        <pt x="539" y="238" on="0"/>
        <pt x="550" y="236" on="1"/>
        <pt x="550" y="233" on="0"/>
        <pt x="549" y="228" on="0"/>
        <pt x="549" y="226" on="1"/>
        <pt x="549" y="224" on="0"/>
        <pt x="554" y="223" on="0"/>
        <pt x="561" y="222" on="0"/>
        <pt x="564" y="220" on="1"/>
        <pt x="567" y="219" on="0"/>
        <pt x="570" y="214" on="1"/>
      </contour>
      <contour>
        <pt x="333" y="481" on="1"/>
        <pt x="335" y="481" on="0"/>
        <pt x="334" y="476" on="0"/>
        <pt x="335" y="476" on="1"/>
        <pt x="337" y="476" on="0"/>
        <pt x="357" y="504" on="0"/>
        <pt x="383" y="540" on="0"/>
        <pt x="407" y="572" on="0"/>
        <pt x="412" y="577" on="1"/>
        <pt x="407" y="584" on="1"/>
        <pt x="386" y="564" on="0"/>
        <pt x="350" y="510" on="0"/>
      </contour>
      <contour>
        <pt x="434" y="589" on="1"/>
        <pt x="466" y="535" on="0"/>
        <pt x="493" y="476" on="1"/>
        <pt x="519" y="418" on="0"/>
        <pt x="542" y="360" on="1"/>
        <pt x="523" y="418" on="0"/>
        <pt x="496" y="476" on="1"/>
        <pt x="468" y="535" on="0"/>
        <pt x="435" y="589" on="1"/>
      </contour>
      <contour>
        <pt x="587" y="439" on="1"/>
        <pt x="618" y="359" on="0"/>
        <pt x="648" y="276" on="1"/>
        <pt x="620" y="357" on="0"/>
        <pt x="589" y="436" on="1"/>
        <pt x="560" y="514" on="0"/>
        <pt x="522" y="593" on="1"/>
        <pt x="558" y="517" on="0"/>
      </contour>
      <contour>
        <pt x="440" y="611" on="1"/>
        <pt x="453" y="608" on="0"/>
        <pt x="463" y="602" on="0"/>
        <pt x="465" y="602" on="1"/>
        <pt x="466" y="605" on="1"/>
        <pt x="467" y="605" on="0"/>
        <pt x="457" y="607" on="0"/>
        <pt x="454" y="608" on="1"/>
        <pt x="456" y="612" on="1"/>
        <pt x="444" y="616" on="1"/>
      </contour>
      <contour>
        <pt x="391" y="621" on="1"/>
        <pt x="399" y="600" on="1"/>
        <pt x="398" y="621" on="1"/>
        <pt x="396" y="621" on="0"/>
        <pt x="391" y="623" on="0"/>
        <pt x="389" y="623" on="1"/>
      </contour>
      <contour>
        <pt x="417" y="592" on="1"/>
        <pt x="410" y="587" on="1"/>
        <pt x="416" y="579" on="1"/>
        <pt x="422" y="585" on="1"/>
      </contour>
      <contour>
        <pt x="431" y="594" on="1"/>
        <pt x="432" y="594" on="1"/>
        <pt x="427" y="601" on="1"/>
        <pt x="427" y="600" on="1"/>
      </contour>
    </TTGlyph>
    <TTGlyph name="AE" xMin="40" yMin="-72" xMax="1036" yMax="703">
      <contour>
        <pt x="650" y="-21" on="1"/>
        <pt x="642" y="-9" on="0"/>
        <pt x="618" y="45" on="0"/>
        <pt x="590" y="110" on="0"/>
        <pt x="563" y="178" on="0"/>
        <pt x="554" y="205" on="1"/>
        <pt x="546" y="200" on="0"/>
        <pt x="530" y="200" on="1"/>
        <pt x="510" y="200" on="0"/>
        <pt x="461" y="209" on="0"/>
        <pt x="447" y="214" on="1"/>
        <pt x="253" y="214" on="1"/>
        <pt x="253" y="211" on="0"/>
        <pt x="252" y="211" on="1"/>
        <pt x="264" y="209" on="0"/>
        <pt x="279" y="207" on="0"/>
        <pt x="287" y="207" on="1"/>
        <pt x="295" y="207" on="0"/>
        <pt x="319" y="208" on="0"/>
        <pt x="340" y="208" on="1"/>
        <pt x="373" y="206" on="0"/>
        <pt x="403" y="205" on="1"/>
        <pt x="432" y="204" on="0"/>
        <pt x="457" y="199" on="1"/>
        <pt x="447" y="201" on="0"/>
        <pt x="437" y="201" on="1"/>
        <pt x="415" y="201" on="1"/>
        <pt x="403" y="201" on="0"/>
        <pt x="380" y="200" on="0"/>
        <pt x="366" y="200" on="1"/>
        <pt x="355" y="200" on="0"/>
        <pt x="333" y="201" on="0"/>
        <pt x="320" y="202" on="1"/>
        <pt x="242" y="207" on="1"/>
        <pt x="217" y="143" on="0"/>
        <pt x="166" y="15" on="0"/>
        <pt x="142" y="-48" on="1"/>
        <pt x="140" y="-44" on="0"/>
        <pt x="131" y="-43" on="0"/>
        <pt x="122" y="-43" on="0"/>
        <pt x="114" y="-38" on="0"/>
        <pt x="114" y="-30" on="1"/>
        <pt x="114" y="-22" on="0"/>
        <pt x="122" y="7" on="0"/>
        <pt x="133" y="31" on="1"/>
        <pt x="131" y="33" on="0"/>
        <pt x="122" y="34" on="0"/>
        <pt x="120" y="34" on="1"/>
        <pt x="100" y="-8" on="0"/>
        <pt x="63" y="-53" on="0"/>
        <pt x="52" y="-53" on="1"/>
        <pt x="40" y="-53" on="0"/>
        <pt x="40" y="-30" on="1"/>
        <pt x="40" y="-11" on="0"/>
        <pt x="54" y="48" on="0"/>
        <pt x="75" y="116" on="0"/>
        <pt x="101" y="189" on="0"/>
        <pt x="113" y="224" on="1"/>
        <pt x="102" y="231" on="0"/>
        <pt x="77" y="237" on="0"/>
        <pt x="62" y="239" on="1"/>
        <pt x="65" y="243" on="0"/>
        <pt x="65" y="255" on="0"/>
        <pt x="67" y="267" on="0"/>
        <pt x="73" y="275" on="0"/>
        <pt x="81" y="275" on="1"/>
        <pt x="83" y="275" on="0"/>
        <pt x="93" y="273" on="1"/>
        <pt x="93" y="282" on="1"/>
        <pt x="77" y="290" on="0"/>
        <pt x="60" y="312" on="0"/>
        <pt x="60" y="323" on="1"/>
        <pt x="60" y="347" on="0"/>
        <pt x="106" y="347" on="1"/>
        <pt x="119" y="347" on="0"/>
        <pt x="146" y="344" on="0"/>
        <pt x="160" y="342" on="1"/>
        <pt x="206" y="447" on="1"/>
        <pt x="235" y="515" on="0"/>
        <pt x="308" y="633" on="0"/>
        <pt x="365" y="683" on="1"/>
        <pt x="744" y="703" on="1"/>
        <pt x="781" y="696" on="0"/>
        <pt x="852" y="687" on="0"/>
        <pt x="891" y="685" on="1"/>
        <pt x="890" y="662" on="1"/>
        <pt x="890" y="656" on="0"/>
        <pt x="879" y="649" on="0"/>
        <pt x="860" y="649" on="1"/>
        <pt x="857" y="649" on="0"/>
        <pt x="820" y="650" on="0"/>
        <pt x="776" y="652" on="0"/>
        <pt x="737" y="654" on="0"/>
        <pt x="732" y="654" on="1"/>
        <pt x="732" y="645" on="1"/>
        <pt x="785" y="640" on="0"/>
        <pt x="856" y="628" on="0"/>
        <pt x="898" y="614" on="0"/>
        <pt x="915" y="601" on="0"/>
        <pt x="915" y="595" on="1"/>
        <pt x="915" y="584" on="0"/>
        <pt x="890" y="584" on="1"/>
        <pt x="877" y="584" on="0"/>
        <pt x="840" y="587" on="0"/>
        <pt x="817" y="587" on="1"/>
        <pt x="606" y="589" on="1"/>
        <pt x="544" y="581" on="1"/>
        <pt x="575" y="516" on="0"/>
        <pt x="615" y="393" on="0"/>
        <pt x="635" y="326" on="1"/>
        <pt x="661" y="328" on="0"/>
        <pt x="710" y="336" on="0"/>
        <pt x="716" y="336" on="1"/>
        <pt x="725" y="336" on="1"/>
        <pt x="760" y="336" on="0"/>
        <pt x="823" y="348" on="0"/>
        <pt x="853" y="348" on="1"/>
        <pt x="858" y="348" on="0"/>
        <pt x="866" y="347" on="0"/>
        <pt x="871" y="347" on="1"/>
        <pt x="874" y="347" on="0"/>
        <pt x="883" y="349" on="0"/>
        <pt x="894" y="353" on="1"/>
        <pt x="898" y="354" on="0"/>
        <pt x="905" y="354" on="1"/>
        <pt x="917" y="354" on="0"/>
        <pt x="921" y="339" on="1"/>
        <pt x="905" y="334" on="0"/>
        <pt x="889" y="332" on="1"/>
        <pt x="875" y="331" on="0"/>
        <pt x="862" y="329" on="1"/>
        <pt x="870" y="329" on="1"/>
        <pt x="882" y="329" on="0"/>
        <pt x="908" y="331" on="0"/>
        <pt x="922" y="333" on="1"/>
        <pt x="922" y="329" on="1"/>
        <pt x="922" y="323" on="0"/>
        <pt x="924" y="317" on="1"/>
        <pt x="926" y="317" on="1"/>
        <pt x="934" y="317" on="0"/>
        <pt x="945" y="304" on="0"/>
        <pt x="947" y="296" on="1"/>
        <pt x="948" y="293" on="0"/>
        <pt x="948" y="287" on="1"/>
        <pt x="948" y="279" on="0"/>
        <pt x="944" y="266" on="0"/>
        <pt x="944" y="263" on="1"/>
        <pt x="944" y="262" on="1"/>
        <pt x="933" y="263" on="0"/>
        <pt x="910" y="264" on="0"/>
        <pt x="899" y="264" on="1"/>
        <pt x="870" y="264" on="0"/>
        <pt x="810" y="259" on="0"/>
        <pt x="781" y="254" on="1"/>
        <pt x="803" y="256" on="0"/>
        <pt x="851" y="259" on="0"/>
        <pt x="875" y="259" on="1"/>
        <pt x="892" y="259" on="0"/>
        <pt x="924" y="257" on="0"/>
        <pt x="940" y="255" on="1"/>
        <pt x="934" y="244" on="0"/>
        <pt x="927" y="241" on="1"/>
        <pt x="913" y="237" on="0"/>
        <pt x="887" y="238" on="0"/>
        <pt x="872" y="234" on="1"/>
        <pt x="869" y="245" on="1"/>
        <pt x="864" y="243" on="0"/>
        <pt x="856" y="241" on="1"/>
        <pt x="844" y="238" on="0"/>
        <pt x="833" y="238" on="1"/>
        <pt x="820" y="238" on="0"/>
        <pt x="794" y="242" on="0"/>
        <pt x="781" y="242" on="1"/>
        <pt x="768" y="242" on="0"/>
        <pt x="758" y="239" on="1"/>
        <pt x="746" y="236" on="0"/>
        <pt x="734" y="230" on="1"/>
        <pt x="735" y="226" on="1"/>
        <pt x="767" y="232" on="0"/>
        <pt x="834" y="231" on="0"/>
        <pt x="869" y="233" on="1"/>
        <pt x="837" y="230" on="0"/>
        <pt x="765" y="228" on="0"/>
        <pt x="734" y="220" on="1"/>
        <pt x="729" y="218" on="0"/>
        <pt x="686" y="219" on="0"/>
        <pt x="666" y="218" on="1"/>
        <pt x="666" y="216" on="0"/>
        <pt x="668" y="212" on="1"/>
        <pt x="676" y="185" on="0"/>
        <pt x="700" y="125" on="0"/>
        <pt x="711" y="99" on="1"/>
        <pt x="730" y="90" on="0"/>
        <pt x="765" y="90" on="1"/>
        <pt x="780" y="90" on="0"/>
        <pt x="831" y="95" on="0"/>
        <pt x="885" y="101" on="0"/>
        <pt x="934" y="106" on="0"/>
        <pt x="948" y="106" on="1"/>
        <pt x="962" y="106" on="0"/>
        <pt x="966" y="98" on="0"/>
        <pt x="966" y="91" on="1"/>
        <pt x="947" y="88" on="0"/>
        <pt x="903" y="84" on="0"/>
        <pt x="857" y="79" on="0"/>
        <pt x="835" y="77" on="1"/>
        <pt x="827" y="76" on="0"/>
        <pt x="819" y="75" on="1"/>
        <pt x="826" y="76" on="0"/>
        <pt x="834" y="76" on="1"/>
        <pt x="856" y="78" on="0"/>
        <pt x="901" y="81" on="0"/>
        <pt x="945" y="85" on="0"/>
        <pt x="963" y="88" on="1"/>
        <pt x="961" y="82" on="0"/>
        <pt x="961" y="80" on="1"/>
        <pt x="961" y="74" on="0"/>
        <pt x="966" y="70" on="1"/>
        <pt x="980" y="72" on="1"/>
        <pt x="986" y="73" on="0"/>
        <pt x="998" y="74" on="0"/>
        <pt x="1003" y="76" on="1"/>
        <pt x="1021" y="71" on="0"/>
        <pt x="1036" y="59" on="0"/>
        <pt x="1036" y="52" on="1"/>
        <pt x="1036" y="39" on="0"/>
        <pt x="1011" y="29" on="0"/>
        <pt x="1000" y="18" on="1"/>
        <pt x="993" y="18" on="1"/>
        <pt x="935" y="18" on="0"/>
        <pt x="804" y="1" on="0"/>
        <pt x="746" y="1" on="1"/>
        <pt x="732" y="1" on="1"/>
        <pt x="726" y="1" on="1"/>
        <pt x="745" y="-1" on="0"/>
        <pt x="767" y="-1" on="1"/>
        <pt x="823" y="-1" on="0"/>
        <pt x="941" y="8" on="0"/>
        <pt x="985" y="8" on="1"/>
        <pt x="969" y="0" on="0"/>
        <pt x="913" y="-11" on="0"/>
        <pt x="847" y="-19" on="0"/>
        <pt x="777" y="-22" on="0"/>
        <pt x="748" y="-22" on="1"/>
        <pt x="731" y="-22" on="1"/>
        <pt x="722" y="-22" on="0"/>
        <pt x="714" y="-20" on="1"/>
        <pt x="716" y="-29" on="0"/>
        <pt x="720" y="-45" on="0"/>
        <pt x="720" y="-50" on="1"/>
        <pt x="720" y="-72" on="0"/>
        <pt x="707" y="-72" on="1"/>
        <pt x="700" y="-72" on="0"/>
        <pt x="692" y="-66" on="0"/>
        <pt x="687" y="-61" on="1"/>
        <pt x="677" y="-51" on="1"/>
        <pt x="671" y="-45" on="0"/>
        <pt x="662" y="-39" on="1"/>
        <pt x="566" y="237" on="1"/>
        <pt x="587" y="172" on="0"/>
        <pt x="628" y="42" on="0"/>
      </contour>
      <contour>
        <pt x="287" y="323" on="1"/>
        <pt x="311" y="317" on="0"/>
        <pt x="364" y="313" on="0"/>
        <pt x="392" y="313" on="1"/>
        <pt x="415" y="313" on="0"/>
        <pt x="459" y="314" on="0"/>
        <pt x="481" y="314" on="1"/>
        <pt x="504" y="314" on="1"/>
        <pt x="516" y="314" on="0"/>
        <pt x="527" y="313" on="1"/>
        <pt x="510" y="351" on="0"/>
        <pt x="490" y="414" on="0"/>
        <pt x="471" y="475" on="0"/>
        <pt x="446" y="540" on="0"/>
        <pt x="425" y="581" on="1"/>
        <pt x="419" y="575" on="1"/>
        <pt x="434" y="548" on="1"/>
        <pt x="451" y="516" on="0"/>
        <pt x="466" y="484" on="0"/>
        <pt x="475" y="457" on="0"/>
        <pt x="485" y="422" on="0"/>
        <pt x="497" y="386" on="1"/>
        <pt x="482" y="425" on="0"/>
        <pt x="468" y="469" on="0"/>
        <pt x="454" y="503" on="0"/>
        <pt x="435" y="540" on="0"/>
        <pt x="416" y="572" on="1"/>
        <pt x="398" y="554" on="0"/>
        <pt x="370" y="509" on="0"/>
        <pt x="342" y="449" on="0"/>
        <pt x="309" y="372" on="0"/>
      </contour>
      <contour>
        <pt x="452" y="659" on="1"/>
        <pt x="494" y="660" on="0"/>
        <pt x="587" y="664" on="0"/>
        <pt x="669" y="668" on="0"/>
        <pt x="733" y="672" on="0"/>
        <pt x="746" y="672" on="1"/>
        <pt x="752" y="672" on="1"/>
        <pt x="750" y="673" on="0"/>
        <pt x="741" y="673" on="1"/>
        <pt x="719" y="673" on="1"/>
        <pt x="692" y="673" on="0"/>
        <pt x="609" y="671" on="0"/>
        <pt x="523" y="669" on="0"/>
        <pt x="449" y="667" on="0"/>
        <pt x="430" y="667" on="1"/>
        <pt x="423" y="667" on="1"/>
      </contour>
      <contour>
        <pt x="520" y="597" on="1"/>
        <pt x="535" y="564" on="0"/>
        <pt x="557" y="497" on="0"/>
        <pt x="575" y="429" on="0"/>
        <pt x="592" y="360" on="0"/>
        <pt x="603" y="325" on="1"/>
        <pt x="611" y="326" on="1"/>
        <pt x="591" y="394" on="0"/>
        <pt x="553" y="529" on="0"/>
      </contour>
      <contour>
        <pt x="346" y="239" on="1"/>
        <pt x="380" y="232" on="0"/>
        <pt x="436" y="230" on="0"/>
        <pt x="484" y="230" on="0"/>
        <pt x="528" y="227" on="0"/>
        <pt x="549" y="221" on="1"/>
        <pt x="547" y="224" on="0"/>
        <pt x="546" y="231" on="0"/>
        <pt x="545" y="234" on="1"/>
        <pt x="519" y="237" on="1"/>
        <pt x="508" y="238" on="0"/>
        <pt x="498" y="238" on="1"/>
        <pt x="480" y="238" on="1"/>
        <pt x="460" y="238" on="0"/>
        <pt x="425" y="237" on="0"/>
        <pt x="405" y="237" on="1"/>
        <pt x="377" y="237" on="1"/>
        <pt x="363" y="237" on="0"/>
      </contour>
      <contour>
        <pt x="647" y="218" on="1"/>
        <pt x="659" y="180" on="0"/>
        <pt x="675" y="101" on="0"/>
        <pt x="688" y="63" on="1"/>
        <pt x="700" y="76" on="1"/>
        <pt x="686" y="112" on="0"/>
        <pt x="661" y="182" on="0"/>
        <pt x="648" y="218" on="1"/>
      </contour>
      <contour>
        <pt x="343" y="481" on="1"/>
        <pt x="345" y="481" on="0"/>
        <pt x="344" y="476" on="0"/>
        <pt x="345" y="476" on="1"/>
        <pt x="352" y="490" on="0"/>
        <pt x="373" y="525" on="0"/>
        <pt x="395" y="558" on="0"/>
        <pt x="415" y="583" on="0"/>
        <pt x="420" y="588" on="1"/>
        <pt x="415" y="595" on="1"/>
        <pt x="394" y="575" on="0"/>
        <pt x="355" y="515" on="0"/>
      </contour>
      <contour>
        <pt x="434" y="589" on="1"/>
        <pt x="466" y="535" on="0"/>
        <pt x="500" y="417" on="0"/>
        <pt x="523" y="357" on="1"/>
        <pt x="504" y="417" on="0"/>
        <pt x="468" y="535" on="0"/>
        <pt x="435" y="589" on="1"/>
      </contour>
      <contour>
        <pt x="534" y="296" on="1"/>
        <pt x="534" y="297" on="1"/>
        <pt x="533" y="300" on="1"/>
        <pt x="406" y="289" on="1"/>
      </contour>
      <contour>
        <pt x="785" y="324" on="1"/>
        <pt x="795" y="322" on="0"/>
        <pt x="802" y="322" on="1"/>
        <pt x="813" y="322" on="0"/>
        <pt x="836" y="325" on="0"/>
        <pt x="850" y="327" on="1"/>
        <pt x="833" y="327" on="0"/>
        <pt x="801" y="324" on="0"/>
      </contour>
      <contour>
        <pt x="802" y="73" on="1"/>
        <pt x="805" y="74" on="0"/>
        <pt x="808" y="74" on="1"/>
        <pt x="805" y="74" on="0"/>
      </contour>
    </TTGlyph>
    <TTGlyph name="Aacute" xMin="20" yMin="-72" xMax="754" yMax="955">
      <component glyphName="A" x="0" y="0" flags="0x204"/>
      <component glyphName="acute.cap" x="219" y="-19" flags="0x4"/>
    </TTGlyph>
    <TTGlyph name="Acircumflex" xMin="20" yMin="-72" xMax="754" yMax="1025">
      <component glyphName="A" x="0" y="0" flags="0x204"/>
      <component glyphName="circumflex.cap" x="264" y="0" flags="0x4"/>
    </TTGlyph>
    <TTGlyph name="Adieresis" xMin="20" yMin="-72" xMax="754" yMax="882">
      <component glyphName="A" x="0" y="0" flags="0x204"/>
      <component glyphName="dieresis.cap" x="185" y="-59" flags="0x4"/>
    </TTGlyph>
    <TTGlyph name="Agrave" xMin="20" yMin="-72" xMax="754" yMax="985">
      <component glyphName="A" x="0" y="0" flags="0x204"/>
      <component glyphName="grave.cap" x="290" y="-29" flags="0x4"/>
    </TTGlyph>
    <TTGlyph name="Aring" xMin="20" yMin="-72" xMax="754" yMax="990">
      <component glyphName="A" x="0" y="0" flags="0x204"/>
      <component glyphName="ring.cap" x="310" y="-107" flags="0x4"/>
    </TTGlyph>
    <TTGlyph name="Atilde" xMin="20" yMin="-72" xMax="754" yMax="1034">
      <component glyphName="A" x="0" y="0" flags="0x204"/>
      <component glyphName="tilde.cap" x="177" y="-19" flags="0x4"/>
    </TTGlyph>
    <TTGlyph name="B" xMin="10" yMin="-51" xMax="658" yMax="695">
      <contour>
        <pt x="151" y="93" on="1"/>
        <pt x="151" y="124" on="1"/>
        <pt x="164" y="132" on="1"/>
        <pt x="161" y="149" on="0"/>
        <pt x="159" y="182" on="0"/>
        <pt x="159" y="199" on="1"/>
        <pt x="159" y="218" on="0"/>
        <pt x="160" y="255" on="0"/>
        <pt x="160" y="275" on="1"/>
        <pt x="160" y="296" on="0"/>
        <pt x="156" y="338" on="0"/>
        <pt x="151" y="359" on="1"/>
        <pt x="145" y="359" on="1"/>
        <pt x="146" y="306" on="0"/>
        <pt x="151" y="204" on="0"/>
        <pt x="151" y="151" on="1"/>
        <pt x="146" y="227" on="0"/>
        <pt x="133" y="379" on="0"/>
        <pt x="133" y="457" on="1"/>
        <pt x="133" y="480" on="0"/>
        <pt x="138" y="527" on="0"/>
        <pt x="141" y="550" on="1"/>
        <pt x="75" y="533" on="1"/>
        <pt x="76" y="536" on="1"/>
        <pt x="74" y="539" on="0"/>
        <pt x="67" y="555" on="0"/>
        <pt x="67" y="557" on="1"/>
        <pt x="67" y="562" on="0"/>
        <pt x="88" y="573" on="0"/>
        <pt x="115" y="581" on="0"/>
        <pt x="140" y="587" on="0"/>
        <pt x="145" y="588" on="1"/>
        <pt x="142" y="600" on="1"/>
        <pt x="134" y="598" on="0"/>
        <pt x="85" y="593" on="0"/>
        <pt x="60" y="593" on="1"/>
        <pt x="40" y="593" on="0"/>
        <pt x="10" y="599" on="0"/>
        <pt x="10" y="609" on="1"/>
        <pt x="10" y="620" on="0"/>
        <pt x="50" y="642" on="0"/>
        <pt x="113" y="661" on="0"/>
        <pt x="189" y="677" on="0"/>
        <pt x="259" y="689" on="0"/>
        <pt x="315" y="695" on="0"/>
        <pt x="326" y="695" on="1"/>
        <pt x="377" y="695" on="0"/>
        <pt x="470" y="670" on="0"/>
        <pt x="540" y="617" on="0"/>
        <pt x="581" y="535" on="0"/>
        <pt x="581" y="479" on="1"/>
        <pt x="581" y="456" on="0"/>
        <pt x="567" y="407" on="0"/>
        <pt x="538" y="362" on="0"/>
        <pt x="493" y="326" on="0"/>
        <pt x="462" y="318" on="1"/>
        <pt x="514" y="311" on="0"/>
        <pt x="589" y="277" on="0"/>
        <pt x="636" y="229" on="0"/>
        <pt x="658" y="169" on="0"/>
        <pt x="658" y="135" on="1"/>
        <pt x="658" y="91" on="0"/>
        <pt x="623" y="29" on="0"/>
        <pt x="565" y="-13" on="0"/>
        <pt x="491" y="-36" on="0"/>
        <pt x="411" y="-48" on="0"/>
        <pt x="333" y="-51" on="0"/>
        <pt x="301" y="-51" on="1"/>
        <pt x="293" y="-51" on="0"/>
        <pt x="248" y="-49" on="0"/>
        <pt x="200" y="-43" on="0"/>
        <pt x="163" y="-32" on="0"/>
        <pt x="163" y="-23" on="1"/>
        <pt x="164" y="-18" on="1"/>
        <pt x="206" y="-25" on="0"/>
        <pt x="290" y="-34" on="0"/>
        <pt x="332" y="-34" on="1"/>
        <pt x="364" y="-34" on="0"/>
        <pt x="426" y="-26" on="0"/>
        <pt x="457" y="-20" on="1"/>
        <pt x="401" y="-30" on="0"/>
        <pt x="340" y="-30" on="1"/>
        <pt x="297" y="-30" on="0"/>
        <pt x="212" y="-22" on="0"/>
        <pt x="170" y="-15" on="1"/>
        <pt x="175" y="-3" on="1"/>
        <pt x="173" y="4" on="1"/>
        <pt x="170" y="3" on="0"/>
        <pt x="164" y="3" on="1"/>
        <pt x="154" y="3" on="0"/>
        <pt x="128" y="11" on="0"/>
        <pt x="105" y="23" on="0"/>
        <pt x="89" y="39" on="0"/>
        <pt x="89" y="47" on="1"/>
        <pt x="89" y="52" on="0"/>
        <pt x="105" y="58" on="0"/>
        <pt x="126" y="61" on="0"/>
        <pt x="146" y="63" on="0"/>
        <pt x="150" y="64" on="1"/>
      </contour>
      <contour>
        <pt x="251" y="567" on="1"/>
        <pt x="253" y="561" on="0"/>
        <pt x="258" y="522" on="0"/>
        <pt x="263" y="470" on="0"/>
        <pt x="267" y="410" on="0"/>
        <pt x="270" y="355" on="0"/>
        <pt x="272" y="312" on="0"/>
        <pt x="272" y="303" on="1"/>
        <pt x="272" y="250" on="0"/>
        <pt x="264" y="145" on="0"/>
        <pt x="264" y="92" on="1"/>
        <pt x="264" y="72" on="0"/>
        <pt x="291" y="62" on="0"/>
        <pt x="307" y="62" on="1"/>
        <pt x="355" y="62" on="0"/>
        <pt x="449" y="69" on="0"/>
        <pt x="494" y="86" on="1"/>
        <pt x="497" y="74" on="1"/>
        <pt x="517" y="84" on="0"/>
        <pt x="548" y="113" on="0"/>
        <pt x="548" y="137" on="1"/>
        <pt x="548" y="164" on="0"/>
        <pt x="514" y="203" on="0"/>
        <pt x="465" y="227" on="0"/>
        <pt x="410" y="239" on="0"/>
        <pt x="389" y="239" on="1"/>
        <pt x="387" y="239" on="0"/>
        <pt x="375" y="234" on="0"/>
        <pt x="372" y="233" on="1"/>
        <pt x="386" y="232" on="0"/>
        <pt x="428" y="224" on="0"/>
        <pt x="472" y="211" on="0"/>
        <pt x="492" y="201" on="1"/>
        <pt x="512" y="191" on="0"/>
        <pt x="525" y="179" on="1"/>
        <pt x="506" y="194" on="0"/>
        <pt x="473" y="204" on="1"/>
        <pt x="439" y="214" on="0"/>
        <pt x="368" y="226" on="0"/>
        <pt x="308" y="233" on="0"/>
        <pt x="297" y="235" on="1"/>
        <pt x="292" y="346" on="1"/>
        <pt x="294" y="346" on="1"/>
        <pt x="320" y="346" on="0"/>
        <pt x="377" y="365" on="0"/>
        <pt x="425" y="400" on="0"/>
        <pt x="457" y="449" on="0"/>
        <pt x="457" y="478" on="1"/>
        <pt x="457" y="506" on="0"/>
        <pt x="433" y="542" on="0"/>
        <pt x="394" y="563" on="0"/>
        <pt x="346" y="570" on="0"/>
        <pt x="323" y="570" on="1"/>
        <pt x="305" y="570" on="0"/>
        <pt x="269" y="567" on="0"/>
      </contour>
      <contour>
        <pt x="265" y="41" on="1"/>
        <pt x="282" y="39" on="0"/>
        <pt x="313" y="37" on="0"/>
        <pt x="330" y="37" on="1"/>
        <pt x="346" y="37" on="0"/>
        <pt x="393" y="40" on="0"/>
        <pt x="446" y="48" on="0"/>
        <pt x="499" y="62" on="0"/>
        <pt x="541" y="84" on="0"/>
        <pt x="568" y="116" on="0"/>
        <pt x="568" y="138" on="1"/>
        <pt x="568" y="150" on="0"/>
        <pt x="560" y="172" on="0"/>
        <pt x="553" y="182" on="1"/>
        <pt x="558" y="174" on="0"/>
        <pt x="565" y="155" on="0"/>
        <pt x="565" y="145" on="1"/>
        <pt x="565" y="111" on="0"/>
        <pt x="519" y="71" on="0"/>
        <pt x="454" y="50" on="0"/>
        <pt x="384" y="44" on="0"/>
        <pt x="359" y="44" on="1"/>
        <pt x="336" y="44" on="0"/>
        <pt x="289" y="47" on="0"/>
        <pt x="266" y="49" on="1"/>
      </contour>
      <contour>
        <pt x="175" y="57" on="1"/>
        <pt x="177" y="92" on="0"/>
        <pt x="177" y="128" on="1"/>
        <pt x="177" y="199" on="1"/>
        <pt x="177" y="219" on="0"/>
        <pt x="176" y="238" on="1"/>
        <pt x="175" y="256" on="0"/>
        <pt x="173" y="274" on="1"/>
        <pt x="173" y="248" on="0"/>
        <pt x="173" y="222" on="1"/>
        <pt x="174" y="195" on="0"/>
        <pt x="174" y="168" on="1"/>
        <pt x="174" y="140" on="0"/>
        <pt x="172" y="86" on="0"/>
        <pt x="168" y="59" on="1"/>
      </contour>
      <contour>
        <pt x="364" y="343" on="1"/>
        <pt x="382" y="354" on="0"/>
        <pt x="415" y="378" on="0"/>
        <pt x="429" y="394" on="1"/>
        <pt x="424" y="394" on="0"/>
        <pt x="424" y="398" on="1"/>
        <pt x="393" y="364" on="0"/>
        <pt x="347" y="345" on="1"/>
      </contour>
      <contour>
        <pt x="416" y="250" on="1"/>
        <pt x="446" y="245" on="0"/>
        <pt x="480" y="231" on="1"/>
        <pt x="509" y="219" on="0"/>
        <pt x="532" y="203" on="1"/>
        <pt x="510" y="221" on="0"/>
        <pt x="480" y="234" on="1"/>
        <pt x="447" y="250" on="0"/>
        <pt x="417" y="250" on="1"/>
      </contour>
      <contour>
        <pt x="188" y="545" on="1"/>
        <pt x="195" y="561" on="1"/>
        <pt x="179" y="559" on="1"/>
        <pt x="179" y="557" on="0"/>
        <pt x="180" y="554" on="0"/>
        <pt x="180" y="552" on="1"/>
        <pt x="180" y="550" on="0"/>
        <pt x="179" y="547" on="0"/>
        <pt x="179" y="545" on="1"/>
      </contour>
      <contour>
        <pt x="627" y="88" on="1"/>
        <pt x="637" y="114" on="0"/>
        <pt x="637" y="137" on="1"/>
        <pt x="637" y="148" on="1"/>
        <pt x="637" y="154" on="0"/>
        <pt x="636" y="159" on="1"/>
        <pt x="636" y="127" on="0"/>
        <pt x="623" y="72" on="0"/>
        <pt x="602" y="48" on="1"/>
        <pt x="618" y="64" on="0"/>
      </contour>
      <contour>
        <pt x="252" y="252" on="1"/>
        <pt x="248" y="233" on="0"/>
        <pt x="247" y="214" on="1"/>
        <pt x="246" y="198" on="0"/>
        <pt x="246" y="181" on="1"/>
        <pt x="247" y="197" on="0"/>
        <pt x="249" y="213" on="1"/>
        <pt x="251" y="232" on="0"/>
      </contour>
      <contour>
        <pt x="600" y="46" on="1"/>
        <pt x="581" y="26" on="0"/>
        <pt x="535" y="2" on="0"/>
        <pt x="510" y="-8" on="1"/>
        <pt x="536" y="1" on="0"/>
        <pt x="582" y="25" on="0"/>
      </contour>
      <contour>
        <pt x="569" y="270" on="1"/>
        <pt x="578" y="262" on="0"/>
        <pt x="586" y="254" on="1"/>
        <pt x="600" y="240" on="1"/>
        <pt x="594" y="249" on="0"/>
        <pt x="587" y="256" on="1"/>
        <pt x="580" y="264" on="0"/>
      </contour>
      <contour>
        <pt x="246" y="68" on="1"/>
        <pt x="246" y="98" on="1"/>
        <pt x="245" y="90" on="0"/>
        <pt x="244" y="76" on="0"/>
        <pt x="244" y="68" on="1"/>
      </contour>
      <contour>
        <pt x="527" y="177" on="1"/>
        <pt x="543" y="164" on="0"/>
        <pt x="543" y="146" on="1"/>
        <pt x="543" y="144" on="1"/>
        <pt x="540" y="162" on="0"/>
      </contour>
      <contour>
        <pt x="524" y="103" on="1"/>
        <pt x="515" y="94" on="0"/>
        <pt x="502" y="89" on="1"/>
      </contour>
      <contour>
        <pt x="242" y="44" on="1"/>
        <pt x="246" y="44" on="1"/>
        <pt x="246" y="51" on="1"/>
        <pt x="242" y="51" on="1"/>
      </contour>
      <contour>
        <pt x="536" y="120" on="1"/>
        <pt x="535" y="120" on="0"/>
        <pt x="535" y="122" on="1"/>
        <pt x="535" y="124" on="0"/>
        <pt x="538" y="131" on="0"/>
        <pt x="540" y="133" on="1"/>
      </contour>
      <contour>
        <pt x="543" y="138" on="1"/>
        <pt x="543" y="137" on="0"/>
        <pt x="541" y="135" on="1"/>
        <pt x="543" y="139" on="1"/>
      </contour>
    </TTGlyph>
    <TTGlyph name="C" xMin="45" yMin="-18" xMax="561" yMax="771">
      <contour>
        <pt x="537" y="106" on="1"/>
        <pt x="535" y="81" on="0"/>
        <pt x="500" y="44" on="0"/>
        <pt x="449" y="19" on="0"/>
        <pt x="392" y="7" on="0"/>
        <pt x="369" y="7" on="1"/>
        <pt x="301" y="7" on="0"/>
        <pt x="193" y="72" on="0"/>
        <pt x="117" y="175" on="0"/>
        <pt x="95" y="238" on="1"/>
        <pt x="74" y="299" on="0"/>
        <pt x="71" y="358" on="1"/>
        <pt x="73" y="297" on="0"/>
        <pt x="94" y="235" on="1"/>
        <pt x="116" y="171" on="0"/>
        <pt x="192" y="67" on="0"/>
        <pt x="302" y="2" on="0"/>
        <pt x="371" y="2" on="1"/>
        <pt x="409" y="2" on="0"/>
        <pt x="481" y="26" on="0"/>
        <pt x="512" y="47" on="1"/>
        <pt x="489" y="12" on="0"/>
        <pt x="413" y="-18" on="0"/>
        <pt x="373" y="-18" on="1"/>
        <pt x="328" y="-18" on="0"/>
        <pt x="252" y="7" on="0"/>
        <pt x="216" y="34" on="1"/>
        <pt x="212" y="50" on="1"/>
        <pt x="171" y="75" on="0"/>
        <pt x="112" y="149" on="0"/>
        <pt x="75" y="235" on="0"/>
        <pt x="58" y="329" on="0"/>
        <pt x="58" y="376" on="1"/>
        <pt x="58" y="426" on="0"/>
        <pt x="77" y="525" on="0"/>
        <pt x="94" y="573" on="1"/>
        <pt x="90" y="573" on="0"/>
        <pt x="90" y="576" on="1"/>
        <pt x="69" y="530" on="0"/>
        <pt x="49" y="432" on="0"/>
        <pt x="49" y="381" on="1"/>
        <pt x="49" y="284" on="0"/>
        <pt x="125" y="105" on="0"/>
        <pt x="200" y="43" on="1"/>
        <pt x="161" y="73" on="0"/>
        <pt x="102" y="151" on="0"/>
        <pt x="64" y="240" on="0"/>
        <pt x="45" y="336" on="0"/>
        <pt x="45" y="385" on="1"/>
        <pt x="45" y="451" on="0"/>
        <pt x="82" y="588" on="0"/>
        <pt x="157" y="700" on="0"/>
        <pt x="269" y="771" on="0"/>
        <pt x="344" y="771" on="1"/>
        <pt x="378" y="771" on="0"/>
        <pt x="439" y="749" on="0"/>
        <pt x="493" y="713" on="0"/>
        <pt x="540" y="667" on="0"/>
        <pt x="561" y="643" on="1"/>
        <pt x="540" y="625" on="1"/>
        <pt x="526" y="630" on="0"/>
        <pt x="501" y="651" on="0"/>
        <pt x="491" y="662" on="1"/>
        <pt x="485" y="655" on="1"/>
        <pt x="498" y="640" on="0"/>
        <pt x="520" y="601" on="0"/>
        <pt x="520" y="580" on="1"/>
        <pt x="509" y="562" on="1"/>
        <pt x="496" y="563" on="0"/>
        <pt x="457" y="592" on="0"/>
        <pt x="410" y="625" on="0"/>
        <pt x="361" y="653" on="0"/>
        <pt x="338" y="653" on="1"/>
        <pt x="308" y="653" on="0"/>
        <pt x="261" y="623" on="0"/>
        <pt x="223" y="575" on="0"/>
        <pt x="196" y="513" on="0"/>
        <pt x="179" y="449" on="0"/>
        <pt x="170" y="388" on="0"/>
        <pt x="170" y="365" on="1"/>
        <pt x="170" y="326" on="0"/>
        <pt x="195" y="232" on="0"/>
        <pt x="244" y="151" on="0"/>
        <pt x="316" y="97" on="0"/>
        <pt x="362" y="97" on="1"/>
        <pt x="383" y="97" on="0"/>
        <pt x="428" y="106" on="0"/>
        <pt x="446" y="117" on="1"/>
        <pt x="454" y="108" on="1"/>
        <pt x="416" y="79" on="0"/>
        <pt x="367" y="79" on="1"/>
        <pt x="319" y="79" on="0"/>
        <pt x="279" y="102" on="1"/>
        <pt x="298" y="89" on="0"/>
        <pt x="321" y="83" on="1"/>
        <pt x="346" y="76" on="0"/>
        <pt x="371" y="76" on="1"/>
        <pt x="417" y="76" on="0"/>
        <pt x="457" y="102" on="1"/>
        <pt x="466" y="89" on="1"/>
        <pt x="476" y="100" on="0"/>
        <pt x="506" y="121" on="0"/>
        <pt x="522" y="123" on="1"/>
      </contour>
      <contour>
        <pt x="155" y="307" on="1"/>
        <pt x="160" y="249" on="0"/>
        <pt x="189" y="196" on="1"/>
        <pt x="218" y="144" on="0"/>
        <pt x="265" y="112" on="1"/>
        <pt x="218" y="145" on="0"/>
        <pt x="191" y="197" on="1"/>
        <pt x="163" y="250" on="0"/>
      </contour>
    </TTGlyph>
    <TTGlyph name="Ccedilla" xMin="45" yMin="-295" xMax="561" yMax="771">
      <contour>
        <pt x="537" y="106" on="1"/>
        <pt x="535" y="81" on="0"/>
        <pt x="500" y="44" on="0"/>
        <pt x="449" y="19" on="0"/>
        <pt x="392" y="7" on="0"/>
        <pt x="369" y="7" on="1"/>
        <pt x="301" y="7" on="0"/>
        <pt x="193" y="72" on="0"/>
        <pt x="117" y="175" on="0"/>
        <pt x="95" y="238" on="1"/>
        <pt x="74" y="299" on="0"/>
        <pt x="71" y="358" on="1"/>
        <pt x="73" y="297" on="0"/>
        <pt x="94" y="235" on="1"/>
        <pt x="116" y="171" on="0"/>
        <pt x="192" y="67" on="0"/>
        <pt x="302" y="2" on="0"/>
        <pt x="371" y="2" on="1"/>
        <pt x="409" y="2" on="0"/>
        <pt x="481" y="26" on="0"/>
        <pt x="512" y="47" on="1"/>
        <pt x="489" y="12" on="0"/>
        <pt x="413" y="-18" on="0"/>
        <pt x="373" y="-18" on="1"/>
        <pt x="328" y="-18" on="0"/>
        <pt x="252" y="7" on="0"/>
        <pt x="216" y="34" on="1"/>
        <pt x="212" y="50" on="1"/>
        <pt x="171" y="75" on="0"/>
        <pt x="112" y="149" on="0"/>
        <pt x="75" y="235" on="0"/>
        <pt x="58" y="329" on="0"/>
        <pt x="58" y="376" on="1"/>
        <pt x="58" y="426" on="0"/>
        <pt x="77" y="525" on="0"/>
        <pt x="94" y="573" on="1"/>
        <pt x="90" y="573" on="0"/>
        <pt x="90" y="576" on="1"/>
        <pt x="69" y="530" on="0"/>
        <pt x="49" y="432" on="0"/>
        <pt x="49" y="381" on="1"/>
        <pt x="49" y="284" on="0"/>
        <pt x="125" y="105" on="0"/>
        <pt x="200" y="43" on="1"/>
        <pt x="161" y="73" on="0"/>
        <pt x="102" y="151" on="0"/>
        <pt x="64" y="240" on="0"/>
        <pt x="45" y="336" on="0"/>
        <pt x="45" y="385" on="1"/>
        <pt x="45" y="451" on="0"/>
        <pt x="82" y="588" on="0"/>
        <pt x="157" y="700" on="0"/>
        <pt x="269" y="771" on="0"/>
        <pt x="344" y="771" on="1"/>
        <pt x="378" y="771" on="0"/>
        <pt x="439" y="749" on="0"/>
        <pt x="493" y="713" on="0"/>
        <pt x="540" y="667" on="0"/>
        <pt x="561" y="643" on="1"/>
        <pt x="540" y="625" on="1"/>
        <pt x="526" y="630" on="0"/>
        <pt x="501" y="651" on="0"/>
        <pt x="491" y="662" on="1"/>
        <pt x="485" y="655" on="1"/>
        <pt x="498" y="640" on="0"/>
        <pt x="520" y="601" on="0"/>
        <pt x="520" y="580" on="1"/>
        <pt x="509" y="562" on="1"/>
        <pt x="496" y="563" on="0"/>
        <pt x="457" y="592" on="0"/>
        <pt x="410" y="625" on="0"/>
        <pt x="361" y="653" on="0"/>
        <pt x="338" y="653" on="1"/>
        <pt x="308" y="653" on="0"/>
        <pt x="261" y="623" on="0"/>
        <pt x="223" y="575" on="0"/>
        <pt x="196" y="513" on="0"/>
        <pt x="179" y="449" on="0"/>
        <pt x="170" y="388" on="0"/>
        <pt x="170" y="365" on="1"/>
        <pt x="170" y="326" on="0"/>
        <pt x="195" y="232" on="0"/>
        <pt x="244" y="151" on="0"/>
        <pt x="316" y="97" on="0"/>
        <pt x="362" y="97" on="1"/>
        <pt x="383" y="97" on="0"/>
        <pt x="428" y="106" on="0"/>
        <pt x="446" y="117" on="1"/>
        <pt x="454" y="108" on="1"/>
        <pt x="416" y="79" on="0"/>
        <pt x="367" y="79" on="1"/>
        <pt x="319" y="79" on="0"/>
        <pt x="279" y="102" on="1"/>
        <pt x="298" y="89" on="0"/>
        <pt x="321" y="83" on="1"/>
        <pt x="346" y="76" on="0"/>
        <pt x="371" y="76" on="1"/>
        <pt x="417" y="76" on="0"/>
        <pt x="457" y="102" on="1"/>
        <pt x="466" y="89" on="1"/>
        <pt x="476" y="100" on="0"/>
        <pt x="506" y="121" on="0"/>
        <pt x="522" y="123" on="1"/>
      </contour>
      <contour>
        <pt x="455" y="-100" on="1"/>
        <pt x="460" y="-110" on="0"/>
        <pt x="462" y="-131" on="0"/>
        <pt x="462" y="-145" on="1"/>
        <pt x="462" y="-192" on="0"/>
        <pt x="426" y="-250" on="0"/>
        <pt x="372" y="-283" on="0"/>
        <pt x="307" y="-295" on="0"/>
        <pt x="278" y="-295" on="1"/>
        <pt x="256" y="-295" on="0"/>
        <pt x="209" y="-291" on="0"/>
        <pt x="169" y="-283" on="0"/>
        <pt x="143" y="-272" on="0"/>
        <pt x="143" y="-265" on="1"/>
        <pt x="143" y="-262" on="0"/>
        <pt x="146" y="-257" on="1"/>
        <pt x="166" y="-263" on="0"/>
        <pt x="195" y="-270" on="0"/>
        <pt x="222" y="-274" on="0"/>
        <pt x="251" y="-275" on="0"/>
        <pt x="271" y="-275" on="1"/>
        <pt x="254" y="-274" on="0"/>
        <pt x="224" y="-272" on="0"/>
        <pt x="196" y="-267" on="0"/>
        <pt x="166" y="-259" on="0"/>
        <pt x="148" y="-252" on="1"/>
        <pt x="150" y="-248" on="0"/>
        <pt x="154" y="-241" on="0"/>
        <pt x="154" y="-237" on="1"/>
        <pt x="149" y="-237" on="0"/>
        <pt x="133" y="-226" on="0"/>
        <pt x="133" y="-216" on="1"/>
        <pt x="133" y="-202" on="0"/>
        <pt x="162" y="-181" on="1"/>
        <pt x="176" y="-195" on="0"/>
        <pt x="232" y="-206" on="0"/>
        <pt x="280" y="-206" on="1"/>
        <pt x="297" y="-206" on="0"/>
        <pt x="305" y="-202" on="1"/>
        <pt x="312" y="-199" on="0"/>
        <pt x="322" y="-195" on="1"/>
        <pt x="304" y="-200" on="0"/>
        <pt x="288" y="-201" on="1"/>
        <pt x="271" y="-203" on="0"/>
        <pt x="247" y="-203" on="1"/>
        <pt x="228" y="-203" on="0"/>
        <pt x="190" y="-194" on="0"/>
        <pt x="170" y="-177" on="1"/>
        <pt x="180" y="-172" on="0"/>
        <pt x="188" y="-172" on="1"/>
        <pt x="204" y="-172" on="0"/>
        <pt x="216" y="-176" on="0"/>
        <pt x="222" y="-177" on="1"/>
        <pt x="226" y="-188" on="1"/>
        <pt x="251" y="-188" on="1"/>
        <pt x="267" y="-188" on="0"/>
        <pt x="301" y="-186" on="0"/>
        <pt x="329" y="-180" on="0"/>
        <pt x="347" y="-167" on="0"/>
        <pt x="347" y="-155" on="1"/>
        <pt x="347" y="-154" on="0"/>
        <pt x="342" y="-151" on="1"/>
        <pt x="342" y="-165" on="0"/>
        <pt x="311" y="-181" on="0"/>
        <pt x="280" y="-181" on="1"/>
        <pt x="264" y="-181" on="1"/>
        <pt x="257" y="-181" on="0"/>
        <pt x="249" y="-180" on="1"/>
        <pt x="266" y="-180" on="1"/>
        <pt x="295" y="-180" on="0"/>
        <pt x="324" y="-172" on="0"/>
        <pt x="336" y="-162" on="0"/>
        <pt x="337" y="-150" on="0"/>
        <pt x="339" y="-147" on="1"/>
        <pt x="337" y="-124" on="0"/>
        <pt x="321" y="-99" on="0"/>
        <pt x="303" y="-84" on="0"/>
        <pt x="288" y="-73" on="0"/>
        <pt x="288" y="-64" on="1"/>
        <pt x="288" y="-62" on="1"/>
        <pt x="346" y="-24" on="1"/>
        <pt x="377" y="-25" on="0"/>
        <pt x="439" y="-66" on="0"/>
      </contour>
      <contour>
        <pt x="155" y="307" on="1"/>
        <pt x="160" y="249" on="0"/>
        <pt x="189" y="196" on="1"/>
        <pt x="218" y="144" on="0"/>
        <pt x="265" y="112" on="1"/>
        <pt x="218" y="145" on="0"/>
        <pt x="191" y="197" on="1"/>
        <pt x="163" y="250" on="0"/>
      </contour>
    </TTGlyph>
    <TTGlyph name="D" xMin="60" yMin="-83" xMax="655" yMax="724">
      <contour>
        <pt x="165" y="-37" on="1"/>
        <pt x="157" y="-32" on="0"/>
        <pt x="153" y="4" on="0"/>
        <pt x="153" y="30" on="1"/>
        <pt x="153" y="54" on="1"/>
        <pt x="144" y="54" on="1"/>
        <pt x="143" y="48" on="0"/>
        <pt x="136" y="4" on="0"/>
        <pt x="125" y="-45" on="0"/>
        <pt x="110" y="-83" on="0"/>
        <pt x="101" y="-83" on="1"/>
        <pt x="93" y="-83" on="0"/>
        <pt x="83" y="-41" on="0"/>
        <pt x="79" y="14" on="0"/>
        <pt x="78" y="69" on="0"/>
        <pt x="78" y="82" on="1"/>
        <pt x="78" y="151" on="0"/>
        <pt x="82" y="286" on="0"/>
        <pt x="82" y="354" on="1"/>
        <pt x="82" y="422" on="0"/>
        <pt x="60" y="557" on="0"/>
        <pt x="60" y="623" on="1"/>
        <pt x="74" y="641" on="0"/>
        <pt x="99" y="679" on="0"/>
        <pt x="111" y="699" on="1"/>
        <pt x="147" y="708" on="0"/>
        <pt x="225" y="724" on="0"/>
        <pt x="263" y="724" on="1"/>
        <pt x="368" y="724" on="0"/>
        <pt x="517" y="659" on="0"/>
        <pt x="611" y="540" on="0"/>
        <pt x="655" y="375" on="0"/>
        <pt x="655" y="276" on="1"/>
        <pt x="655" y="116" on="0"/>
        <pt x="479" y="-39" on="0"/>
        <pt x="321" y="-39" on="1"/>
        <pt x="315" y="-39" on="0"/>
        <pt x="289" y="-36" on="0"/>
        <pt x="284" y="-30" on="1"/>
        <pt x="312" y="-26" on="0"/>
        <pt x="385" y="-15" on="0"/>
        <pt x="459" y="1" on="0"/>
        <pt x="526" y="26" on="0"/>
        <pt x="548" y="45" on="1"/>
        <pt x="518" y="25" on="0"/>
        <pt x="455" y="2" on="0"/>
        <pt x="390" y="-10" on="0"/>
        <pt x="322" y="-16" on="0"/>
        <pt x="288" y="-20" on="1"/>
        <pt x="291" y="-9" on="1"/>
        <pt x="288" y="-1" on="1"/>
        <pt x="269" y="-4" on="0"/>
        <pt x="238" y="-10" on="0"/>
        <pt x="221" y="-10" on="1"/>
        <pt x="204" y="-10" on="0"/>
        <pt x="188" y="-6" on="1"/>
        <pt x="187" y="-35" on="1"/>
      </contour>
      <contour>
        <pt x="236" y="48" on="1"/>
        <pt x="305" y="48" on="0"/>
        <pt x="424" y="56" on="0"/>
        <pt x="512" y="100" on="0"/>
        <pt x="563" y="191" on="0"/>
        <pt x="563" y="274" on="1"/>
        <pt x="563" y="315" on="0"/>
        <pt x="552" y="406" on="0"/>
        <pt x="523" y="493" on="0"/>
        <pt x="498" y="529" on="1"/>
        <pt x="475" y="563" on="0"/>
        <pt x="440" y="585" on="1"/>
        <pt x="474" y="562" on="0"/>
        <pt x="496" y="528" on="1"/>
        <pt x="521" y="491" on="0"/>
        <pt x="548" y="405" on="0"/>
        <pt x="559" y="314" on="0"/>
        <pt x="559" y="273" on="1"/>
        <pt x="559" y="218" on="0"/>
        <pt x="539" y="145" on="0"/>
        <pt x="503" y="100" on="0"/>
        <pt x="450" y="76" on="0"/>
        <pt x="385" y="65" on="0"/>
        <pt x="307" y="60" on="0"/>
        <pt x="263" y="57" on="1"/>
        <pt x="298" y="72" on="0"/>
        <pt x="379" y="82" on="0"/>
        <pt x="454" y="98" on="0"/>
        <pt x="514" y="137" on="0"/>
        <pt x="529" y="182" on="1"/>
        <pt x="541" y="186" on="1"/>
        <pt x="545" y="206" on="0"/>
        <pt x="547" y="237" on="0"/>
        <pt x="547" y="257" on="1"/>
        <pt x="547" y="319" on="0"/>
        <pt x="527" y="444" on="0"/>
        <pt x="473" y="545" on="0"/>
        <pt x="377" y="608" on="0"/>
        <pt x="302" y="608" on="1"/>
        <pt x="274" y="608" on="0"/>
        <pt x="219" y="601" on="0"/>
        <pt x="192" y="595" on="1"/>
        <pt x="194" y="594" on="0"/>
        <pt x="194" y="592" on="1"/>
        <pt x="194" y="589" on="0"/>
        <pt x="193" y="589" on="1"/>
        <pt x="246" y="600" on="0"/>
        <pt x="295" y="600" on="1"/>
        <pt x="356" y="600" on="0"/>
        <pt x="446" y="557" on="0"/>
        <pt x="505" y="482" on="0"/>
        <pt x="534" y="382" on="0"/>
        <pt x="535" y="325" on="1"/>
        <pt x="527" y="383" on="0"/>
        <pt x="499" y="482" on="0"/>
        <pt x="445" y="554" on="0"/>
        <pt x="359" y="595" on="0"/>
        <pt x="293" y="595" on="1"/>
        <pt x="268" y="595" on="0"/>
        <pt x="218" y="593" on="0"/>
        <pt x="194" y="585" on="1"/>
        <pt x="199" y="523" on="0"/>
        <pt x="207" y="401" on="0"/>
        <pt x="207" y="339" on="1"/>
        <pt x="207" y="257" on="0"/>
        <pt x="194" y="98" on="0"/>
        <pt x="189" y="17" on="1"/>
        <pt x="199" y="27" on="0"/>
        <pt x="225" y="40" on="0"/>
      </contour>
      <contour>
        <pt x="635" y="271" on="1"/>
        <pt x="635" y="320" on="0"/>
        <pt x="622" y="420" on="0"/>
        <pt x="608" y="467" on="1"/>
        <pt x="622" y="416" on="0"/>
        <pt x="633" y="314" on="0"/>
        <pt x="633" y="262" on="1"/>
        <pt x="633" y="236" on="0"/>
        <pt x="630" y="209" on="1"/>
        <pt x="629" y="206" on="0"/>
        <pt x="629" y="203" on="1"/>
        <pt x="635" y="236" on="0"/>
      </contour>
      <contour>
        <pt x="538" y="267" on="1"/>
        <pt x="538" y="252" on="0"/>
        <pt x="536" y="238" on="1"/>
        <pt x="537" y="244" on="0"/>
        <pt x="537" y="250" on="1"/>
        <pt x="537" y="283" on="1"/>
        <pt x="537" y="282" on="0"/>
        <pt x="537" y="281" on="1"/>
        <pt x="538" y="275" on="0"/>
      </contour>
      <contour>
        <pt x="537" y="283" on="1"/>
        <pt x="537" y="289" on="0"/>
        <pt x="536" y="294" on="1"/>
        <pt x="537" y="288" on="0"/>
      </contour>
      <contour>
        <pt x="619" y="157" on="1"/>
        <pt x="621" y="163" on="0"/>
        <pt x="622" y="169" on="1"/>
        <pt x="621" y="163" on="0"/>
      </contour>
    </TTGlyph>
    <TTGlyph name="E" xMin="61" yMin="-16" xMax="555" yMax="735">
      <contour>
        <pt x="452" y="325" on="1"/>
        <pt x="413" y="339" on="0"/>
        <pt x="371" y="343" on="1"/>
        <pt x="331" y="348" on="0"/>
        <pt x="289" y="352" on="1"/>
        <pt x="327" y="346" on="0"/>
        <pt x="367" y="341" on="1"/>
        <pt x="409" y="336" on="0"/>
        <pt x="446" y="319" on="1"/>
        <pt x="442" y="315" on="0"/>
        <pt x="434" y="309" on="0"/>
        <pt x="430" y="309" on="1"/>
        <pt x="416" y="309" on="0"/>
        <pt x="390" y="316" on="0"/>
        <pt x="375" y="316" on="1"/>
        <pt x="375" y="328" on="1"/>
        <pt x="370" y="327" on="0"/>
        <pt x="361" y="327" on="1"/>
        <pt x="336" y="327" on="0"/>
        <pt x="288" y="341" on="0"/>
        <pt x="263" y="341" on="1"/>
        <pt x="250" y="341" on="0"/>
        <pt x="238" y="338" on="1"/>
        <pt x="238" y="334" on="1"/>
        <pt x="270" y="332" on="0"/>
        <pt x="337" y="323" on="0"/>
        <pt x="372" y="316" on="1"/>
        <pt x="340" y="321" on="0"/>
        <pt x="267" y="329" on="0"/>
        <pt x="235" y="329" on="1"/>
        <pt x="222" y="329" on="0"/>
        <pt x="199" y="328" on="0"/>
        <pt x="188" y="327" on="1"/>
        <pt x="188" y="306" on="0"/>
        <pt x="190" y="250" on="0"/>
        <pt x="196" y="197" on="0"/>
        <pt x="204" y="157" on="0"/>
        <pt x="210" y="151" on="1"/>
        <pt x="219" y="133" on="1"/>
        <pt x="231" y="96" on="0"/>
        <pt x="299" y="96" on="1"/>
        <pt x="314" y="96" on="0"/>
        <pt x="356" y="104" on="0"/>
        <pt x="399" y="115" on="0"/>
        <pt x="438" y="123" on="0"/>
        <pt x="452" y="123" on="1"/>
        <pt x="466" y="123" on="0"/>
        <pt x="470" y="115" on="0"/>
        <pt x="470" y="108" on="1"/>
        <pt x="428" y="103" on="0"/>
        <pt x="389" y="93" on="1"/>
        <pt x="355" y="84" on="0"/>
        <pt x="323" y="79" on="1"/>
        <pt x="355" y="84" on="0"/>
        <pt x="388" y="91" on="1"/>
        <pt x="427" y="100" on="0"/>
        <pt x="467" y="105" on="1"/>
        <pt x="465" y="99" on="0"/>
        <pt x="465" y="97" on="1"/>
        <pt x="465" y="91" on="0"/>
        <pt x="470" y="87" on="1"/>
        <pt x="484" y="89" on="1"/>
        <pt x="490" y="90" on="0"/>
        <pt x="502" y="91" on="0"/>
        <pt x="507" y="93" on="1"/>
        <pt x="525" y="88" on="0"/>
        <pt x="540" y="76" on="0"/>
        <pt x="540" y="69" on="1"/>
        <pt x="540" y="56" on="0"/>
        <pt x="515" y="46" on="0"/>
        <pt x="504" y="35" on="1"/>
        <pt x="500" y="35" on="1"/>
        <pt x="471" y="35" on="0"/>
        <pt x="417" y="26" on="0"/>
        <pt x="364" y="16" on="0"/>
        <pt x="309" y="7" on="0"/>
        <pt x="280" y="7" on="1"/>
        <pt x="266" y="7" on="1"/>
        <pt x="260" y="7" on="1"/>
        <pt x="279" y="5" on="0"/>
        <pt x="301" y="5" on="1"/>
        <pt x="329" y="5" on="0"/>
        <pt x="378" y="11" on="0"/>
        <pt x="424" y="19" on="0"/>
        <pt x="467" y="25" on="0"/>
        <pt x="489" y="25" on="1"/>
        <pt x="473" y="17" on="0"/>
        <pt x="427" y="2" on="0"/>
        <pt x="371" y="-9" on="0"/>
        <pt x="311" y="-16" on="0"/>
        <pt x="282" y="-16" on="1"/>
        <pt x="262" y="-16" on="0"/>
        <pt x="224" y="-12" on="0"/>
        <pt x="202" y="-1" on="1"/>
        <pt x="201" y="10" on="1"/>
        <pt x="187" y="15" on="0"/>
        <pt x="156" y="42" on="0"/>
        <pt x="130" y="72" on="0"/>
        <pt x="112" y="98" on="0"/>
        <pt x="112" y="102" on="1"/>
        <pt x="109" y="111" on="1"/>
        <pt x="100" y="130" on="0"/>
        <pt x="89" y="176" on="0"/>
        <pt x="83" y="223" on="0"/>
        <pt x="79" y="269" on="0"/>
        <pt x="78" y="289" on="1"/>
        <pt x="76" y="322" on="0"/>
        <pt x="74" y="389" on="0"/>
        <pt x="74" y="423" on="1"/>
        <pt x="74" y="457" on="0"/>
        <pt x="75" y="526" on="0"/>
        <pt x="75" y="561" on="1"/>
        <pt x="72" y="561" on="1"/>
        <pt x="67" y="523" on="0"/>
        <pt x="66" y="453" on="0"/>
        <pt x="66" y="418" on="1"/>
        <pt x="66" y="379" on="1"/>
        <pt x="66" y="309" on="0"/>
        <pt x="81" y="157" on="0"/>
        <pt x="112" y="85" on="1"/>
        <pt x="89" y="124" on="0"/>
        <pt x="77" y="201" on="0"/>
        <pt x="72" y="234" on="1"/>
        <pt x="66" y="277" on="0"/>
        <pt x="61" y="357" on="0"/>
        <pt x="61" y="399" on="1"/>
        <pt x="61" y="420" on="1"/>
        <pt x="61" y="478" on="0"/>
        <pt x="67" y="598" on="0"/>
        <pt x="82" y="665" on="1"/>
        <pt x="76" y="665" on="0"/>
        <pt x="76" y="671" on="1"/>
        <pt x="76" y="677" on="0"/>
        <pt x="89" y="699" on="0"/>
        <pt x="109" y="720" on="0"/>
        <pt x="134" y="735" on="0"/>
        <pt x="146" y="735" on="1"/>
        <pt x="384" y="735" on="1"/>
        <pt x="421" y="728" on="0"/>
        <pt x="492" y="719" on="0"/>
        <pt x="531" y="717" on="1"/>
        <pt x="530" y="694" on="1"/>
        <pt x="530" y="688" on="0"/>
        <pt x="519" y="681" on="0"/>
        <pt x="500" y="681" on="1"/>
        <pt x="494" y="681" on="0"/>
        <pt x="477" y="682" on="0"/>
        <pt x="467" y="683" on="1"/>
        <pt x="467" y="674" on="1"/>
        <pt x="508" y="665" on="0"/>
        <pt x="555" y="639" on="0"/>
        <pt x="555" y="627" on="1"/>
        <pt x="555" y="613" on="0"/>
        <pt x="502" y="607" on="0"/>
        <pt x="458" y="607" on="1"/>
        <pt x="402" y="607" on="0"/>
        <pt x="275" y="608" on="0"/>
        <pt x="216" y="613" on="1"/>
        <pt x="199" y="613" on="1"/>
        <pt x="194" y="575" on="0"/>
        <pt x="190" y="495" on="0"/>
        <pt x="189" y="453" on="1"/>
        <pt x="205" y="453" on="0"/>
        <pt x="236" y="456" on="0"/>
        <pt x="253" y="456" on="1"/>
        <pt x="267" y="456" on="0"/>
        <pt x="304" y="451" on="0"/>
        <pt x="345" y="443" on="0"/>
        <pt x="386" y="432" on="0"/>
        <pt x="403" y="426" on="1"/>
        <pt x="406" y="425" on="0"/>
        <pt x="410" y="425" on="1"/>
        <pt x="427" y="425" on="1"/>
        <pt x="440" y="425" on="0"/>
        <pt x="449" y="417" on="0"/>
        <pt x="449" y="405" on="1"/>
        <pt x="432" y="405" on="0"/>
        <pt x="402" y="409" on="0"/>
        <pt x="388" y="411" on="1"/>
        <pt x="402" y="406" on="0"/>
        <pt x="432" y="401" on="0"/>
        <pt x="449" y="399" on="1"/>
        <pt x="447" y="394" on="0"/>
        <pt x="446" y="386" on="0"/>
        <pt x="446" y="383" on="1"/>
        <pt x="456" y="381" on="0"/>
        <pt x="463" y="366" on="0"/>
        <pt x="463" y="357" on="1"/>
        <pt x="463" y="344" on="0"/>
        <pt x="452" y="329" on="0"/>
      </contour>
      <contour>
        <pt x="100" y="212" on="1"/>
        <pt x="104" y="188" on="0"/>
        <pt x="115" y="133" on="0"/>
        <pt x="138" y="80" on="0"/>
        <pt x="158" y="57" on="1"/>
        <pt x="174" y="38" on="0"/>
        <pt x="200" y="25" on="1"/>
        <pt x="170" y="41" on="0"/>
        <pt x="151" y="69" on="1"/>
        <pt x="129" y="103" on="0"/>
        <pt x="104" y="187" on="0"/>
        <pt x="98" y="234" on="1"/>
        <pt x="93" y="281" on="0"/>
        <pt x="90" y="324" on="1"/>
        <pt x="91" y="297" on="0"/>
        <pt x="93" y="269" on="1"/>
        <pt x="95" y="241" on="0"/>
      </contour>
      <contour>
        <pt x="345" y="416" on="1"/>
        <pt x="362" y="413" on="0"/>
        <pt x="381" y="411" on="1"/>
        <pt x="363" y="416" on="0"/>
        <pt x="331" y="421" on="0"/>
        <pt x="315" y="425" on="1"/>
        <pt x="328" y="419" on="0"/>
      </contour>
      <contour>
        <pt x="181" y="6" on="1"/>
        <pt x="168" y="12" on="0"/>
        <pt x="158" y="20" on="1"/>
        <pt x="151" y="26" on="0"/>
        <pt x="145" y="32" on="1"/>
        <pt x="151" y="26" on="0"/>
        <pt x="159" y="21" on="1"/>
        <pt x="170" y="13" on="0"/>
      </contour>
      <contour>
        <pt x="211" y="20" on="1"/>
        <pt x="202" y="24" on="1"/>
      </contour>
    </TTGlyph>
    <TTGlyph name="Eacute" xMin="61" yMin="-16" xMax="555" yMax="1004">
      <component glyphName="E" x="0" y="0" flags="0x204"/>
      <component glyphName="acute.cap" x="120" y="30" flags="0x4"/>
    </TTGlyph>
    <TTGlyph name="Ecircumflex" xMin="61" yMin="-16" xMax="555" yMax="1065">
      <component glyphName="E" x="0" y="0" flags="0x204"/>
      <component glyphName="circumflex.cap" x="135" y="40" flags="0x4"/>
    </TTGlyph>
    <TTGlyph name="Edieresis" xMin="61" yMin="-16" xMax="555" yMax="941">
      <component glyphName="E" x="0" y="0" flags="0x204"/>
      <component glyphName="dieresis.cap" x="66" y="0" flags="0x4"/>
    </TTGlyph>
    <TTGlyph name="Egrave" xMin="61" yMin="-16" xMax="555" yMax="1034">
      <component glyphName="E" x="0" y="0" flags="0x204"/>
      <component glyphName="grave.cap" x="151" y="20" flags="0x4"/>
    </TTGlyph>
    <TTGlyph name="Eth" xMin="10" yMin="-83" xMax="666" yMax="724">
      <contour>
        <pt x="176" y="-37" on="1"/>
        <pt x="168" y="-32" on="0"/>
        <pt x="164" y="4" on="0"/>
        <pt x="164" y="30" on="1"/>
        <pt x="164" y="54" on="1"/>
        <pt x="155" y="54" on="1"/>
        <pt x="154" y="48" on="0"/>
        <pt x="147" y="4" on="0"/>
        <pt x="136" y="-45" on="0"/>
        <pt x="121" y="-83" on="0"/>
        <pt x="112" y="-83" on="1"/>
        <pt x="104" y="-83" on="0"/>
        <pt x="94" y="-41" on="0"/>
        <pt x="90" y="14" on="0"/>
        <pt x="89" y="69" on="0"/>
        <pt x="89" y="82" on="1"/>
        <pt x="89" y="124" on="0"/>
        <pt x="91" y="206" on="0"/>
        <pt x="92" y="248" on="1"/>
        <pt x="53" y="248" on="1"/>
        <pt x="45" y="253" on="0"/>
        <pt x="32" y="256" on="0"/>
        <pt x="22" y="260" on="0"/>
        <pt x="17" y="270" on="0"/>
        <pt x="17" y="283" on="1"/>
        <pt x="17" y="293" on="0"/>
        <pt x="26" y="295" on="1"/>
        <pt x="32" y="305" on="1"/>
        <pt x="22" y="311" on="0"/>
        <pt x="10" y="332" on="0"/>
        <pt x="10" y="343" on="1"/>
        <pt x="10" y="362" on="0"/>
        <pt x="41" y="372" on="0"/>
        <pt x="55" y="372" on="1"/>
        <pt x="93" y="372" on="1"/>
        <pt x="91" y="435" on="0"/>
        <pt x="71" y="562" on="0"/>
        <pt x="71" y="623" on="1"/>
        <pt x="85" y="641" on="0"/>
        <pt x="110" y="679" on="0"/>
        <pt x="122" y="699" on="1"/>
        <pt x="158" y="708" on="0"/>
        <pt x="236" y="724" on="0"/>
        <pt x="274" y="724" on="1"/>
        <pt x="379" y="724" on="0"/>
        <pt x="528" y="659" on="0"/>
        <pt x="622" y="540" on="0"/>
        <pt x="666" y="375" on="0"/>
        <pt x="666" y="276" on="1"/>
        <pt x="666" y="116" on="0"/>
        <pt x="490" y="-39" on="0"/>
        <pt x="332" y="-39" on="1"/>
        <pt x="326" y="-39" on="0"/>
        <pt x="300" y="-36" on="0"/>
        <pt x="295" y="-30" on="1"/>
        <pt x="323" y="-26" on="0"/>
        <pt x="396" y="-15" on="0"/>
        <pt x="470" y="1" on="0"/>
        <pt x="537" y="26" on="0"/>
        <pt x="559" y="45" on="1"/>
        <pt x="529" y="25" on="0"/>
        <pt x="466" y="2" on="0"/>
        <pt x="401" y="-10" on="0"/>
        <pt x="333" y="-16" on="0"/>
        <pt x="299" y="-20" on="1"/>
        <pt x="302" y="-9" on="1"/>
        <pt x="299" y="-1" on="1"/>
        <pt x="280" y="-4" on="0"/>
        <pt x="249" y="-10" on="0"/>
        <pt x="232" y="-10" on="1"/>
        <pt x="215" y="-10" on="0"/>
        <pt x="199" y="-6" on="1"/>
        <pt x="198" y="-35" on="1"/>
      </contour>
      <contour>
        <pt x="247" y="48" on="1"/>
        <pt x="316" y="48" on="0"/>
        <pt x="435" y="56" on="0"/>
        <pt x="523" y="100" on="0"/>
        <pt x="574" y="191" on="0"/>
        <pt x="574" y="274" on="1"/>
        <pt x="574" y="315" on="0"/>
        <pt x="563" y="406" on="0"/>
        <pt x="534" y="493" on="0"/>
        <pt x="509" y="529" on="1"/>
        <pt x="486" y="563" on="0"/>
        <pt x="451" y="585" on="1"/>
        <pt x="485" y="562" on="0"/>
        <pt x="507" y="528" on="1"/>
        <pt x="532" y="491" on="0"/>
        <pt x="559" y="405" on="0"/>
        <pt x="570" y="314" on="0"/>
        <pt x="570" y="273" on="1"/>
        <pt x="570" y="218" on="0"/>
        <pt x="550" y="145" on="0"/>
        <pt x="514" y="100" on="0"/>
        <pt x="461" y="76" on="0"/>
        <pt x="396" y="65" on="0"/>
        <pt x="318" y="60" on="0"/>
        <pt x="274" y="57" on="1"/>
        <pt x="309" y="72" on="0"/>
        <pt x="390" y="82" on="0"/>
        <pt x="465" y="98" on="0"/>
        <pt x="525" y="137" on="0"/>
        <pt x="540" y="182" on="1"/>
        <pt x="552" y="186" on="1"/>
        <pt x="556" y="206" on="0"/>
        <pt x="558" y="237" on="0"/>
        <pt x="558" y="257" on="1"/>
        <pt x="558" y="319" on="0"/>
        <pt x="538" y="444" on="0"/>
        <pt x="484" y="545" on="0"/>
        <pt x="388" y="608" on="0"/>
        <pt x="313" y="608" on="1"/>
        <pt x="285" y="608" on="0"/>
        <pt x="230" y="601" on="0"/>
        <pt x="203" y="595" on="1"/>
        <pt x="205" y="594" on="0"/>
        <pt x="205" y="592" on="1"/>
        <pt x="205" y="589" on="0"/>
        <pt x="204" y="589" on="1"/>
        <pt x="257" y="600" on="0"/>
        <pt x="306" y="600" on="1"/>
        <pt x="367" y="600" on="0"/>
        <pt x="457" y="557" on="0"/>
        <pt x="516" y="482" on="0"/>
        <pt x="545" y="382" on="0"/>
        <pt x="546" y="325" on="1"/>
        <pt x="538" y="383" on="0"/>
        <pt x="510" y="482" on="0"/>
        <pt x="456" y="554" on="0"/>
        <pt x="370" y="595" on="0"/>
        <pt x="304" y="595" on="1"/>
        <pt x="279" y="595" on="0"/>
        <pt x="229" y="593" on="0"/>
        <pt x="205" y="585" on="1"/>
        <pt x="210" y="532" on="0"/>
        <pt x="216" y="428" on="0"/>
        <pt x="218" y="375" on="1"/>
        <pt x="238" y="375" on="1"/>
        <pt x="271" y="375" on="0"/>
        <pt x="341" y="356" on="0"/>
        <pt x="368" y="356" on="1"/>
        <pt x="373" y="356" on="0"/>
        <pt x="386" y="358" on="0"/>
        <pt x="393" y="358" on="1"/>
        <pt x="400" y="358" on="0"/>
        <pt x="410" y="351" on="0"/>
        <pt x="410" y="338" on="1"/>
        <pt x="366" y="338" on="1"/>
        <pt x="338" y="338" on="0"/>
        <pt x="278" y="340" on="0"/>
        <pt x="260" y="344" on="1"/>
        <pt x="273" y="339" on="0"/>
        <pt x="313" y="335" on="0"/>
        <pt x="356" y="334" on="0"/>
        <pt x="396" y="334" on="0"/>
        <pt x="410" y="332" on="1"/>
        <pt x="409" y="316" on="1"/>
        <pt x="418" y="314" on="1"/>
        <pt x="426" y="304" on="0"/>
        <pt x="426" y="292" on="1"/>
        <pt x="426" y="276" on="0"/>
        <pt x="416" y="261" on="1"/>
        <pt x="409" y="265" on="0"/>
        <pt x="377" y="271" on="0"/>
        <pt x="340" y="275" on="0"/>
        <pt x="306" y="277" on="0"/>
        <pt x="297" y="277" on="1"/>
        <pt x="228" y="276" on="1"/>
        <pt x="249" y="274" on="0"/>
        <pt x="297" y="272" on="0"/>
        <pt x="346" y="269" on="0"/>
        <pt x="393" y="261" on="0"/>
        <pt x="412" y="254" on="1"/>
        <pt x="408" y="250" on="0"/>
        <pt x="400" y="245" on="0"/>
        <pt x="395" y="243" on="1"/>
        <pt x="385" y="245" on="0"/>
        <pt x="375" y="246" on="1"/>
        <pt x="355" y="248" on="1"/>
        <pt x="348" y="259" on="1"/>
        <pt x="328" y="256" on="0"/>
        <pt x="308" y="256" on="1"/>
        <pt x="285" y="256" on="0"/>
        <pt x="262" y="258" on="1"/>
        <pt x="216" y="262" on="1"/>
        <pt x="216" y="253" on="1"/>
        <pt x="244" y="253" on="0"/>
        <pt x="272" y="252" on="1"/>
        <pt x="294" y="251" on="1"/>
        <pt x="284" y="251" on="1"/>
        <pt x="250" y="251" on="1"/>
        <pt x="233" y="251" on="0"/>
        <pt x="216" y="250" on="1"/>
        <pt x="213" y="191" on="0"/>
        <pt x="203" y="76" on="0"/>
        <pt x="200" y="17" on="1"/>
        <pt x="210" y="27" on="0"/>
        <pt x="236" y="40" on="0"/>
      </contour>
      <contour>
        <pt x="646" y="271" on="1"/>
        <pt x="646" y="320" on="0"/>
        <pt x="633" y="420" on="0"/>
        <pt x="619" y="467" on="1"/>
        <pt x="633" y="416" on="0"/>
        <pt x="644" y="314" on="0"/>
        <pt x="644" y="262" on="1"/>
        <pt x="644" y="236" on="0"/>
        <pt x="641" y="209" on="1"/>
        <pt x="640" y="206" on="0"/>
        <pt x="640" y="203" on="1"/>
        <pt x="646" y="236" on="0"/>
      </contour>
      <contour>
        <pt x="549" y="267" on="1"/>
        <pt x="549" y="249" on="0"/>
        <pt x="546" y="232" on="1"/>
        <pt x="548" y="242" on="0"/>
        <pt x="548" y="251" on="1"/>
        <pt x="548" y="279" on="1"/>
        <pt x="548" y="277" on="0"/>
        <pt x="548" y="276" on="1"/>
        <pt x="549" y="272" on="0"/>
      </contour>
      <contour>
        <pt x="327" y="249" on="1"/>
        <pt x="317" y="250" on="0"/>
        <pt x="307" y="250" on="1"/>
        <pt x="317" y="249" on="0"/>
      </contour>
      <contour>
        <pt x="304" y="250" on="1"/>
        <pt x="299" y="251" on="0"/>
        <pt x="294" y="251" on="1"/>
        <pt x="299" y="251" on="0"/>
      </contour>
      <contour>
        <pt x="630" y="157" on="1"/>
        <pt x="632" y="163" on="0"/>
        <pt x="633" y="169" on="1"/>
        <pt x="632" y="163" on="0"/>
      </contour>
    </TTGlyph>
    <TTGlyph name="Euro" xMin="20" yMin="20" xMax="618" yMax="675">
      <contour>
        <pt x="192" y="218" on="1"/>
        <pt x="197" y="199" on="0"/>
        <pt x="204" y="182" on="1"/>
        <pt x="196" y="199" on="0"/>
        <pt x="188" y="218" on="1"/>
        <pt x="165" y="220" on="0"/>
        <pt x="118" y="227" on="0"/>
        <pt x="95" y="227" on="1"/>
        <pt x="91" y="227" on="0"/>
        <pt x="77" y="225" on="0"/>
        <pt x="69" y="225" on="1"/>
        <pt x="60" y="225" on="0"/>
        <pt x="46" y="231" on="0"/>
        <pt x="46" y="239" on="1"/>
        <pt x="64" y="244" on="0"/>
        <pt x="79" y="244" on="1"/>
        <pt x="100" y="244" on="0"/>
        <pt x="121" y="243" on="1"/>
        <pt x="141" y="242" on="0"/>
        <pt x="161" y="239" on="1"/>
        <pt x="133" y="244" on="0"/>
        <pt x="105" y="245" on="1"/>
        <pt x="75" y="246" on="0"/>
        <pt x="46" y="249" on="1"/>
        <pt x="45" y="265" on="1"/>
        <pt x="33" y="264" on="1"/>
        <pt x="20" y="274" on="0"/>
        <pt x="20" y="289" on="1"/>
        <pt x="20" y="297" on="0"/>
        <pt x="27" y="312" on="0"/>
        <pt x="32" y="319" on="1"/>
        <pt x="66" y="313" on="0"/>
        <pt x="134" y="310" on="0"/>
        <pt x="168" y="310" on="1"/>
        <pt x="136" y="314" on="0"/>
        <pt x="70" y="319" on="0"/>
        <pt x="38" y="326" on="1"/>
        <pt x="42" y="331" on="0"/>
        <pt x="54" y="339" on="0"/>
        <pt x="61" y="339" on="1"/>
        <pt x="127" y="336" on="1"/>
        <pt x="127" y="325" on="1"/>
        <pt x="137" y="327" on="0"/>
        <pt x="156" y="328" on="0"/>
        <pt x="166" y="328" on="1"/>
        <pt x="166" y="335" on="1"/>
        <pt x="166" y="346" on="0"/>
        <pt x="158" y="369" on="0"/>
        <pt x="146" y="369" on="1"/>
        <pt x="109" y="368" on="1"/>
        <pt x="101" y="372" on="0"/>
        <pt x="82" y="371" on="0"/>
        <pt x="65" y="373" on="0"/>
        <pt x="54" y="381" on="0"/>
        <pt x="54" y="393" on="1"/>
        <pt x="54" y="400" on="0"/>
        <pt x="63" y="406" on="0"/>
        <pt x="69" y="406" on="1"/>
        <pt x="78" y="405" on="1"/>
        <pt x="78" y="416" on="1"/>
        <pt x="67" y="421" on="0"/>
        <pt x="43" y="440" on="0"/>
        <pt x="43" y="454" on="1"/>
        <pt x="43" y="464" on="0"/>
        <pt x="57" y="475" on="0"/>
        <pt x="77" y="481" on="0"/>
        <pt x="99" y="482" on="0"/>
        <pt x="106" y="482" on="1"/>
        <pt x="126" y="482" on="0"/>
        <pt x="167" y="479" on="0"/>
        <pt x="187" y="479" on="1"/>
        <pt x="205" y="520" on="0"/>
        <pt x="250" y="592" on="0"/>
        <pt x="308" y="645" on="0"/>
        <pt x="384" y="675" on="0"/>
        <pt x="433" y="675" on="1"/>
        <pt x="461" y="675" on="0"/>
        <pt x="516" y="663" on="0"/>
        <pt x="566" y="638" on="0"/>
        <pt x="606" y="599" on="0"/>
        <pt x="618" y="573" on="1"/>
        <pt x="616" y="573" on="1"/>
        <pt x="616" y="574" on="0"/>
        <pt x="614" y="574" on="1"/>
        <pt x="609" y="574" on="0"/>
        <pt x="597" y="564" on="0"/>
        <pt x="594" y="562" on="1"/>
        <pt x="590" y="563" on="0"/>
        <pt x="578" y="573" on="0"/>
        <pt x="564" y="587" on="0"/>
        <pt x="552" y="600" on="0"/>
        <pt x="548" y="603" on="1"/>
        <pt x="542" y="594" on="1"/>
        <pt x="563" y="576" on="0"/>
        <pt x="563" y="550" on="1"/>
        <pt x="563" y="542" on="0"/>
        <pt x="554" y="522" on="0"/>
        <pt x="544" y="522" on="1"/>
        <pt x="537" y="531" on="0"/>
        <pt x="510" y="546" on="0"/>
        <pt x="480" y="557" on="0"/>
        <pt x="452" y="562" on="0"/>
        <pt x="443" y="562" on="1"/>
        <pt x="419" y="562" on="0"/>
        <pt x="384" y="551" on="0"/>
        <pt x="357" y="529" on="0"/>
        <pt x="335" y="498" on="0"/>
        <pt x="323" y="477" on="1"/>
        <pt x="365" y="469" on="0"/>
        <pt x="449" y="456" on="0"/>
        <pt x="491" y="456" on="1"/>
        <pt x="496" y="456" on="0"/>
        <pt x="509" y="457" on="0"/>
        <pt x="516" y="457" on="1"/>
        <pt x="527" y="457" on="0"/>
        <pt x="542" y="450" on="0"/>
        <pt x="542" y="437" on="1"/>
        <pt x="492" y="439" on="0"/>
        <pt x="393" y="446" on="0"/>
        <pt x="344" y="456" on="1"/>
        <pt x="392" y="444" on="0"/>
        <pt x="491" y="436" on="0"/>
        <pt x="541" y="431" on="1"/>
        <pt x="540" y="415" on="1"/>
        <pt x="566" y="401" on="1"/>
        <pt x="566" y="392" on="0"/>
        <pt x="556" y="376" on="0"/>
        <pt x="550" y="370" on="1"/>
        <pt x="531" y="376" on="0"/>
        <pt x="469" y="384" on="0"/>
        <pt x="401" y="388" on="0"/>
        <pt x="336" y="390" on="0"/>
        <pt x="314" y="391" on="1"/>
        <pt x="371" y="385" on="0"/>
        <pt x="486" y="378" on="0"/>
        <pt x="543" y="363" on="1"/>
        <pt x="537" y="358" on="0"/>
        <pt x="524" y="352" on="0"/>
        <pt x="516" y="352" on="1"/>
        <pt x="497" y="352" on="0"/>
        <pt x="476" y="356" on="0"/>
        <pt x="457" y="357" on="1"/>
        <pt x="443" y="370" on="1"/>
        <pt x="436" y="369" on="0"/>
        <pt x="423" y="368" on="0"/>
        <pt x="416" y="368" on="1"/>
        <pt x="384" y="368" on="0"/>
        <pt x="322" y="378" on="0"/>
        <pt x="290" y="379" on="1"/>
        <pt x="290" y="377" on="1"/>
        <pt x="290" y="372" on="0"/>
        <pt x="324" y="368" on="0"/>
        <pt x="371" y="365" on="0"/>
        <pt x="422" y="363" on="0"/>
        <pt x="440" y="360" on="1"/>
        <pt x="290" y="366" on="1"/>
        <pt x="289" y="323" on="1"/>
        <pt x="312" y="323" on="0"/>
        <pt x="374" y="320" on="0"/>
        <pt x="430" y="315" on="0"/>
        <pt x="469" y="308" on="0"/>
        <pt x="469" y="302" on="1"/>
        <pt x="469" y="293" on="0"/>
        <pt x="465" y="278" on="0"/>
        <pt x="456" y="278" on="1"/>
        <pt x="448" y="279" on="1"/>
        <pt x="447" y="268" on="1"/>
        <pt x="459" y="263" on="0"/>
        <pt x="477" y="241" on="0"/>
        <pt x="477" y="227" on="1"/>
        <pt x="477" y="220" on="0"/>
        <pt x="465" y="211" on="0"/>
        <pt x="447" y="205" on="0"/>
        <pt x="428" y="203" on="0"/>
        <pt x="422" y="203" on="1"/>
        <pt x="404" y="203" on="0"/>
        <pt x="366" y="208" on="0"/>
        <pt x="348" y="208" on="1"/>
        <pt x="322" y="208" on="1"/>
        <pt x="331" y="191" on="0"/>
        <pt x="359" y="161" on="0"/>
        <pt x="392" y="137" on="0"/>
        <pt x="429" y="123" on="0"/>
        <pt x="449" y="123" on="1"/>
        <pt x="469" y="123" on="0"/>
        <pt x="507" y="133" on="0"/>
        <pt x="524" y="141" on="1"/>
        <pt x="531" y="137" on="1"/>
        <pt x="526" y="128" on="0"/>
        <pt x="515" y="114" on="0"/>
        <pt x="504" y="112" on="1"/>
        <pt x="501" y="108" on="1"/>
        <pt x="518" y="111" on="1"/>
        <pt x="513" y="98" on="1"/>
        <pt x="533" y="119" on="1"/>
        <pt x="525" y="117" on="1"/>
        <pt x="535" y="133" on="1"/>
        <pt x="547" y="125" on="1"/>
        <pt x="551" y="126" on="0"/>
        <pt x="558" y="144" on="0"/>
        <pt x="565" y="164" on="0"/>
        <pt x="575" y="180" on="0"/>
        <pt x="584" y="180" on="1"/>
        <pt x="598" y="172" on="0"/>
        <pt x="610" y="159" on="0"/>
        <pt x="610" y="144" on="1"/>
        <pt x="610" y="133" on="0"/>
        <pt x="602" y="116" on="0"/>
        <pt x="592" y="100" on="0"/>
        <pt x="584" y="80" on="0"/>
        <pt x="584" y="65" on="1"/>
        <pt x="552" y="57" on="0"/>
        <pt x="487" y="43" on="0"/>
        <pt x="454" y="43" on="1"/>
        <pt x="439" y="43" on="0"/>
        <pt x="410" y="44" on="0"/>
        <pt x="396" y="47" on="1"/>
        <pt x="427" y="40" on="0"/>
        <pt x="464" y="40" on="1"/>
        <pt x="496" y="40" on="0"/>
        <pt x="559" y="51" on="0"/>
        <pt x="591" y="58" on="1"/>
        <pt x="591" y="87" on="1"/>
        <pt x="607" y="109" on="1"/>
        <pt x="606" y="104" on="0"/>
        <pt x="604" y="96" on="0"/>
        <pt x="604" y="91" on="1"/>
        <pt x="604" y="87" on="0"/>
        <pt x="605" y="85" on="1"/>
        <pt x="591" y="49" on="1"/>
        <pt x="530" y="20" on="0"/>
        <pt x="463" y="20" on="1"/>
        <pt x="401" y="20" on="0"/>
        <pt x="347" y="42" on="1"/>
        <pt x="341" y="57" on="1"/>
        <pt x="297" y="72" on="0"/>
        <pt x="244" y="125" on="0"/>
        <pt x="214" y="176" on="0"/>
        <pt x="199" y="215" on="0"/>
      </contour>
      <contour>
        <pt x="214" y="216" on="1"/>
        <pt x="233" y="171" on="0"/>
        <pt x="263" y="132" on="1"/>
        <pt x="292" y="95" on="0"/>
        <pt x="335" y="72" on="1"/>
        <pt x="294" y="97" on="0"/>
        <pt x="267" y="136" on="1"/>
        <pt x="239" y="176" on="0"/>
      </contour>
      <contour>
        <pt x="289" y="319" on="1"/>
        <pt x="290" y="311" on="1"/>
        <pt x="348" y="308" on="1"/>
        <pt x="348" y="314" on="1"/>
      </contour>
      <contour>
        <pt x="224" y="540" on="1"/>
        <pt x="192" y="479" on="1"/>
        <pt x="195" y="479" on="0"/>
        <pt x="207" y="496" on="0"/>
        <pt x="219" y="517" on="0"/>
        <pt x="228" y="536" on="0"/>
        <pt x="228" y="538" on="1"/>
      </contour>
      <contour>
        <pt x="171" y="358" on="1"/>
        <pt x="171" y="352" on="0"/>
        <pt x="175" y="329" on="0"/>
        <pt x="179" y="327" on="1"/>
        <pt x="179" y="334" on="0"/>
        <pt x="175" y="356" on="0"/>
      </contour>
      <contour>
        <pt x="324" y="168" on="1"/>
        <pt x="311" y="185" on="0"/>
        <pt x="300" y="204" on="1"/>
        <pt x="309" y="184" on="0"/>
        <pt x="323" y="167" on="1"/>
        <pt x="336" y="151" on="0"/>
        <pt x="356" y="140" on="1"/>
        <pt x="337" y="152" on="0"/>
      </contour>
      <contour>
        <pt x="236" y="128" on="1"/>
        <pt x="267" y="87" on="0"/>
        <pt x="309" y="60" on="1"/>
        <pt x="263" y="88" on="0"/>
        <pt x="236" y="128" on="1"/>
        <pt x="233" y="132" on="0"/>
        <pt x="230" y="136" on="1"/>
      </contour>
      <contour>
        <pt x="230" y="136" on="1"/>
        <pt x="216" y="157" on="0"/>
        <pt x="204" y="182" on="1"/>
        <pt x="215" y="158" on="0"/>
      </contour>
    </TTGlyph>
    <TTGlyph name="F" xMin="60" yMin="4" xMax="506" yMax="784">
      <contour>
        <pt x="121" y="753" on="1"/>
        <pt x="144" y="753" on="0"/>
        <pt x="189" y="760" on="0"/>
        <pt x="212" y="760" on="1"/>
        <pt x="237" y="760" on="0"/>
        <pt x="286" y="755" on="0"/>
        <pt x="311" y="753" on="1"/>
        <pt x="282" y="758" on="0"/>
        <pt x="224" y="761" on="0"/>
        <pt x="195" y="761" on="1"/>
        <pt x="177" y="761" on="0"/>
        <pt x="142" y="760" on="0"/>
        <pt x="124" y="759" on="1"/>
        <pt x="132" y="772" on="0"/>
        <pt x="162" y="782" on="0"/>
        <pt x="176" y="782" on="1"/>
        <pt x="181" y="782" on="1"/>
        <pt x="206" y="781" on="1"/>
        <pt x="210" y="771" on="1"/>
        <pt x="218" y="773" on="0"/>
        <pt x="225" y="773" on="1"/>
        <pt x="241" y="773" on="1"/>
        <pt x="265" y="773" on="0"/>
        <pt x="313" y="766" on="0"/>
        <pt x="339" y="766" on="1"/>
        <pt x="351" y="766" on="1"/>
        <pt x="357" y="766" on="0"/>
        <pt x="364" y="768" on="1"/>
        <pt x="366" y="773" on="1"/>
        <pt x="405" y="771" on="0"/>
        <pt x="445" y="771" on="1"/>
        <pt x="460" y="771" on="0"/>
        <pt x="483" y="759" on="0"/>
        <pt x="497" y="759" on="1"/>
        <pt x="497" y="736" on="1"/>
        <pt x="497" y="730" on="0"/>
        <pt x="493" y="721" on="0"/>
        <pt x="488" y="721" on="1"/>
        <pt x="482" y="722" on="1"/>
        <pt x="482" y="713" on="1"/>
        <pt x="492" y="706" on="0"/>
        <pt x="506" y="684" on="0"/>
        <pt x="506" y="672" on="1"/>
        <pt x="506" y="663" on="0"/>
        <pt x="497" y="653" on="0"/>
        <pt x="483" y="647" on="0"/>
        <pt x="467" y="646" on="0"/>
        <pt x="460" y="646" on="1"/>
        <pt x="397" y="646" on="0"/>
        <pt x="263" y="659" on="0"/>
        <pt x="197" y="670" on="1"/>
        <pt x="178" y="665" on="1"/>
        <pt x="179" y="661" on="0"/>
        <pt x="182" y="632" on="0"/>
        <pt x="186" y="591" on="0"/>
        <pt x="191" y="545" on="0"/>
        <pt x="195" y="506" on="0"/>
        <pt x="197" y="479" on="0"/>
        <pt x="197" y="478" on="1"/>
        <pt x="237" y="478" on="1"/>
        <pt x="237" y="468" on="1"/>
        <pt x="255" y="473" on="0"/>
        <pt x="268" y="473" on="1"/>
        <pt x="284" y="473" on="0"/>
        <pt x="314" y="467" on="0"/>
        <pt x="332" y="467" on="1"/>
        <pt x="340" y="467" on="0"/>
        <pt x="355" y="469" on="0"/>
        <pt x="363" y="471" on="1"/>
        <pt x="363" y="478" on="1"/>
        <pt x="348" y="477" on="0"/>
        <pt x="318" y="476" on="0"/>
        <pt x="303" y="476" on="1"/>
        <pt x="293" y="476" on="0"/>
        <pt x="274" y="477" on="0"/>
        <pt x="265" y="478" on="1"/>
        <pt x="307" y="478" on="0"/>
        <pt x="388" y="484" on="0"/>
        <pt x="430" y="484" on="1"/>
        <pt x="447" y="484" on="0"/>
        <pt x="475" y="466" on="0"/>
        <pt x="475" y="447" on="1"/>
        <pt x="475" y="442" on="0"/>
        <pt x="471" y="434" on="0"/>
        <pt x="466" y="434" on="1"/>
        <pt x="460" y="435" on="1"/>
        <pt x="460" y="426" on="1"/>
        <pt x="470" y="418" on="0"/>
        <pt x="482" y="395" on="0"/>
        <pt x="482" y="383" on="1"/>
        <pt x="482" y="373" on="0"/>
        <pt x="463" y="361" on="0"/>
        <pt x="435" y="354" on="0"/>
        <pt x="400" y="352" on="0"/>
        <pt x="385" y="352" on="1"/>
        <pt x="341" y="352" on="0"/>
        <pt x="266" y="367" on="0"/>
        <pt x="228" y="367" on="1"/>
        <pt x="222" y="367" on="0"/>
        <pt x="212" y="365" on="1"/>
        <pt x="215" y="332" on="0"/>
        <pt x="215" y="298" on="1"/>
        <pt x="215" y="252" on="0"/>
        <pt x="209" y="159" on="0"/>
        <pt x="209" y="113" on="1"/>
        <pt x="209" y="106" on="0"/>
        <pt x="211" y="84" on="0"/>
        <pt x="211" y="73" on="1"/>
        <pt x="211" y="59" on="0"/>
        <pt x="204" y="37" on="0"/>
        <pt x="191" y="37" on="1"/>
        <pt x="191" y="303" on="1"/>
        <pt x="188" y="273" on="0"/>
        <pt x="187" y="214" on="0"/>
        <pt x="187" y="185" on="1"/>
        <pt x="187" y="81" on="1"/>
        <pt x="187" y="60" on="0"/>
        <pt x="185" y="37" on="1"/>
        <pt x="170" y="40" on="1"/>
        <pt x="170" y="22" on="1"/>
        <pt x="166" y="15" on="0"/>
        <pt x="153" y="4" on="0"/>
        <pt x="145" y="4" on="1"/>
        <pt x="135" y="4" on="0"/>
        <pt x="123" y="13" on="0"/>
        <pt x="116" y="27" on="0"/>
        <pt x="114" y="44" on="0"/>
        <pt x="114" y="51" on="1"/>
        <pt x="114" y="94" on="0"/>
        <pt x="122" y="182" on="0"/>
        <pt x="122" y="226" on="1"/>
        <pt x="122" y="253" on="0"/>
        <pt x="116" y="307" on="0"/>
        <pt x="112" y="334" on="1"/>
        <pt x="113" y="292" on="0"/>
        <pt x="116" y="211" on="0"/>
        <pt x="116" y="170" on="1"/>
        <pt x="116" y="135" on="0"/>
        <pt x="112" y="68" on="0"/>
        <pt x="106" y="34" on="1"/>
        <pt x="93" y="50" on="0"/>
        <pt x="93" y="68" on="1"/>
        <pt x="93" y="91" on="0"/>
        <pt x="96" y="139" on="0"/>
        <pt x="96" y="162" on="1"/>
        <pt x="109" y="162" on="1"/>
        <pt x="103" y="195" on="0"/>
        <pt x="102" y="228" on="1"/>
        <pt x="100" y="295" on="1"/>
        <pt x="99" y="329" on="0"/>
        <pt x="95" y="396" on="0"/>
        <pt x="87" y="429" on="1"/>
        <pt x="81" y="426" on="1"/>
        <pt x="95" y="308" on="0"/>
        <pt x="96" y="188" on="1"/>
        <pt x="93" y="284" on="0"/>
        <pt x="82" y="378" on="1"/>
        <pt x="71" y="478" on="0"/>
        <pt x="63" y="579" on="1"/>
        <pt x="61" y="584" on="0"/>
        <pt x="60" y="597" on="0"/>
        <pt x="60" y="603" on="1"/>
        <pt x="60" y="622" on="0"/>
        <pt x="63" y="657" on="0"/>
        <pt x="63" y="677" on="1"/>
        <pt x="88" y="679" on="1"/>
        <pt x="99" y="679" on="0"/>
        <pt x="102" y="656" on="0"/>
        <pt x="102" y="649" on="1"/>
        <pt x="115" y="649" on="1"/>
        <pt x="117" y="662" on="0"/>
        <pt x="132" y="693" on="0"/>
        <pt x="146" y="698" on="1"/>
        <pt x="145" y="701" on="1"/>
        <pt x="136" y="698" on="1"/>
        <pt x="126" y="703" on="0"/>
        <pt x="117" y="722" on="0"/>
        <pt x="117" y="733" on="1"/>
        <pt x="117" y="738" on="0"/>
        <pt x="121" y="748" on="0"/>
      </contour>
      <contour>
        <pt x="201" y="455" on="1"/>
        <pt x="218" y="455" on="0"/>
        <pt x="251" y="452" on="0"/>
        <pt x="268" y="452" on="1"/>
        <pt x="277" y="452" on="1"/>
        <pt x="317" y="453" on="1"/>
        <pt x="288" y="457" on="0"/>
        <pt x="230" y="455" on="0"/>
        <pt x="201" y="459" on="1"/>
      </contour>
      <contour>
        <pt x="297" y="778" on="1"/>
        <pt x="264" y="782" on="0"/>
        <pt x="231" y="784" on="1"/>
        <pt x="283" y="782" on="0"/>
        <pt x="336" y="776" on="1"/>
        <pt x="349" y="775" on="0"/>
        <pt x="361" y="774" on="1"/>
        <pt x="328" y="774" on="0"/>
      </contour>
      <contour>
        <pt x="172" y="684" on="1"/>
        <pt x="178" y="686" on="0"/>
        <pt x="209" y="688" on="0"/>
        <pt x="216" y="689" on="1"/>
        <pt x="192" y="689" on="1"/>
        <pt x="176" y="689" on="0"/>
        <pt x="169" y="688" on="1"/>
      </contour>
      <contour>
        <pt x="240" y="386" on="1"/>
        <pt x="251" y="384" on="0"/>
        <pt x="262" y="383" on="1"/>
        <pt x="270" y="382" on="0"/>
        <pt x="278" y="380" on="1"/>
        <pt x="270" y="382" on="0"/>
        <pt x="263" y="384" on="1"/>
        <pt x="254" y="386" on="0"/>
        <pt x="243" y="386" on="1"/>
      </contour>
      <contour>
        <pt x="366" y="774" on="1"/>
        <pt x="361" y="774" on="1"/>
        <pt x="363" y="774" on="0"/>
        <pt x="366" y="773" on="1"/>
      </contour>
      <contour>
        <pt x="283" y="380" on="1"/>
        <pt x="281" y="380" on="0"/>
        <pt x="278" y="380" on="1"/>
        <pt x="281" y="380" on="0"/>
      </contour>
    </TTGlyph>
    <TTGlyph name="G" xMin="40" yMin="-35" xMax="691" yMax="740">
      <contour>
        <pt x="602" y="-35" on="1"/>
        <pt x="594" y="-35" on="0"/>
        <pt x="571" y="-22" on="0"/>
        <pt x="571" y="-12" on="1"/>
        <pt x="571" y="5" on="0"/>
        <pt x="579" y="36" on="0"/>
        <pt x="581" y="52" on="1"/>
        <pt x="577" y="49" on="1"/>
        <pt x="565" y="-8" on="1"/>
        <pt x="553" y="9" on="0"/>
        <pt x="553" y="26" on="1"/>
        <pt x="553" y="30" on="0"/>
        <pt x="555" y="34" on="1"/>
        <pt x="536" y="25" on="0"/>
        <pt x="497" y="13" on="0"/>
        <pt x="476" y="13" on="1"/>
        <pt x="422" y="13" on="0"/>
        <pt x="327" y="41" on="0"/>
        <pt x="279" y="62" on="1"/>
        <pt x="274" y="75" on="1"/>
        <pt x="226" y="95" on="0"/>
        <pt x="145" y="163" on="0"/>
        <pt x="86" y="250" on="0"/>
        <pt x="53" y="350" on="0"/>
        <pt x="53" y="402" on="1"/>
        <pt x="53" y="447" on="0"/>
        <pt x="78" y="533" on="0"/>
        <pt x="103" y="570" on="1"/>
        <pt x="97" y="573" on="1"/>
        <pt x="73" y="536" on="0"/>
        <pt x="44" y="452" on="0"/>
        <pt x="44" y="407" on="1"/>
        <pt x="44" y="363" on="0"/>
        <pt x="68" y="274" on="0"/>
        <pt x="112" y="192" on="0"/>
        <pt x="142" y="157" on="1"/>
        <pt x="172" y="124" on="0"/>
        <pt x="208" y="100" on="1"/>
        <pt x="173" y="122" on="0"/>
        <pt x="142" y="154" on="1"/>
        <pt x="111" y="188" on="0"/>
        <pt x="66" y="269" on="0"/>
        <pt x="40" y="358" on="0"/>
        <pt x="40" y="400" on="1"/>
        <pt x="40" y="474" on="0"/>
        <pt x="107" y="599" on="0"/>
        <pt x="215" y="689" on="0"/>
        <pt x="352" y="740" on="0"/>
        <pt x="422" y="740" on="1"/>
        <pt x="467" y="740" on="0"/>
        <pt x="550" y="716" on="0"/>
        <pt x="592" y="702" on="1"/>
        <pt x="587" y="699" on="0"/>
        <pt x="586" y="689" on="0"/>
        <pt x="584" y="680" on="0"/>
        <pt x="579" y="674" on="0"/>
        <pt x="571" y="674" on="1"/>
        <pt x="558" y="674" on="0"/>
        <pt x="533" y="682" on="0"/>
        <pt x="522" y="687" on="1"/>
        <pt x="519" y="674" on="1"/>
        <pt x="526" y="672" on="0"/>
        <pt x="549" y="660" on="0"/>
        <pt x="572" y="645" on="0"/>
        <pt x="589" y="627" on="0"/>
        <pt x="589" y="619" on="1"/>
        <pt x="589" y="607" on="0"/>
        <pt x="570" y="602" on="0"/>
        <pt x="561" y="602" on="1"/>
        <pt x="531" y="602" on="0"/>
        <pt x="471" y="620" on="0"/>
        <pt x="441" y="620" on="1"/>
        <pt x="387" y="620" on="0"/>
        <pt x="287" y="590" on="0"/>
        <pt x="211" y="533" on="0"/>
        <pt x="165" y="450" on="0"/>
        <pt x="165" y="396" on="1"/>
        <pt x="165" y="341" on="0"/>
        <pt x="219" y="244" on="0"/>
        <pt x="304" y="171" on="0"/>
        <pt x="410" y="129" on="0"/>
        <pt x="462" y="129" on="1"/>
        <pt x="466" y="129" on="0"/>
        <pt x="483" y="130" on="0"/>
        <pt x="493" y="130" on="1"/>
        <pt x="507" y="130" on="0"/>
        <pt x="530" y="125" on="0"/>
        <pt x="531" y="117" on="1"/>
        <pt x="517" y="115" on="0"/>
        <pt x="487" y="110" on="0"/>
        <pt x="473" y="110" on="1"/>
        <pt x="432" y="110" on="0"/>
        <pt x="388" y="121" on="1"/>
        <pt x="435" y="107" on="0"/>
        <pt x="482" y="107" on="1"/>
        <pt x="493" y="107" on="0"/>
        <pt x="517" y="109" on="0"/>
        <pt x="528" y="111" on="1"/>
        <pt x="538" y="99" on="1"/>
        <pt x="547" y="101" on="0"/>
        <pt x="559" y="102" on="0"/>
        <pt x="574" y="108" on="1"/>
        <pt x="574" y="140" on="0"/>
        <pt x="580" y="201" on="0"/>
        <pt x="580" y="233" on="1"/>
        <pt x="580" y="247" on="1"/>
        <pt x="580" y="265" on="0"/>
        <pt x="575" y="306" on="0"/>
        <pt x="563" y="318" on="1"/>
        <pt x="557" y="315" on="1"/>
        <pt x="567" y="292" on="0"/>
        <pt x="573" y="240" on="0"/>
        <pt x="573" y="214" on="1"/>
        <pt x="573" y="171" on="0"/>
        <pt x="567" y="131" on="1"/>
        <pt x="570" y="164" on="0"/>
        <pt x="570" y="197" on="1"/>
        <pt x="570" y="204" on="0"/>
        <pt x="567" y="245" on="0"/>
        <pt x="561" y="288" on="0"/>
        <pt x="552" y="322" on="0"/>
        <pt x="547" y="322" on="1"/>
        <pt x="523" y="322" on="0"/>
        <pt x="474" y="330" on="0"/>
        <pt x="450" y="330" on="1"/>
        <pt x="445" y="330" on="1"/>
        <pt x="418" y="329" on="1"/>
        <pt x="418" y="332" on="0"/>
        <pt x="417" y="340" on="0"/>
        <pt x="417" y="344" on="1"/>
        <pt x="417" y="352" on="0"/>
        <pt x="423" y="366" on="0"/>
        <pt x="434" y="366" on="1"/>
        <pt x="446" y="365" on="1"/>
        <pt x="446" y="377" on="1"/>
        <pt x="432" y="381" on="0"/>
        <pt x="403" y="399" on="0"/>
        <pt x="403" y="416" on="1"/>
        <pt x="403" y="428" on="0"/>
        <pt x="429" y="442" on="0"/>
        <pt x="464" y="449" on="0"/>
        <pt x="498" y="451" on="0"/>
        <pt x="507" y="451" on="1"/>
        <pt x="598" y="451" on="0"/>
        <pt x="691" y="357" on="0"/>
        <pt x="691" y="266" on="1"/>
        <pt x="691" y="206" on="0"/>
        <pt x="671" y="87" on="0"/>
        <pt x="671" y="27" on="1"/>
        <pt x="671" y="14" on="0"/>
        <pt x="664" y="-8" on="0"/>
        <pt x="648" y="-8" on="1"/>
        <pt x="653" y="64" on="1"/>
        <pt x="644" y="-5" on="1"/>
        <pt x="641" y="-5" on="0"/>
        <pt x="635" y="-6" on="0"/>
        <pt x="632" y="-6" on="1"/>
        <pt x="630" y="-6" on="0"/>
        <pt x="628" y="-5" on="0"/>
        <pt x="626" y="-5" on="1"/>
        <pt x="626" y="-20" on="1"/>
        <pt x="618" y="-35" on="0"/>
      </contour>
      <contour>
        <pt x="557" y="44" on="1"/>
        <pt x="539" y="43" on="0"/>
        <pt x="504" y="37" on="0"/>
        <pt x="486" y="37" on="1"/>
        <pt x="415" y="37" on="0"/>
        <pt x="275" y="84" on="0"/>
        <pt x="160" y="169" on="0"/>
        <pt x="119" y="229" on="1"/>
        <pt x="90" y="272" on="0"/>
        <pt x="76" y="322" on="1"/>
        <pt x="90" y="265" on="0"/>
        <pt x="123" y="219" on="1"/>
        <pt x="166" y="157" on="0"/>
        <pt x="290" y="73" on="0"/>
        <pt x="440" y="31" on="0"/>
        <pt x="516" y="31" on="1"/>
        <pt x="522" y="31" on="1"/>
        <pt x="532" y="31" on="0"/>
        <pt x="550" y="35" on="0"/>
      </contour>
      <contour>
        <pt x="181" y="258" on="1"/>
        <pt x="181" y="256" on="1"/>
        <pt x="181" y="246" on="0"/>
        <pt x="207" y="218" on="0"/>
        <pt x="241" y="191" on="0"/>
        <pt x="274" y="168" on="0"/>
        <pt x="282" y="164" on="1"/>
        <pt x="273" y="171" on="0"/>
        <pt x="244" y="193" on="0"/>
        <pt x="214" y="219" on="0"/>
        <pt x="187" y="246" on="0"/>
      </contour>
      <contour>
        <pt x="587" y="106" on="1"/>
        <pt x="589" y="129" on="0"/>
        <pt x="597" y="172" on="0"/>
        <pt x="597" y="195" on="1"/>
        <pt x="597" y="209" on="0"/>
        <pt x="595" y="235" on="0"/>
        <pt x="592" y="249" on="1"/>
        <pt x="592" y="213" on="0"/>
        <pt x="590" y="141" on="0"/>
        <pt x="585" y="106" on="1"/>
      </contour>
      <contour>
        <pt x="672" y="224" on="1"/>
        <pt x="660" y="194" on="0"/>
        <pt x="661" y="165" on="1"/>
        <pt x="662" y="138" on="0"/>
        <pt x="658" y="111" on="1"/>
        <pt x="663" y="138" on="0"/>
        <pt x="666" y="166" on="1"/>
        <pt x="670" y="195" on="0"/>
      </contour>
      <contour>
        <pt x="70" y="351" on="1"/>
        <pt x="73" y="336" on="0"/>
        <pt x="76" y="322" on="1"/>
        <pt x="73" y="336" on="0"/>
      </contour>
      <contour>
        <pt x="69" y="362" on="1"/>
        <pt x="70" y="356" on="0"/>
        <pt x="70" y="351" on="1"/>
        <pt x="69" y="356" on="0"/>
      </contour>
    </TTGlyph>
    <TTGlyph name="H" xMin="60" yMin="-45" xMax="631" yMax="742">
      <contour>
        <pt x="554" y="-45" on="1"/>
        <pt x="546" y="-43" on="0"/>
        <pt x="527" y="-34" on="0"/>
        <pt x="522" y="-26" on="1"/>
        <pt x="522" y="9" on="0"/>
        <pt x="519" y="78" on="0"/>
        <pt x="519" y="113" on="1"/>
        <pt x="519" y="167" on="0"/>
        <pt x="526" y="275" on="0"/>
        <pt x="526" y="329" on="1"/>
        <pt x="518" y="243" on="0"/>
        <pt x="518" y="72" on="0"/>
        <pt x="513" y="-14" on="1"/>
        <pt x="499" y="6" on="0"/>
        <pt x="494" y="57" on="0"/>
        <pt x="494" y="81" on="1"/>
        <pt x="496" y="131" on="1"/>
        <pt x="507" y="136" on="1"/>
        <pt x="504" y="164" on="0"/>
        <pt x="504" y="194" on="1"/>
        <pt x="504" y="229" on="0"/>
        <pt x="510" y="296" on="0"/>
        <pt x="513" y="331" on="1"/>
        <pt x="505" y="331" on="1"/>
        <pt x="495" y="174" on="1"/>
        <pt x="500" y="331" on="1"/>
        <pt x="473" y="331" on="0"/>
        <pt x="421" y="321" on="0"/>
        <pt x="394" y="321" on="1"/>
        <pt x="343" y="321" on="0"/>
        <pt x="242" y="325" on="0"/>
        <pt x="191" y="327" on="1"/>
        <pt x="191" y="271" on="0"/>
        <pt x="180" y="162" on="0"/>
        <pt x="180" y="107" on="1"/>
        <pt x="180" y="99" on="0"/>
        <pt x="183" y="74" on="0"/>
        <pt x="183" y="60" on="1"/>
        <pt x="183" y="47" on="0"/>
        <pt x="177" y="27" on="0"/>
        <pt x="169" y="24" on="1"/>
        <pt x="162" y="26" on="1"/>
        <pt x="163" y="130" on="1"/>
        <pt x="161" y="104" on="0"/>
        <pt x="159" y="52" on="0"/>
        <pt x="159" y="26" on="1"/>
        <pt x="156" y="27" on="0"/>
        <pt x="150" y="27" on="1"/>
        <pt x="143" y="27" on="0"/>
        <pt x="141" y="26" on="1"/>
        <pt x="142" y="23" on="0"/>
        <pt x="142" y="18" on="1"/>
        <pt x="142" y="-6" on="0"/>
        <pt x="118" y="-12" on="1"/>
        <pt x="109" y="-8" on="0"/>
        <pt x="97" y="-2" on="0"/>
        <pt x="89" y="9" on="0"/>
        <pt x="85" y="25" on="0"/>
        <pt x="85" y="39" on="1"/>
        <pt x="85" y="56" on="1"/>
        <pt x="80" y="23" on="1"/>
        <pt x="72" y="31" on="0"/>
        <pt x="68" y="49" on="0"/>
        <pt x="68" y="59" on="1"/>
        <pt x="68" y="84" on="0"/>
        <pt x="72" y="133" on="0"/>
        <pt x="72" y="158" on="1"/>
        <pt x="80" y="163" on="1"/>
        <pt x="77" y="196" on="0"/>
        <pt x="77" y="229" on="1"/>
        <pt x="77" y="261" on="0"/>
        <pt x="80" y="327" on="0"/>
        <pt x="80" y="360" on="1"/>
        <pt x="80" y="383" on="0"/>
        <pt x="78" y="431" on="0"/>
        <pt x="74" y="454" on="1"/>
        <pt x="68" y="454" on="1"/>
        <pt x="70" y="414" on="0"/>
        <pt x="71" y="334" on="0"/>
        <pt x="71" y="294" on="1"/>
        <pt x="71" y="169" on="1"/>
        <pt x="71" y="269" on="0"/>
        <pt x="60" y="469" on="0"/>
        <pt x="60" y="569" on="1"/>
        <pt x="65" y="617" on="0"/>
        <pt x="72" y="687" on="0"/>
        <pt x="77" y="729" on="1"/>
        <pt x="87" y="728" on="0"/>
        <pt x="112" y="724" on="0"/>
        <pt x="112" y="710" on="1"/>
        <pt x="110" y="693" on="1"/>
        <pt x="123" y="693" on="1"/>
        <pt x="125" y="699" on="0"/>
        <pt x="132" y="716" on="0"/>
        <pt x="142" y="731" on="0"/>
        <pt x="155" y="742" on="0"/>
        <pt x="163" y="742" on="1"/>
        <pt x="173" y="742" on="0"/>
        <pt x="184" y="713" on="0"/>
        <pt x="190" y="667" on="0"/>
        <pt x="192" y="606" on="0"/>
        <pt x="192" y="575" on="1"/>
        <pt x="192" y="558" on="0"/>
        <pt x="191" y="526" on="0"/>
        <pt x="191" y="511" on="1"/>
        <pt x="191" y="491" on="0"/>
        <pt x="192" y="456" on="0"/>
        <pt x="193" y="442" on="1"/>
        <pt x="246" y="442" on="1"/>
        <pt x="254" y="430" on="1"/>
        <pt x="268" y="432" on="0"/>
        <pt x="294" y="434" on="0"/>
        <pt x="308" y="434" on="1"/>
        <pt x="319" y="434" on="0"/>
        <pt x="343" y="433" on="0"/>
        <pt x="354" y="433" on="1"/>
        <pt x="373" y="433" on="0"/>
        <pt x="410" y="437" on="0"/>
        <pt x="429" y="442" on="1"/>
        <pt x="429" y="448" on="1"/>
        <pt x="394" y="443" on="0"/>
        <pt x="360" y="442" on="1"/>
        <pt x="329" y="442" on="0"/>
        <pt x="297" y="442" on="1"/>
        <pt x="346" y="444" on="0"/>
        <pt x="397" y="449" on="1"/>
        <pt x="450" y="454" on="0"/>
        <pt x="503" y="456" on="1"/>
        <pt x="503" y="514" on="0"/>
        <pt x="511" y="630" on="0"/>
        <pt x="511" y="687" on="1"/>
        <pt x="510" y="708" on="1"/>
        <pt x="535" y="710" on="1"/>
        <pt x="539" y="710" on="0"/>
        <pt x="544" y="701" on="0"/>
        <pt x="548" y="690" on="0"/>
        <pt x="550" y="679" on="0"/>
        <pt x="550" y="677" on="1"/>
        <pt x="553" y="680" on="0"/>
        <pt x="561" y="692" on="0"/>
        <pt x="570" y="704" on="0"/>
        <pt x="578" y="713" on="0"/>
        <pt x="580" y="713" on="1"/>
        <pt x="597" y="713" on="0"/>
        <pt x="617" y="701" on="0"/>
        <pt x="628" y="680" on="0"/>
        <pt x="631" y="654" on="0"/>
        <pt x="631" y="641" on="1"/>
        <pt x="631" y="631" on="0"/>
        <pt x="630" y="612" on="0"/>
        <pt x="630" y="604" on="1"/>
        <pt x="630" y="479" on="1"/>
        <pt x="630" y="382" on="0"/>
        <pt x="608" y="189" on="0"/>
        <pt x="608" y="93" on="1"/>
        <pt x="608" y="86" on="0"/>
        <pt x="613" y="49" on="0"/>
        <pt x="613" y="31" on="1"/>
        <pt x="613" y="17" on="0"/>
        <pt x="607" y="-2" on="0"/>
        <pt x="599" y="-2" on="1"/>
        <pt x="592" y="35" on="0"/>
        <pt x="590" y="74" on="1"/>
        <pt x="590" y="36" on="0"/>
        <pt x="593" y="-2" on="1"/>
        <pt x="584" y="0" on="1"/>
        <pt x="582" y="-14" on="0"/>
        <pt x="569" y="-40" on="0"/>
      </contour>
      <contour>
        <pt x="93" y="175" on="1"/>
        <pt x="96" y="211" on="0"/>
        <pt x="96" y="248" on="1"/>
        <pt x="96" y="274" on="0"/>
        <pt x="95" y="299" on="1"/>
        <pt x="94" y="322" on="0"/>
        <pt x="92" y="346" on="1"/>
        <pt x="92" y="313" on="0"/>
        <pt x="92" y="280" on="1"/>
        <pt x="93" y="246" on="0"/>
        <pt x="93" y="211" on="1"/>
      </contour>
      <contour>
        <pt x="306" y="416" on="1"/>
        <pt x="321" y="416" on="0"/>
        <pt x="352" y="418" on="0"/>
        <pt x="367" y="420" on="1"/>
        <pt x="347" y="420" on="1"/>
        <pt x="326" y="420" on="0"/>
        <pt x="285" y="418" on="0"/>
        <pt x="264" y="418" on="1"/>
        <pt x="275" y="416" on="0"/>
        <pt x="285" y="416" on="1"/>
      </contour>
      <contour>
        <pt x="194" y="417" on="1"/>
        <pt x="258" y="417" on="1"/>
        <pt x="255" y="417" on="0"/>
        <pt x="252" y="418" on="1"/>
        <pt x="243" y="419" on="0"/>
        <pt x="219" y="421" on="0"/>
        <pt x="198" y="423" on="0"/>
        <pt x="194" y="424" on="1"/>
      </contour>
      <contour>
        <pt x="592" y="215" on="1"/>
        <pt x="590" y="182" on="0"/>
        <pt x="590" y="149" on="1"/>
        <pt x="592" y="181" on="0"/>
        <pt x="594" y="215" on="1"/>
        <pt x="597" y="250" on="0"/>
        <pt x="601" y="284" on="1"/>
        <pt x="595" y="250" on="0"/>
      </contour>
      <contour>
        <pt x="254" y="347" on="1"/>
        <pt x="224" y="350" on="0"/>
        <pt x="194" y="350" on="1"/>
        <pt x="193" y="347" on="1"/>
      </contour>
    </TTGlyph>
    <TTGlyph name="I" xMin="60" yMin="23" xMax="213" yMax="778">
      <contour>
        <pt x="74" y="61" on="1"/>
        <pt x="95" y="118" on="0"/>
        <pt x="111" y="251" on="0"/>
        <pt x="115" y="318" on="1"/>
        <pt x="115" y="328" on="0"/>
        <pt x="114" y="337" on="1"/>
        <pt x="114" y="345" on="0"/>
        <pt x="114" y="352" on="1"/>
        <pt x="111" y="278" on="0"/>
        <pt x="102" y="204" on="1"/>
        <pt x="94" y="128" on="0"/>
        <pt x="68" y="64" on="1"/>
        <pt x="64" y="72" on="0"/>
        <pt x="60" y="84" on="0"/>
        <pt x="60" y="92" on="1"/>
        <pt x="60" y="116" on="0"/>
        <pt x="76" y="168" on="0"/>
        <pt x="78" y="196" on="1"/>
        <pt x="92" y="202" on="1"/>
        <pt x="92" y="251" on="0"/>
        <pt x="100" y="348" on="0"/>
        <pt x="100" y="397" on="1"/>
        <pt x="100" y="422" on="0"/>
        <pt x="97" y="470" on="0"/>
        <pt x="92" y="496" on="1"/>
        <pt x="86" y="496" on="1"/>
        <pt x="92" y="425" on="0"/>
        <pt x="92" y="360" on="1"/>
        <pt x="92" y="327" on="0"/>
        <pt x="90" y="297" on="1"/>
        <pt x="88" y="269" on="0"/>
        <pt x="83" y="240" on="1"/>
        <pt x="86" y="262" on="0"/>
        <pt x="87" y="282" on="1"/>
        <pt x="89" y="305" on="0"/>
        <pt x="89" y="331" on="1"/>
        <pt x="89" y="412" on="0"/>
        <pt x="76" y="579" on="0"/>
        <pt x="71" y="667" on="1"/>
        <pt x="71" y="695" on="1"/>
        <pt x="74" y="707" on="0"/>
        <pt x="75" y="735" on="0"/>
        <pt x="79" y="761" on="0"/>
        <pt x="90" y="778" on="0"/>
        <pt x="103" y="778" on="1"/>
        <pt x="120" y="773" on="1"/>
        <pt x="126" y="761" on="1"/>
        <pt x="135" y="761" on="1"/>
        <pt x="139" y="767" on="0"/>
        <pt x="144" y="767" on="1"/>
        <pt x="150" y="767" on="0"/>
        <pt x="162" y="758" on="0"/>
        <pt x="170" y="758" on="1"/>
        <pt x="185" y="758" on="0"/>
        <pt x="197" y="717" on="0"/>
        <pt x="201" y="656" on="0"/>
        <pt x="201" y="583" on="0"/>
        <pt x="205" y="551" on="1"/>
        <pt x="208" y="522" on="0"/>
        <pt x="213" y="463" on="0"/>
        <pt x="213" y="433" on="1"/>
        <pt x="213" y="403" on="0"/>
        <pt x="209" y="323" on="0"/>
        <pt x="202" y="238" on="0"/>
        <pt x="192" y="154" on="0"/>
        <pt x="180" y="88" on="0"/>
        <pt x="164" y="47" on="0"/>
        <pt x="156" y="47" on="1"/>
        <pt x="154" y="47" on="0"/>
        <pt x="150" y="49" on="1"/>
        <pt x="157" y="81" on="0"/>
        <pt x="170" y="145" on="0"/>
        <pt x="175" y="180" on="1"/>
        <pt x="168" y="148" on="0"/>
        <pt x="153" y="81" on="0"/>
        <pt x="144" y="52" on="1"/>
        <pt x="140" y="56" on="0"/>
        <pt x="134" y="56" on="1"/>
        <pt x="132" y="56" on="0"/>
        <pt x="127" y="46" on="0"/>
        <pt x="119" y="33" on="0"/>
        <pt x="107" y="23" on="0"/>
        <pt x="100" y="23" on="1"/>
        <pt x="93" y="23" on="0"/>
        <pt x="85" y="29" on="0"/>
        <pt x="80" y="38" on="0"/>
        <pt x="75" y="48" on="0"/>
        <pt x="71" y="52" on="1"/>
      </contour>
      <contour>
        <pt x="190" y="349" on="1"/>
        <pt x="184" y="329" on="0"/>
        <pt x="179" y="296" on="0"/>
        <pt x="178" y="266" on="0"/>
        <pt x="178" y="250" on="1"/>
        <pt x="178" y="236" on="0"/>
        <pt x="177" y="219" on="1"/>
        <pt x="181" y="253" on="0"/>
        <pt x="184" y="281" on="1"/>
        <pt x="188" y="311" on="0"/>
      </contour>
      <contour>
        <pt x="83" y="236" on="1"/>
        <pt x="83" y="238" on="0"/>
        <pt x="83" y="240" on="1"/>
        <pt x="83" y="238" on="0"/>
      </contour>
    </TTGlyph>
    <TTGlyph name="IJ" xMin="68" yMin="-121" xMax="701" yMax="778">
      <component glyphName="I" x="8" y="0" flags="0x4"/>
      <component glyphName="J" x="298" y="0" flags="0x4"/>
    </TTGlyph>
    <TTGlyph name="Iacute" xMin="-10" yMin="-6" xMax="285" yMax="985">
      <component glyphName="I" x="0" y="-29" flags="0x204"/>
      <component glyphName="acute.cap" x="-30" y="11" flags="0x4"/>
    </TTGlyph>
    <TTGlyph name="Icircumflex" xMin="5" yMin="-16" xMax="270" yMax="1025">
      <component glyphName="I" x="0" y="-39" flags="0x204"/>
      <component glyphName="circumflex.cap" x="-15" y="0" flags="0x4"/>
    </TTGlyph>
    <TTGlyph name="Idieresis" xMin="-64" yMin="-16" xMax="339" yMax="922">
      <component glyphName="I" x="0" y="-39" flags="0x204"/>
      <component glyphName="dieresis.cap" x="-84" y="-19" flags="0x4"/>
    </TTGlyph>
    <TTGlyph name="Igrave" xMin="20" yMin="-16" xMax="253" yMax="1014">
      <component glyphName="I" x="0" y="-39" flags="0x204"/>
      <component glyphName="grave.cap" x="0" y="0" flags="0x4"/>
    </TTGlyph>
    <TTGlyph name="Itilde" xMin="-62" yMin="-16" xMax="338" yMax="1034">
      <component glyphName="I" x="0" y="-39" flags="0x204"/>
      <component glyphName="tilde.cap" x="-82" y="-19" flags="0x4"/>
    </TTGlyph>
    <TTGlyph name="J" xMin="-20" yMin="-121" xMax="403" yMax="743">
      <contour>
        <pt x="30" y="5" on="1"/>
        <pt x="54" y="-7" on="0"/>
        <pt x="104" y="-31" on="0"/>
        <pt x="132" y="-31" on="1"/>
        <pt x="161" y="-31" on="0"/>
        <pt x="205" y="3" on="0"/>
        <pt x="237" y="56" on="0"/>
        <pt x="258" y="124" on="0"/>
        <pt x="272" y="191" on="0"/>
        <pt x="275" y="221" on="1"/>
        <pt x="276" y="232" on="0"/>
        <pt x="277" y="241" on="1"/>
        <pt x="276" y="233" on="0"/>
        <pt x="275" y="224" on="1"/>
        <pt x="271" y="195" on="0"/>
        <pt x="257" y="128" on="0"/>
        <pt x="237" y="61" on="0"/>
        <pt x="207" y="7" on="0"/>
        <pt x="167" y="-27" on="0"/>
        <pt x="140" y="-27" on="1"/>
        <pt x="115" y="-27" on="0"/>
        <pt x="68" y="-8" on="0"/>
        <pt x="48" y="5" on="1"/>
        <pt x="71" y="5" on="0"/>
        <pt x="113" y="-7" on="0"/>
        <pt x="136" y="-7" on="1"/>
        <pt x="156" y="-7" on="0"/>
        <pt x="179" y="9" on="0"/>
        <pt x="190" y="24" on="1"/>
        <pt x="204" y="23" on="1"/>
        <pt x="226" y="65" on="0"/>
        <pt x="254" y="167" on="0"/>
        <pt x="270" y="275" on="0"/>
        <pt x="276" y="382" on="0"/>
        <pt x="276" y="429" on="1"/>
        <pt x="276" y="460" on="1"/>
        <pt x="276" y="476" on="0"/>
        <pt x="275" y="492" on="1"/>
        <pt x="272" y="488" on="1"/>
        <pt x="270" y="438" on="0"/>
        <pt x="266" y="317" on="0"/>
        <pt x="253" y="195" on="0"/>
        <pt x="226" y="81" on="0"/>
        <pt x="201" y="37" on="1"/>
        <pt x="231" y="93" on="0"/>
        <pt x="257" y="238" on="0"/>
        <pt x="266" y="392" on="0"/>
        <pt x="268" y="545" on="0"/>
        <pt x="274" y="609" on="1"/>
        <pt x="218" y="615" on="0"/>
        <pt x="101" y="629" on="0"/>
        <pt x="45" y="629" on="1"/>
        <pt x="45" y="639" on="0"/>
        <pt x="44" y="649" on="0"/>
        <pt x="44" y="654" on="1"/>
        <pt x="44" y="663" on="0"/>
        <pt x="72" y="667" on="0"/>
        <pt x="78" y="667" on="1"/>
        <pt x="80" y="667" on="1"/>
        <pt x="103" y="666" on="1"/>
        <pt x="103" y="678" on="1"/>
        <pt x="97" y="679" on="0"/>
        <pt x="68" y="684" on="0"/>
        <pt x="37" y="694" on="0"/>
        <pt x="14" y="708" on="0"/>
        <pt x="14" y="717" on="1"/>
        <pt x="14" y="726" on="0"/>
        <pt x="51" y="736" on="0"/>
        <pt x="97" y="742" on="0"/>
        <pt x="139" y="743" on="0"/>
        <pt x="145" y="743" on="1"/>
        <pt x="199" y="743" on="0"/>
        <pt x="299" y="732" on="0"/>
        <pt x="354" y="721" on="1"/>
        <pt x="403" y="651" on="1"/>
        <pt x="396" y="615" on="0"/>
        <pt x="390" y="510" on="0"/>
        <pt x="386" y="388" on="0"/>
        <pt x="379" y="256" on="0"/>
        <pt x="360" y="130" on="0"/>
        <pt x="325" y="16" on="0"/>
        <pt x="267" y="-70" on="0"/>
        <pt x="180" y="-121" on="0"/>
        <pt x="119" y="-121" on="1"/>
        <pt x="93" y="-121" on="0"/>
        <pt x="34" y="-102" on="0"/>
        <pt x="15" y="-83" on="1"/>
        <pt x="18" y="-75" on="1"/>
        <pt x="44" y="-88" on="0"/>
        <pt x="98" y="-103" on="0"/>
        <pt x="127" y="-103" on="1"/>
        <pt x="161" y="-103" on="0"/>
        <pt x="194" y="-89" on="1"/>
        <pt x="163" y="-100" on="0"/>
        <pt x="131" y="-100" on="1"/>
        <pt x="102" y="-100" on="0"/>
        <pt x="50" y="-84" on="0"/>
        <pt x="24" y="-72" on="1"/>
        <pt x="31" y="-60" on="1"/>
        <pt x="26" y="-57" on="0"/>
        <pt x="8" y="-46" on="0"/>
        <pt x="-8" y="-33" on="0"/>
        <pt x="-20" y="-18" on="0"/>
        <pt x="-20" y="-12" on="1"/>
        <pt x="-20" y="-2" on="0"/>
        <pt x="4" y="5" on="0"/>
        <pt x="11" y="5" on="1"/>
      </contour>
    </TTGlyph>
    <TTGlyph name="Jcircumflex" xMin="-20" yMin="-121" xMax="403" yMax="1055">
      <component glyphName="J" x="0" y="0" flags="0x204"/>
      <component glyphName="circumflex.cap" x="79" y="30" flags="0x4"/>
    </TTGlyph>
    <TTGlyph name="K" xMin="60" yMin="-107" xMax="657" yMax="693">
      <contour>
        <pt x="203" y="275" on="1"/>
        <pt x="207" y="265" on="0"/>
        <pt x="217" y="225" on="0"/>
        <pt x="222" y="216" on="1"/>
        <pt x="256" y="216" on="0"/>
        <pt x="323" y="210" on="0"/>
        <pt x="354" y="200" on="1"/>
        <pt x="373" y="193" on="0"/>
        <pt x="391" y="184" on="1"/>
        <pt x="378" y="190" on="0"/>
        <pt x="365" y="195" on="1"/>
        <pt x="338" y="204" on="0"/>
        <pt x="278" y="211" on="0"/>
        <pt x="245" y="211" on="1"/>
        <pt x="240" y="211" on="0"/>
        <pt x="229" y="210" on="0"/>
        <pt x="224" y="210" on="1"/>
        <pt x="219" y="209" on="1"/>
        <pt x="213" y="220" on="0"/>
        <pt x="206" y="254" on="0"/>
        <pt x="201" y="267" on="1"/>
        <pt x="198" y="246" on="0"/>
        <pt x="190" y="177" on="0"/>
        <pt x="181" y="104" on="0"/>
        <pt x="175" y="37" on="0"/>
        <pt x="175" y="18" on="1"/>
        <pt x="175" y="13" on="0"/>
        <pt x="176" y="-7" on="0"/>
        <pt x="176" y="-18" on="1"/>
        <pt x="176" y="-33" on="0"/>
        <pt x="171" y="-58" on="0"/>
        <pt x="161" y="-58" on="1"/>
        <pt x="159" y="-58" on="0"/>
        <pt x="155" y="-56" on="1"/>
        <pt x="157" y="-36" on="0"/>
        <pt x="156" y="-15" on="1"/>
        <pt x="156" y="-3" on="0"/>
        <pt x="156" y="9" on="1"/>
        <pt x="152" y="-56" on="1"/>
        <pt x="143" y="-54" on="1"/>
        <pt x="134" y="-56" on="1"/>
        <pt x="134" y="-74" on="1"/>
        <pt x="130" y="-81" on="0"/>
        <pt x="117" y="-94" on="0"/>
        <pt x="108" y="-94" on="1"/>
        <pt x="91" y="-94" on="0"/>
        <pt x="78" y="-63" on="0"/>
        <pt x="78" y="-51" on="1"/>
        <pt x="78" y="-37" on="0"/>
        <pt x="78" y="-23" on="1"/>
        <pt x="79" y="-11" on="0"/>
        <pt x="79" y="1" on="1"/>
        <pt x="76" y="-12" on="0"/>
        <pt x="74" y="-26" on="1"/>
        <pt x="71" y="-42" on="0"/>
        <pt x="69" y="-59" on="1"/>
        <pt x="64" y="-51" on="0"/>
        <pt x="60" y="-28" on="0"/>
        <pt x="60" y="-19" on="1"/>
        <pt x="69" y="91" on="1"/>
        <pt x="82" y="91" on="1"/>
        <pt x="81" y="101" on="0"/>
        <pt x="80" y="120" on="0"/>
        <pt x="80" y="130" on="1"/>
        <pt x="80" y="184" on="0"/>
        <pt x="96" y="293" on="0"/>
        <pt x="96" y="347" on="1"/>
        <pt x="96" y="358" on="0"/>
        <pt x="95" y="380" on="0"/>
        <pt x="94" y="391" on="1"/>
        <pt x="88" y="391" on="1"/>
        <pt x="88" y="325" on="0"/>
        <pt x="80" y="196" on="0"/>
        <pt x="72" y="130" on="1"/>
        <pt x="84" y="280" on="0"/>
        <pt x="84" y="431" on="1"/>
        <pt x="84" y="462" on="0"/>
        <pt x="77" y="525" on="0"/>
        <pt x="77" y="556" on="1"/>
        <pt x="77" y="579" on="0"/>
        <pt x="86" y="621" on="0"/>
        <pt x="86" y="644" on="1"/>
        <pt x="86" y="655" on="1"/>
        <pt x="86" y="661" on="0"/>
        <pt x="85" y="666" on="1"/>
        <pt x="92" y="666" on="0"/>
        <pt x="103" y="669" on="0"/>
        <pt x="107" y="669" on="1"/>
        <pt x="117" y="669" on="0"/>
        <pt x="121" y="648" on="0"/>
        <pt x="121" y="640" on="1"/>
        <pt x="121" y="636" on="1"/>
        <pt x="134" y="636" on="1"/>
        <pt x="135" y="642" on="0"/>
        <pt x="140" y="661" on="0"/>
        <pt x="148" y="680" on="0"/>
        <pt x="161" y="693" on="0"/>
        <pt x="169" y="693" on="1"/>
        <pt x="179" y="693" on="0"/>
        <pt x="194" y="656" on="0"/>
        <pt x="204" y="599" on="0"/>
        <pt x="209" y="530" on="0"/>
        <pt x="211" y="467" on="0"/>
        <pt x="212" y="417" on="0"/>
        <pt x="212" y="407" on="1"/>
        <pt x="212" y="356" on="1"/>
        <pt x="265" y="417" on="0"/>
        <pt x="395" y="539" on="0"/>
        <pt x="458" y="590" on="1"/>
        <pt x="482" y="609" on="0"/>
        <pt x="524" y="642" on="0"/>
        <pt x="544" y="666" on="1"/>
        <pt x="566" y="643" on="1"/>
        <pt x="561" y="632" on="0"/>
        <pt x="546" y="613" on="0"/>
        <pt x="538" y="605" on="1"/>
        <pt x="547" y="599" on="1"/>
        <pt x="553" y="604" on="0"/>
        <pt x="571" y="617" on="0"/>
        <pt x="591" y="629" on="0"/>
        <pt x="611" y="638" on="0"/>
        <pt x="619" y="638" on="1"/>
        <pt x="631" y="638" on="0"/>
        <pt x="631" y="626" on="1"/>
        <pt x="631" y="602" on="0"/>
        <pt x="601" y="560" on="0"/>
        <pt x="531" y="499" on="0"/>
        <pt x="416" y="406" on="0"/>
        <pt x="331" y="331" on="1"/>
        <pt x="382" y="323" on="0"/>
        <pt x="467" y="283" on="0"/>
        <pt x="535" y="223" on="0"/>
        <pt x="587" y="148" on="0"/>
        <pt x="605" y="106" on="1"/>
        <pt x="609" y="96" on="0"/>
        <pt x="627" y="61" on="0"/>
        <pt x="644" y="23" on="0"/>
        <pt x="657" y="-12" on="0"/>
        <pt x="657" y="-22" on="1"/>
        <pt x="657" y="-27" on="0"/>
        <pt x="651" y="-39" on="0"/>
        <pt x="645" y="-41" on="1"/>
        <pt x="628" y="9" on="0"/>
        <pt x="591" y="105" on="0"/>
        <pt x="562" y="149" on="1"/>
        <pt x="589" y="104" on="0"/>
        <pt x="624" y="9" on="0"/>
        <pt x="638" y="-41" on="1"/>
        <pt x="623" y="-44" on="1"/>
        <pt x="625" y="-49" on="0"/>
        <pt x="632" y="-70" on="0"/>
        <pt x="632" y="-74" on="1"/>
        <pt x="632" y="-82" on="0"/>
        <pt x="627" y="-107" on="0"/>
        <pt x="615" y="-107" on="1"/>
        <pt x="604" y="-107" on="0"/>
        <pt x="584" y="-91" on="0"/>
        <pt x="577" y="-83" on="1"/>
        <pt x="566" y="-25" on="0"/>
        <pt x="524" y="83" on="0"/>
        <pt x="490" y="127" on="1"/>
        <pt x="518" y="88" on="0"/>
        <pt x="552" y="-11" on="0"/>
        <pt x="565" y="-71" on="1"/>
        <pt x="550" y="-51" on="0"/>
        <pt x="529" y="-5" on="0"/>
        <pt x="510" y="42" on="0"/>
        <pt x="490" y="88" on="0"/>
        <pt x="476" y="109" on="1"/>
        <pt x="485" y="116" on="1"/>
        <pt x="457" y="148" on="0"/>
        <pt x="399" y="190" on="0"/>
        <pt x="335" y="216" on="0"/>
        <pt x="263" y="226" on="0"/>
        <pt x="222" y="226" on="1"/>
        <pt x="204" y="283" on="1"/>
      </contour>
      <contour>
        <pt x="282" y="418" on="1"/>
        <pt x="279" y="422" on="1"/>
        <pt x="212" y="352" on="1"/>
        <pt x="211" y="337" on="1"/>
      </contour>
      <contour>
        <pt x="351" y="305" on="1"/>
        <pt x="417" y="287" on="0"/>
        <pt x="524" y="205" on="0"/>
        <pt x="562" y="149" on="1"/>
        <pt x="528" y="207" on="0"/>
        <pt x="416" y="289" on="0"/>
      </contour>
      <contour>
        <pt x="280" y="238" on="1"/>
        <pt x="362" y="227" on="0"/>
        <pt x="413" y="197" on="1"/>
        <pt x="357" y="235" on="0"/>
      </contour>
      <contour>
        <pt x="171" y="173" on="1"/>
        <pt x="167" y="141" on="0"/>
        <pt x="165" y="108" on="1"/>
        <pt x="170" y="140" on="0"/>
        <pt x="173" y="173" on="1"/>
        <pt x="177" y="205" on="0"/>
        <pt x="182" y="236" on="1"/>
        <pt x="175" y="205" on="0"/>
      </contour>
      <contour>
        <pt x="101" y="222" on="1"/>
        <pt x="99" y="194" on="0"/>
        <pt x="96" y="164" on="1"/>
        <pt x="101" y="196" on="0"/>
        <pt x="103" y="225" on="1"/>
        <pt x="106" y="256" on="0"/>
        <pt x="106" y="282" on="1"/>
        <pt x="103" y="251" on="0"/>
      </contour>
      <contour>
        <pt x="439" y="150" on="1"/>
        <pt x="428" y="161" on="0"/>
        <pt x="416" y="169" on="1"/>
        <pt x="415" y="170" on="1"/>
        <pt x="428" y="162" on="0"/>
      </contour>
      <contour>
        <pt x="404" y="177" on="1"/>
        <pt x="399" y="180" on="0"/>
        <pt x="394" y="183" on="1"/>
        <pt x="399" y="180" on="0"/>
      </contour>
      <contour>
        <pt x="412" y="172" on="1"/>
        <pt x="415" y="170" on="1"/>
        <pt x="410" y="173" on="0"/>
        <pt x="406" y="176" on="1"/>
        <pt x="409" y="174" on="0"/>
      </contour>
      <contour>
        <pt x="457" y="131" on="1"/>
        <pt x="455" y="134" on="0"/>
        <pt x="452" y="137" on="1"/>
        <pt x="455" y="134" on="0"/>
      </contour>
      <contour>
        <pt x="448" y="141" on="1"/>
        <pt x="450" y="139" on="0"/>
        <pt x="452" y="137" on="1"/>
        <pt x="450" y="139" on="0"/>
      </contour>
      <contour>
        <pt x="79" y="1" on="1"/>
        <pt x="80" y="2" on="0"/>
        <pt x="80" y="3" on="1"/>
        <pt x="79" y="2" on="0"/>
      </contour>
      <contour>
        <pt x="460" y="128" on="1"/>
        <pt x="458" y="129" on="0"/>
        <pt x="457" y="131" on="1"/>
        <pt x="459" y="130" on="0"/>
      </contour>
    </TTGlyph>
    <TTGlyph name="L" xMin="61" yMin="-57" xMax="580" yMax="741">
      <contour>
        <pt x="66" y="289" on="1"/>
        <pt x="69" y="219" on="0"/>
        <pt x="76" y="79" on="0"/>
        <pt x="78" y="9" on="1"/>
        <pt x="78" y="4" on="1"/>
        <pt x="75" y="7" on="1"/>
        <pt x="75" y="14" on="1"/>
        <pt x="70" y="104" on="0"/>
        <pt x="61" y="279" on="0"/>
        <pt x="61" y="369" on="1"/>
        <pt x="61" y="482" on="1"/>
        <pt x="61" y="509" on="0"/>
        <pt x="62" y="562" on="0"/>
        <pt x="63" y="589" on="1"/>
        <pt x="64" y="620" on="0"/>
        <pt x="72" y="679" on="0"/>
        <pt x="72" y="711" on="1"/>
        <pt x="76" y="711" on="1"/>
        <pt x="83" y="711" on="0"/>
        <pt x="93" y="713" on="0"/>
        <pt x="96" y="713" on="1"/>
        <pt x="106" y="713" on="0"/>
        <pt x="110" y="687" on="0"/>
        <pt x="110" y="680" on="1"/>
        <pt x="109" y="659" on="1"/>
        <pt x="121" y="659" on="1"/>
        <pt x="122" y="665" on="0"/>
        <pt x="127" y="692" on="0"/>
        <pt x="137" y="720" on="0"/>
        <pt x="150" y="741" on="0"/>
        <pt x="159" y="741" on="1"/>
        <pt x="169" y="741" on="0"/>
        <pt x="180" y="705" on="0"/>
        <pt x="186" y="656" on="0"/>
        <pt x="187" y="605" on="0"/>
        <pt x="187" y="590" on="1"/>
        <pt x="187" y="578" on="1"/>
        <pt x="187" y="463" on="0"/>
        <pt x="191" y="233" on="0"/>
        <pt x="191" y="118" on="1"/>
        <pt x="191" y="109" on="0"/>
        <pt x="190" y="90" on="0"/>
        <pt x="190" y="81" on="1"/>
        <pt x="190" y="76" on="0"/>
        <pt x="191" y="68" on="0"/>
        <pt x="191" y="63" on="1"/>
        <pt x="201" y="63" on="1"/>
        <pt x="210" y="63" on="0"/>
        <pt x="228" y="62" on="0"/>
        <pt x="237" y="62" on="1"/>
        <pt x="300" y="62" on="0"/>
        <pt x="423" y="75" on="0"/>
        <pt x="486" y="75" on="1"/>
        <pt x="490" y="75" on="1"/>
        <pt x="500" y="75" on="0"/>
        <pt x="528" y="70" on="0"/>
        <pt x="528" y="58" on="1"/>
        <pt x="528" y="56" on="1"/>
        <pt x="475" y="56" on="0"/>
        <pt x="373" y="49" on="0"/>
        <pt x="320" y="44" on="1"/>
        <pt x="359" y="46" on="0"/>
        <pt x="436" y="52" on="0"/>
        <pt x="475" y="52" on="1"/>
        <pt x="488" y="52" on="0"/>
        <pt x="512" y="51" on="0"/>
        <pt x="525" y="50" on="1"/>
        <pt x="521" y="38" on="1"/>
        <pt x="527" y="37" on="0"/>
        <pt x="547" y="34" on="0"/>
        <pt x="566" y="26" on="0"/>
        <pt x="580" y="15" on="0"/>
        <pt x="580" y="7" on="1"/>
        <pt x="580" y="-7" on="0"/>
        <pt x="554" y="-18" on="0"/>
        <pt x="543" y="-23" on="1"/>
        <pt x="528" y="-18" on="0"/>
        <pt x="495" y="-17" on="0"/>
        <pt x="479" y="-17" on="1"/>
        <pt x="444" y="-17" on="0"/>
        <pt x="410" y="-20" on="1"/>
        <pt x="378" y="-23" on="0"/>
        <pt x="345" y="-26" on="1"/>
        <pt x="369" y="-25" on="0"/>
        <pt x="391" y="-24" on="1"/>
        <pt x="416" y="-23" on="0"/>
        <pt x="441" y="-23" on="1"/>
        <pt x="463" y="-23" on="0"/>
        <pt x="506" y="-25" on="0"/>
        <pt x="528" y="-29" on="1"/>
        <pt x="510" y="-37" on="0"/>
        <pt x="457" y="-45" on="0"/>
        <pt x="400" y="-49" on="0"/>
        <pt x="344" y="-50" on="0"/>
        <pt x="323" y="-51" on="1"/>
        <pt x="314" y="-41" on="1"/>
        <pt x="292" y="-46" on="0"/>
        <pt x="248" y="-49" on="0"/>
        <pt x="225" y="-49" on="1"/>
        <pt x="201" y="-49" on="0"/>
        <pt x="153" y="-45" on="0"/>
        <pt x="130" y="-41" on="1"/>
        <pt x="119" y="-29" on="0"/>
        <pt x="97" y="-6" on="0"/>
        <pt x="84" y="5" on="1"/>
        <pt x="84" y="77" on="0"/>
        <pt x="77" y="217" on="0"/>
        <pt x="72" y="289" on="1"/>
      </contour>
      <contour>
        <pt x="279" y="-31" on="1"/>
        <pt x="255" y="-32" on="0"/>
        <pt x="229" y="-32" on="1"/>
        <pt x="198" y="-32" on="0"/>
        <pt x="144" y="-28" on="0"/>
        <pt x="133" y="-23" on="1"/>
        <pt x="103" y="6" on="1"/>
        <pt x="94" y="124" on="1"/>
        <pt x="94" y="102" on="1"/>
        <pt x="94" y="79" on="0"/>
        <pt x="100" y="33" on="0"/>
        <pt x="100" y="10" on="1"/>
        <pt x="100" y="4" on="1"/>
        <pt x="108" y="-4" on="0"/>
        <pt x="123" y="-20" on="0"/>
        <pt x="130" y="-29" on="1"/>
        <pt x="137" y="-29" on="1"/>
        <pt x="159" y="-29" on="0"/>
        <pt x="202" y="-34" on="0"/>
        <pt x="224" y="-34" on="1"/>
        <pt x="247" y="-34" on="0"/>
        <pt x="269" y="-32" on="1"/>
        <pt x="277" y="-32" on="0"/>
        <pt x="286" y="-31" on="1"/>
      </contour>
      <contour>
        <pt x="194" y="39" on="1"/>
        <pt x="199" y="38" on="0"/>
        <pt x="210" y="37" on="0"/>
        <pt x="216" y="37" on="1"/>
        <pt x="242" y="37" on="0"/>
        <pt x="294" y="39" on="0"/>
        <pt x="320" y="44" on="1"/>
        <pt x="288" y="42" on="0"/>
        <pt x="226" y="42" on="0"/>
        <pt x="194" y="41" on="1"/>
      </contour>
      <contour>
        <pt x="127" y="-48" on="1"/>
        <pt x="144" y="-53" on="0"/>
        <pt x="181" y="-56" on="0"/>
        <pt x="201" y="-56" on="1"/>
        <pt x="213" y="-56" on="0"/>
        <pt x="224" y="-55" on="1"/>
        <pt x="234" y="-55" on="0"/>
        <pt x="243" y="-55" on="1"/>
        <pt x="237" y="-56" on="0"/>
        <pt x="229" y="-56" on="1"/>
        <pt x="221" y="-57" on="0"/>
        <pt x="213" y="-57" on="1"/>
        <pt x="193" y="-57" on="1"/>
        <pt x="181" y="-57" on="0"/>
        <pt x="156" y="-55" on="0"/>
        <pt x="133" y="-53" on="0"/>
        <pt x="128" y="-51" on="1"/>
        <pt x="125" y="-48" on="0"/>
        <pt x="111" y="-33" on="0"/>
        <pt x="95" y="-17" on="0"/>
        <pt x="82" y="-2" on="0"/>
        <pt x="81" y="0" on="1"/>
      </contour>
      <contour>
        <pt x="168" y="43" on="1"/>
        <pt x="146" y="47" on="1"/>
        <pt x="152" y="45" on="0"/>
        <pt x="176" y="34" on="0"/>
        <pt x="182" y="33" on="1"/>
        <pt x="179" y="44" on="1"/>
      </contour>
    </TTGlyph>
    <TTGlyph name="Ldotaccent" xMin="61" yMin="-57" xMax="580" yMax="741">
      <component glyphName="L" x="0" y="0" flags="0x204"/>
      <component glyphName="dotaccentcmb.cap" x="404" y="-550" flags="0x4"/>
    </TTGlyph>
    <TTGlyph name="Lslash" xMin="-29" yMin="-57" xMax="622" yMax="741">
      <contour>
        <pt x="103" y="375" on="1"/>
        <pt x="103" y="485" on="1"/>
        <pt x="103" y="511" on="0"/>
        <pt x="104" y="563" on="0"/>
        <pt x="105" y="589" on="1"/>
        <pt x="106" y="620" on="0"/>
        <pt x="114" y="679" on="0"/>
        <pt x="114" y="711" on="1"/>
        <pt x="118" y="711" on="1"/>
        <pt x="125" y="711" on="0"/>
        <pt x="135" y="713" on="0"/>
        <pt x="138" y="713" on="1"/>
        <pt x="148" y="713" on="0"/>
        <pt x="152" y="687" on="0"/>
        <pt x="152" y="680" on="1"/>
        <pt x="151" y="659" on="1"/>
        <pt x="163" y="659" on="1"/>
        <pt x="164" y="665" on="0"/>
        <pt x="169" y="692" on="0"/>
        <pt x="179" y="720" on="0"/>
        <pt x="192" y="741" on="0"/>
        <pt x="201" y="741" on="1"/>
        <pt x="211" y="741" on="0"/>
        <pt x="222" y="705" on="0"/>
        <pt x="228" y="656" on="0"/>
        <pt x="229" y="605" on="0"/>
        <pt x="229" y="590" on="1"/>
        <pt x="229" y="453" on="1"/>
        <pt x="339" y="523" on="1"/>
        <pt x="341" y="524" on="0"/>
        <pt x="342" y="526" on="0"/>
        <pt x="344" y="527" on="1"/>
        <pt x="348" y="529" on="1"/>
        <pt x="350" y="529" on="0"/>
        <pt x="359" y="519" on="1"/>
        <pt x="336" y="507" on="0"/>
        <pt x="265" y="455" on="0"/>
        <pt x="230" y="430" on="1"/>
        <pt x="230" y="426" on="1"/>
        <pt x="248" y="438" on="0"/>
        <pt x="285" y="465" on="0"/>
        <pt x="319" y="490" on="0"/>
        <pt x="350" y="510" on="0"/>
        <pt x="361" y="515" on="1"/>
        <pt x="363" y="512" on="0"/>
        <pt x="364" y="507" on="0"/>
        <pt x="367" y="505" on="1"/>
        <pt x="367" y="504" on="0"/>
        <pt x="369" y="504" on="1"/>
        <pt x="378" y="508" on="1"/>
        <pt x="392" y="504" on="0"/>
        <pt x="397" y="498" on="1"/>
        <pt x="402" y="492" on="0"/>
        <pt x="404" y="480" on="0"/>
        <pt x="404" y="474" on="1"/>
        <pt x="404" y="467" on="1"/>
        <pt x="398" y="465" on="1"/>
        <pt x="384" y="460" on="0"/>
        <pt x="343" y="435" on="0"/>
        <pt x="297" y="404" on="0"/>
        <pt x="250" y="370" on="0"/>
        <pt x="231" y="355" on="1"/>
        <pt x="231" y="350" on="1"/>
        <pt x="252" y="365" on="0"/>
        <pt x="298" y="399" on="0"/>
        <pt x="345" y="430" on="0"/>
        <pt x="387" y="453" on="0"/>
        <pt x="403" y="457" on="1"/>
        <pt x="401" y="452" on="0"/>
        <pt x="398" y="443" on="0"/>
        <pt x="393" y="440" on="1"/>
        <pt x="382" y="432" on="0"/>
        <pt x="353" y="420" on="0"/>
        <pt x="342" y="414" on="1"/>
        <pt x="336" y="422" on="1"/>
        <pt x="332" y="418" on="0"/>
        <pt x="323" y="412" on="0"/>
        <pt x="320" y="409" on="1"/>
        <pt x="314" y="405" on="0"/>
        <pt x="304" y="397" on="1"/>
        <pt x="282" y="381" on="1"/>
        <pt x="270" y="372" on="0"/>
        <pt x="257" y="362" on="1"/>
        <pt x="231" y="342" on="1"/>
        <pt x="231" y="339" on="1"/>
        <pt x="258" y="359" on="0"/>
        <pt x="308" y="394" on="0"/>
        <pt x="322" y="402" on="1"/>
        <pt x="309" y="394" on="0"/>
        <pt x="257" y="351" on="0"/>
        <pt x="231" y="329" on="1"/>
        <pt x="232" y="276" on="0"/>
        <pt x="233" y="171" on="0"/>
        <pt x="233" y="118" on="1"/>
        <pt x="233" y="109" on="0"/>
        <pt x="232" y="90" on="0"/>
        <pt x="232" y="81" on="1"/>
        <pt x="232" y="76" on="0"/>
        <pt x="233" y="68" on="0"/>
        <pt x="233" y="63" on="1"/>
        <pt x="243" y="63" on="1"/>
        <pt x="252" y="63" on="0"/>
        <pt x="270" y="62" on="0"/>
        <pt x="279" y="62" on="1"/>
        <pt x="342" y="62" on="0"/>
        <pt x="465" y="75" on="0"/>
        <pt x="528" y="75" on="1"/>
        <pt x="532" y="75" on="1"/>
        <pt x="542" y="75" on="0"/>
        <pt x="570" y="70" on="0"/>
        <pt x="570" y="58" on="1"/>
        <pt x="570" y="56" on="1"/>
        <pt x="517" y="56" on="0"/>
        <pt x="415" y="49" on="0"/>
        <pt x="362" y="44" on="1"/>
        <pt x="401" y="46" on="0"/>
        <pt x="478" y="52" on="0"/>
        <pt x="517" y="52" on="1"/>
        <pt x="530" y="52" on="0"/>
        <pt x="554" y="51" on="0"/>
        <pt x="567" y="50" on="1"/>
        <pt x="563" y="38" on="1"/>
        <pt x="569" y="37" on="0"/>
        <pt x="589" y="34" on="0"/>
        <pt x="608" y="26" on="0"/>
        <pt x="622" y="15" on="0"/>
        <pt x="622" y="7" on="1"/>
        <pt x="622" y="-7" on="0"/>
        <pt x="596" y="-18" on="0"/>
        <pt x="585" y="-23" on="1"/>
        <pt x="570" y="-18" on="0"/>
        <pt x="537" y="-17" on="0"/>
        <pt x="521" y="-17" on="1"/>
        <pt x="486" y="-17" on="0"/>
        <pt x="452" y="-20" on="1"/>
        <pt x="420" y="-23" on="0"/>
        <pt x="387" y="-26" on="1"/>
        <pt x="411" y="-25" on="0"/>
        <pt x="433" y="-24" on="1"/>
        <pt x="458" y="-23" on="0"/>
        <pt x="483" y="-23" on="1"/>
        <pt x="505" y="-23" on="0"/>
        <pt x="548" y="-25" on="0"/>
        <pt x="570" y="-29" on="1"/>
        <pt x="552" y="-37" on="0"/>
        <pt x="499" y="-45" on="0"/>
        <pt x="442" y="-49" on="0"/>
        <pt x="386" y="-50" on="0"/>
        <pt x="365" y="-51" on="1"/>
        <pt x="356" y="-41" on="1"/>
        <pt x="334" y="-46" on="0"/>
        <pt x="290" y="-49" on="0"/>
        <pt x="267" y="-49" on="1"/>
        <pt x="243" y="-49" on="0"/>
        <pt x="195" y="-45" on="0"/>
        <pt x="172" y="-41" on="1"/>
        <pt x="161" y="-29" on="0"/>
        <pt x="139" y="-6" on="0"/>
        <pt x="126" y="5" on="1"/>
        <pt x="126" y="65" on="0"/>
        <pt x="121" y="185" on="0"/>
        <pt x="117" y="245" on="1"/>
        <pt x="110" y="240" on="1"/>
        <pt x="112" y="182" on="0"/>
        <pt x="118" y="66" on="0"/>
        <pt x="120" y="9" on="1"/>
        <pt x="120" y="4" on="1"/>
        <pt x="117" y="7" on="1"/>
        <pt x="117" y="14" on="1"/>
        <pt x="109" y="125" on="0"/>
        <pt x="105" y="236" on="1"/>
        <pt x="83" y="221" on="1"/>
        <pt x="71" y="214" on="1"/>
        <pt x="59" y="212" on="0"/>
        <pt x="44" y="202" on="0"/>
        <pt x="36" y="202" on="1"/>
        <pt x="26" y="202" on="0"/>
        <pt x="17" y="215" on="1"/>
        <pt x="14" y="218" on="0"/>
        <pt x="14" y="221" on="1"/>
        <pt x="14" y="225" on="0"/>
        <pt x="25" y="233" on="1"/>
        <pt x="19" y="241" on="1"/>
        <pt x="15" y="240" on="0"/>
        <pt x="7" y="240" on="1"/>
        <pt x="-14" y="240" on="0"/>
        <pt x="-25" y="253" on="1"/>
        <pt x="-29" y="258" on="0"/>
        <pt x="-29" y="265" on="1"/>
        <pt x="-29" y="276" on="0"/>
        <pt x="-9" y="296" on="0"/>
        <pt x="4" y="305" on="1"/>
        <pt x="15" y="312" on="0"/>
        <pt x="36" y="324" on="0"/>
        <pt x="47" y="332" on="1"/>
        <pt x="52" y="335" on="0"/>
        <pt x="61" y="343" on="0"/>
        <pt x="66" y="347" on="1"/>
      </contour>
      <contour>
        <pt x="321" y="-31" on="1"/>
        <pt x="297" y="-32" on="0"/>
        <pt x="271" y="-32" on="1"/>
        <pt x="240" y="-32" on="0"/>
        <pt x="186" y="-28" on="0"/>
        <pt x="175" y="-23" on="1"/>
        <pt x="145" y="6" on="1"/>
        <pt x="136" y="124" on="1"/>
        <pt x="136" y="102" on="1"/>
        <pt x="136" y="79" on="0"/>
        <pt x="142" y="33" on="0"/>
        <pt x="142" y="10" on="1"/>
        <pt x="142" y="4" on="1"/>
        <pt x="150" y="-4" on="0"/>
        <pt x="165" y="-20" on="0"/>
        <pt x="172" y="-29" on="1"/>
        <pt x="179" y="-29" on="1"/>
        <pt x="201" y="-29" on="0"/>
        <pt x="244" y="-34" on="0"/>
        <pt x="266" y="-34" on="1"/>
        <pt x="289" y="-34" on="0"/>
        <pt x="311" y="-32" on="1"/>
        <pt x="327" y="-31" on="1"/>
      </contour>
      <contour>
        <pt x="236" y="39" on="1"/>
        <pt x="241" y="38" on="0"/>
        <pt x="252" y="37" on="0"/>
        <pt x="258" y="37" on="1"/>
        <pt x="284" y="37" on="0"/>
        <pt x="336" y="39" on="0"/>
        <pt x="362" y="44" on="1"/>
        <pt x="330" y="42" on="0"/>
        <pt x="268" y="42" on="0"/>
        <pt x="236" y="41" on="1"/>
      </contour>
      <contour>
        <pt x="169" y="-48" on="1"/>
        <pt x="186" y="-53" on="0"/>
        <pt x="223" y="-56" on="0"/>
        <pt x="243" y="-56" on="1"/>
        <pt x="255" y="-56" on="0"/>
        <pt x="266" y="-55" on="1"/>
        <pt x="276" y="-55" on="0"/>
        <pt x="285" y="-55" on="1"/>
        <pt x="279" y="-56" on="0"/>
        <pt x="271" y="-56" on="1"/>
        <pt x="263" y="-57" on="0"/>
        <pt x="255" y="-57" on="1"/>
        <pt x="235" y="-57" on="1"/>
        <pt x="223" y="-57" on="0"/>
        <pt x="198" y="-55" on="0"/>
        <pt x="175" y="-53" on="0"/>
        <pt x="170" y="-51" on="1"/>
        <pt x="167" y="-48" on="0"/>
        <pt x="153" y="-33" on="0"/>
        <pt x="137" y="-17" on="0"/>
        <pt x="124" y="-2" on="0"/>
        <pt x="123" y="0" on="1"/>
      </contour>
      <contour>
        <pt x="210" y="43" on="1"/>
        <pt x="188" y="47" on="1"/>
        <pt x="194" y="45" on="0"/>
        <pt x="218" y="34" on="0"/>
        <pt x="224" y="33" on="1"/>
        <pt x="221" y="44" on="1"/>
      </contour>
    </TTGlyph>
    <TTGlyph name="M" xMin="25" yMin="-62" xMax="873" yMax="757">
      <contour>
        <pt x="369" y="372" on="1"/>
        <pt x="367" y="375" on="1"/>
        <pt x="367" y="387" on="0"/>
        <pt x="358" y="415" on="0"/>
        <pt x="346" y="443" on="0"/>
        <pt x="331" y="470" on="0"/>
        <pt x="325" y="482" on="1"/>
        <pt x="318" y="486" on="1"/>
        <pt x="331" y="455" on="0"/>
        <pt x="359" y="405" on="0"/>
        <pt x="359" y="377" on="1"/>
        <pt x="364" y="371" on="1"/>
        <pt x="355" y="375" on="1"/>
        <pt x="355" y="381" on="1"/>
        <pt x="337" y="416" on="0"/>
        <pt x="304" y="499" on="0"/>
        <pt x="287" y="534" on="1"/>
        <pt x="277" y="467" on="0"/>
        <pt x="247" y="333" on="0"/>
        <pt x="224" y="270" on="1"/>
        <pt x="204" y="216" on="0"/>
        <pt x="148" y="117" on="0"/>
        <pt x="129" y="62" on="1"/>
        <pt x="121" y="68" on="1"/>
        <pt x="110" y="66" on="1"/>
        <pt x="101" y="68" on="0"/>
        <pt x="101" y="78" on="1"/>
        <pt x="101" y="86" on="0"/>
        <pt x="107" y="109" on="0"/>
        <pt x="116" y="133" on="0"/>
        <pt x="126" y="156" on="0"/>
        <pt x="129" y="163" on="1"/>
        <pt x="120" y="166" on="1"/>
        <pt x="117" y="160" on="0"/>
        <pt x="94" y="118" on="0"/>
        <pt x="67" y="74" on="0"/>
        <pt x="41" y="38" on="0"/>
        <pt x="34" y="38" on="1"/>
        <pt x="29" y="41" on="0"/>
        <pt x="25" y="54" on="0"/>
        <pt x="25" y="59" on="1"/>
        <pt x="25" y="88" on="0"/>
        <pt x="52" y="180" on="0"/>
        <pt x="88" y="279" on="0"/>
        <pt x="125" y="373" on="0"/>
        <pt x="135" y="405" on="1"/>
        <pt x="144" y="433" on="0"/>
        <pt x="159" y="498" on="0"/>
        <pt x="170" y="565" on="0"/>
        <pt x="178" y="631" on="0"/>
        <pt x="181" y="661" on="1"/>
        <pt x="198" y="674" on="0"/>
        <pt x="257" y="692" on="0"/>
        <pt x="282" y="702" on="1"/>
        <pt x="336" y="658" on="0"/>
        <pt x="414" y="544" on="0"/>
        <pt x="443" y="472" on="1"/>
        <pt x="461" y="499" on="0"/>
        <pt x="492" y="565" on="0"/>
        <pt x="518" y="636" on="0"/>
        <pt x="542" y="706" on="0"/>
        <pt x="554" y="736" on="1"/>
        <pt x="579" y="744" on="0"/>
        <pt x="634" y="752" on="0"/>
        <pt x="661" y="757" on="1"/>
        <pt x="688" y="701" on="0"/>
        <pt x="736" y="599" on="0"/>
        <pt x="777" y="496" on="0"/>
        <pt x="810" y="388" on="0"/>
        <pt x="823" y="326" on="1"/>
        <pt x="829" y="294" on="0"/>
        <pt x="847" y="229" on="0"/>
        <pt x="862" y="163" on="0"/>
        <pt x="873" y="97" on="0"/>
        <pt x="873" y="64" on="1"/>
        <pt x="873" y="61" on="0"/>
        <pt x="868" y="51" on="0"/>
        <pt x="860" y="50" on="1"/>
        <pt x="844" y="144" on="0"/>
        <pt x="825" y="236" on="1"/>
        <pt x="806" y="326" on="0"/>
        <pt x="778" y="415" on="1"/>
        <pt x="803" y="326" on="0"/>
        <pt x="821" y="238" on="1"/>
        <pt x="840" y="147" on="0"/>
        <pt x="854" y="53" on="1"/>
        <pt x="840" y="45" on="1"/>
        <pt x="842" y="33" on="0"/>
        <pt x="848" y="7" on="0"/>
        <pt x="848" y="-5" on="1"/>
        <pt x="848" y="-8" on="0"/>
        <pt x="847" y="-27" on="0"/>
        <pt x="844" y="-47" on="0"/>
        <pt x="837" y="-62" on="0"/>
        <pt x="831" y="-62" on="1"/>
        <pt x="825" y="-62" on="0"/>
        <pt x="812" y="-47" on="0"/>
        <pt x="801" y="-26" on="0"/>
        <pt x="792" y="-7" on="0"/>
        <pt x="790" y="-2" on="1"/>
        <pt x="784" y="64" on="0"/>
        <pt x="755" y="227" on="0"/>
        <pt x="715" y="394" on="0"/>
        <pt x="664" y="551" on="0"/>
        <pt x="636" y="611" on="1"/>
        <pt x="635" y="606" on="1"/>
        <pt x="667" y="538" on="0"/>
        <pt x="713" y="395" on="0"/>
        <pt x="747" y="248" on="0"/>
        <pt x="771" y="99" on="0"/>
        <pt x="780" y="26" on="1"/>
        <pt x="759" y="72" on="0"/>
        <pt x="734" y="167" on="0"/>
        <pt x="715" y="262" on="0"/>
        <pt x="696" y="358" on="0"/>
        <pt x="682" y="407" on="1"/>
        <pt x="689" y="427" on="1"/>
        <pt x="675" y="468" on="0"/>
        <pt x="646" y="548" on="0"/>
        <pt x="627" y="586" on="1"/>
        <pt x="623" y="576" on="1"/>
        <pt x="612" y="546" on="0"/>
        <pt x="578" y="466" on="0"/>
        <pt x="532" y="390" on="0"/>
        <pt x="475" y="330" on="0"/>
        <pt x="441" y="320" on="1"/>
        <pt x="420" y="333" on="0"/>
        <pt x="377" y="356" on="0"/>
        <pt x="355" y="368" on="1"/>
        <pt x="355" y="374" on="1"/>
        <pt x="395" y="352" on="1"/>
        <pt x="415" y="341" on="0"/>
        <pt x="435" y="329" on="1"/>
        <pt x="443" y="331" on="1"/>
        <pt x="486" y="356" on="0"/>
        <pt x="539" y="406" on="0"/>
        <pt x="577" y="466" on="0"/>
        <pt x="606" y="541" on="0"/>
        <pt x="625" y="589" on="1"/>
        <pt x="621" y="598" on="1"/>
        <pt x="617" y="589" on="1"/>
        <pt x="600" y="550" on="1"/>
        <pt x="590" y="526" on="0"/>
        <pt x="561" y="471" on="0"/>
        <pt x="526" y="414" on="0"/>
        <pt x="490" y="367" on="0"/>
        <pt x="452" y="338" on="0"/>
        <pt x="435" y="338" on="1"/>
      </contour>
      <contour>
        <pt x="713" y="614" on="1"/>
        <pt x="711" y="620" on="0"/>
        <pt x="701" y="641" on="0"/>
        <pt x="690" y="663" on="0"/>
        <pt x="680" y="684" on="0"/>
        <pt x="677" y="689" on="1"/>
        <pt x="688" y="658" on="1"/>
        <pt x="710" y="612" on="1"/>
      </contour>
      <contour>
        <pt x="608" y="610" on="1"/>
        <pt x="574" y="520" on="1"/>
        <pt x="584" y="541" on="0"/>
        <pt x="601" y="583" on="0"/>
        <pt x="609" y="604" on="1"/>
      </contour>
      <contour>
        <pt x="582" y="702" on="1"/>
        <pt x="595" y="669" on="1"/>
        <pt x="600" y="670" on="1"/>
        <pt x="588" y="702" on="1"/>
      </contour>
      <contour>
        <pt x="191" y="648" on="1"/>
        <pt x="189" y="618" on="1"/>
        <pt x="189" y="608" on="0"/>
        <pt x="187" y="591" on="1"/>
        <pt x="198" y="650" on="1"/>
      </contour>
      <contour>
        <pt x="533" y="627" on="1"/>
        <pt x="559" y="689" on="1"/>
        <pt x="555" y="689" on="1"/>
      </contour>
      <contour>
        <pt x="674" y="695" on="1"/>
        <pt x="651" y="733" on="1"/>
        <pt x="653" y="722" on="1"/>
      </contour>
      <contour>
        <pt x="631" y="622" on="1"/>
        <pt x="629" y="618" on="1"/>
        <pt x="633" y="610" on="1"/>
        <pt x="634" y="615" on="1"/>
      </contour>
    </TTGlyph>
    <TTGlyph name="N" xMin="60" yMin="-23" xMax="655" yMax="738">
      <contour>
        <pt x="644" y="692" on="1"/>
        <pt x="652" y="692" on="0"/>
        <pt x="655" y="673" on="0"/>
        <pt x="655" y="664" on="1"/>
        <pt x="654" y="657" on="1"/>
        <pt x="653" y="651" on="0"/>
        <pt x="649" y="632" on="0"/>
        <pt x="644" y="610" on="0"/>
        <pt x="640" y="601" on="1"/>
        <pt x="626" y="557" on="0"/>
        <pt x="609" y="471" on="0"/>
        <pt x="599" y="384" on="0"/>
        <pt x="593" y="296" on="0"/>
        <pt x="590" y="251" on="1"/>
        <pt x="594" y="292" on="0"/>
        <pt x="601" y="382" on="0"/>
        <pt x="613" y="473" on="0"/>
        <pt x="632" y="560" on="0"/>
        <pt x="649" y="598" on="1"/>
        <pt x="634" y="502" on="0"/>
        <pt x="615" y="312" on="0"/>
        <pt x="609" y="215" on="1"/>
        <pt x="597" y="209" on="1"/>
        <pt x="597" y="148" on="0"/>
        <pt x="573" y="37" on="0"/>
        <pt x="558" y="-22" on="1"/>
        <pt x="553" y="-22" on="0"/>
        <pt x="540" y="-23" on="0"/>
        <pt x="534" y="-23" on="1"/>
        <pt x="529" y="-23" on="0"/>
        <pt x="511" y="-17" on="0"/>
        <pt x="491" y="-8" on="0"/>
        <pt x="470" y="3" on="0"/>
        <pt x="463" y="8" on="1"/>
        <pt x="420" y="36" on="0"/>
        <pt x="352" y="119" on="0"/>
        <pt x="298" y="219" on="0"/>
        <pt x="256" y="330" on="0"/>
        <pt x="219" y="442" on="0"/>
        <pt x="185" y="549" on="0"/>
        <pt x="168" y="594" on="1"/>
        <pt x="162" y="589" on="1"/>
        <pt x="179" y="539" on="0"/>
        <pt x="212" y="422" on="0"/>
        <pt x="249" y="301" on="0"/>
        <pt x="296" y="183" on="0"/>
        <pt x="359" y="81" on="0"/>
        <pt x="443" y="2" on="0"/>
        <pt x="499" y="-20" on="1"/>
        <pt x="451" y="-7" on="0"/>
        <pt x="376" y="56" on="0"/>
        <pt x="315" y="142" on="0"/>
        <pt x="268" y="243" on="0"/>
        <pt x="230" y="347" on="0"/>
        <pt x="200" y="447" on="0"/>
        <pt x="187" y="488" on="1"/>
        <pt x="187" y="446" on="0"/>
        <pt x="196" y="366" on="0"/>
        <pt x="196" y="325" on="1"/>
        <pt x="196" y="256" on="0"/>
        <pt x="204" y="117" on="0"/>
        <pt x="208" y="48" on="1"/>
        <pt x="186" y="44" on="1"/>
        <pt x="178" y="44" on="0"/>
        <pt x="170" y="71" on="0"/>
        <pt x="166" y="105" on="0"/>
        <pt x="165" y="136" on="0"/>
        <pt x="165" y="140" on="1"/>
        <pt x="153" y="140" on="1"/>
        <pt x="153" y="132" on="0"/>
        <pt x="152" y="85" on="0"/>
        <pt x="146" y="35" on="0"/>
        <pt x="133" y="-5" on="0"/>
        <pt x="121" y="-5" on="1"/>
        <pt x="113" y="-5" on="0"/>
        <pt x="99" y="48" on="0"/>
        <pt x="85" y="135" on="0"/>
        <pt x="73" y="246" on="0"/>
        <pt x="65" y="360" on="0"/>
        <pt x="60" y="468" on="0"/>
        <pt x="60" y="509" on="1"/>
        <pt x="60" y="562" on="0"/>
        <pt x="75" y="666" on="0"/>
        <pt x="92" y="717" on="1"/>
        <pt x="202" y="738" on="1"/>
        <pt x="207" y="731" on="0"/>
        <pt x="215" y="720" on="0"/>
        <pt x="220" y="714" on="1"/>
        <pt x="249" y="672" on="0"/>
        <pt x="291" y="573" on="0"/>
        <pt x="325" y="466" on="0"/>
        <pt x="356" y="357" on="0"/>
        <pt x="394" y="254" on="0"/>
        <pt x="444" y="162" on="0"/>
        <pt x="480" y="126" on="1"/>
        <pt x="484" y="155" on="0"/>
        <pt x="491" y="251" on="0"/>
        <pt x="500" y="361" on="0"/>
        <pt x="510" y="472" on="0"/>
        <pt x="525" y="563" on="0"/>
        <pt x="546" y="620" on="0"/>
        <pt x="560" y="620" on="1"/>
        <pt x="566" y="616" on="1"/>
        <pt x="545" y="554" on="0"/>
        <pt x="530" y="428" on="0"/>
        <pt x="523" y="300" on="0"/>
        <pt x="514" y="173" on="0"/>
        <pt x="499" y="111" on="1"/>
        <pt x="505" y="108" on="1"/>
        <pt x="506" y="117" on="0"/>
        <pt x="508" y="136" on="0"/>
        <pt x="510" y="145" on="1"/>
        <pt x="518" y="203" on="0"/>
        <pt x="525" y="320" on="0"/>
        <pt x="534" y="438" on="0"/>
        <pt x="551" y="554" on="0"/>
        <pt x="569" y="610" on="1"/>
        <pt x="579" y="603" on="1"/>
        <pt x="585" y="607" on="0"/>
        <pt x="595" y="636" on="0"/>
        <pt x="609" y="667" on="0"/>
        <pt x="629" y="692" on="0"/>
      </contour>
      <contour>
        <pt x="542" y="-14" on="1"/>
        <pt x="553" y="22" on="0"/>
        <pt x="571" y="94" on="0"/>
        <pt x="576" y="132" on="1"/>
        <pt x="570" y="96" on="0"/>
        <pt x="551" y="27" on="0"/>
        <pt x="542" y="-8" on="1"/>
        <pt x="482" y="13" on="0"/>
        <pt x="407" y="63" on="0"/>
        <pt x="356" y="127" on="0"/>
        <pt x="336" y="167" on="1"/>
        <pt x="320" y="198" on="0"/>
        <pt x="301" y="236" on="1"/>
        <pt x="313" y="211" on="0"/>
        <pt x="322" y="190" on="1"/>
        <pt x="336" y="161" on="0"/>
        <pt x="363" y="112" on="0"/>
        <pt x="393" y="73" on="0"/>
        <pt x="437" y="38" on="0"/>
        <pt x="498" y="5" on="0"/>
      </contour>
      <contour>
        <pt x="496" y="86" on="1"/>
        <pt x="486" y="93" on="0"/>
        <pt x="455" y="133" on="0"/>
        <pt x="424" y="176" on="0"/>
        <pt x="400" y="210" on="0"/>
        <pt x="398" y="211" on="1"/>
        <pt x="414" y="174" on="0"/>
        <pt x="465" y="113" on="0"/>
        <pt x="493" y="86" on="1"/>
      </contour>
    </TTGlyph>
    <TTGlyph name="Nacute" xMin="60" yMin="-23" xMax="655" yMax="994">
      <component glyphName="N" x="0" y="0" flags="0x204"/>
      <component glyphName="acute.cap" x="210" y="20" flags="0x4"/>
    </TTGlyph>
    <TTGlyph name="Ntilde" xMin="60" yMin="-23" xMax="655" yMax="1014">
      <component glyphName="N" x="0" y="0" flags="0x204"/>
      <component glyphName="tilde.cap" x="137" y="-39" flags="0x4"/>
    </TTGlyph>
    <TTGlyph name="O" xMin="40" yMin="-81" xMax="700" yMax="688">
      <contour>
        <pt x="283" y="-62" on="1"/>
        <pt x="327" y="-76" on="0"/>
        <pt x="373" y="-76" on="1"/>
        <pt x="425" y="-76" on="0"/>
        <pt x="515" y="-44" on="0"/>
        <pt x="589" y="12" on="0"/>
        <pt x="617" y="49" on="1"/>
        <pt x="637" y="75" on="0"/>
        <pt x="652" y="105" on="1"/>
        <pt x="639" y="77" on="0"/>
        <pt x="622" y="50" on="1"/>
        <pt x="598" y="12" on="0"/>
        <pt x="527" y="-46" on="0"/>
        <pt x="435" y="-81" on="0"/>
        <pt x="377" y="-81" on="1"/>
        <pt x="364" y="-81" on="1"/>
        <pt x="281" y="-81" on="0"/>
        <pt x="159" y="-7" on="0"/>
        <pt x="79" y="108" on="0"/>
        <pt x="40" y="250" on="0"/>
        <pt x="40" y="319" on="1"/>
        <pt x="40" y="348" on="0"/>
        <pt x="46" y="413" on="0"/>
        <pt x="66" y="479" on="0"/>
        <pt x="103" y="542" on="0"/>
        <pt x="135" y="568" on="1"/>
        <pt x="161" y="589" on="0"/>
        <pt x="222" y="618" on="0"/>
        <pt x="252" y="620" on="1"/>
        <pt x="249" y="618" on="0"/>
        <pt x="249" y="616" on="1"/>
        <pt x="249" y="612" on="0"/>
        <pt x="258" y="603" on="0"/>
        <pt x="258" y="598" on="1"/>
        <pt x="258" y="596" on="1"/>
        <pt x="258" y="592" on="0"/>
        <pt x="249" y="588" on="0"/>
        <pt x="229" y="581" on="0"/>
        <pt x="197" y="567" on="0"/>
        <pt x="175" y="553" on="1"/>
        <pt x="181" y="547" on="0"/>
        <pt x="181" y="544" on="1"/>
        <pt x="200" y="554" on="0"/>
        <pt x="232" y="562" on="0"/>
        <pt x="246" y="562" on="1"/>
        <pt x="275" y="562" on="0"/>
        <pt x="301" y="542" on="0"/>
        <pt x="301" y="537" on="1"/>
        <pt x="301" y="529" on="0"/>
        <pt x="276" y="519" on="0"/>
        <pt x="243" y="504" on="0"/>
        <pt x="207" y="479" on="0"/>
        <pt x="197" y="455" on="1"/>
        <pt x="181" y="431" on="0"/>
        <pt x="164" y="359" on="0"/>
        <pt x="164" y="322" on="1"/>
        <pt x="164" y="259" on="0"/>
        <pt x="194" y="155" on="0"/>
        <pt x="249" y="79" on="0"/>
        <pt x="328" y="37" on="0"/>
        <pt x="378" y="37" on="1"/>
        <pt x="426" y="37" on="0"/>
        <pt x="503" y="85" on="0"/>
        <pt x="557" y="168" on="0"/>
        <pt x="585" y="277" on="0"/>
        <pt x="585" y="339" on="1"/>
        <pt x="585" y="369" on="0"/>
        <pt x="578" y="428" on="0"/>
        <pt x="557" y="482" on="0"/>
        <pt x="520" y="530" on="0"/>
        <pt x="490" y="550" on="1"/>
        <pt x="452" y="570" on="0"/>
        <pt x="404" y="587" on="0"/>
        <pt x="404" y="595" on="1"/>
        <pt x="404" y="598" on="0"/>
        <pt x="408" y="602" on="1"/>
        <pt x="458" y="591" on="0"/>
        <pt x="498" y="566" on="1"/>
        <pt x="535" y="543" on="0"/>
        <pt x="560" y="506" on="1"/>
        <pt x="533" y="547" on="0"/>
        <pt x="499" y="569" on="1"/>
        <pt x="462" y="594" on="0"/>
        <pt x="411" y="608" on="1"/>
        <pt x="416" y="613" on="0"/>
        <pt x="416" y="617" on="1"/>
        <pt x="416" y="621" on="0"/>
        <pt x="387" y="627" on="0"/>
        <pt x="353" y="635" on="0"/>
        <pt x="324" y="647" on="0"/>
        <pt x="324" y="656" on="1"/>
        <pt x="324" y="667" on="0"/>
        <pt x="360" y="677" on="0"/>
        <pt x="386" y="684" on="1"/>
        <pt x="393" y="684" on="0"/>
        <pt x="406" y="680" on="0"/>
        <pt x="411" y="678" on="1"/>
        <pt x="460" y="669" on="0"/>
        <pt x="549" y="623" on="0"/>
        <pt x="620" y="551" on="0"/>
        <pt x="668" y="452" on="0"/>
        <pt x="675" y="390" on="1"/>
        <pt x="670" y="449" on="0"/>
        <pt x="627" y="546" on="0"/>
        <pt x="558" y="622" on="0"/>
        <pt x="466" y="674" on="0"/>
        <pt x="414" y="688" on="1"/>
        <pt x="460" y="688" on="0"/>
        <pt x="551" y="651" on="0"/>
        <pt x="627" y="580" on="0"/>
        <pt x="683" y="476" on="0"/>
        <pt x="695" y="409" on="1"/>
        <pt x="693" y="409" on="0"/>
        <pt x="685" y="406" on="0"/>
        <pt x="683" y="406" on="1"/>
        <pt x="692" y="355" on="0"/>
        <pt x="692" y="307" on="1"/>
        <pt x="692" y="237" on="0"/>
        <pt x="649" y="103" on="0"/>
        <pt x="568" y="-2" on="0"/>
        <pt x="450" y="-67" on="0"/>
        <pt x="374" y="-67" on="1"/>
        <pt x="329" y="-67" on="0"/>
        <pt x="243" y="-41" on="0"/>
        <pt x="206" y="-19" on="1"/>
        <pt x="208" y="-21" on="0"/>
        <pt x="208" y="-23" on="1"/>
        <pt x="208" y="-25" on="0"/>
        <pt x="203" y="-25" on="1"/>
        <pt x="240" y="-49" on="0"/>
      </contour>
      <contour>
        <pt x="677" y="296" on="1"/>
        <pt x="672" y="257" on="0"/>
        <pt x="653" y="174" on="0"/>
        <pt x="620" y="94" on="0"/>
        <pt x="595" y="59" on="1"/>
        <pt x="570" y="25" on="0"/>
        <pt x="536" y="0" on="1"/>
        <pt x="570" y="24" on="0"/>
        <pt x="596" y="57" on="1"/>
        <pt x="622" y="91" on="0"/>
        <pt x="657" y="171" on="0"/>
        <pt x="676" y="260" on="0"/>
        <pt x="678" y="304" on="1"/>
        <pt x="677" y="301" on="0"/>
      </contour>
      <contour>
        <pt x="597" y="238" on="1"/>
        <pt x="589" y="200" on="0"/>
        <pt x="557" y="129" on="0"/>
        <pt x="532" y="101" on="1"/>
        <pt x="558" y="128" on="0"/>
        <pt x="590" y="198" on="0"/>
      </contour>
      <contour>
        <pt x="700" y="326" on="1"/>
        <pt x="700" y="309" on="0"/>
        <pt x="698" y="291" on="1"/>
        <pt x="697" y="274" on="0"/>
        <pt x="695" y="256" on="1"/>
        <pt x="695" y="273" on="0"/>
        <pt x="697" y="294" on="1"/>
        <pt x="699" y="316" on="0"/>
        <pt x="699" y="342" on="1"/>
        <pt x="699" y="360" on="1"/>
        <pt x="700" y="352" on="0"/>
        <pt x="700" y="343" on="1"/>
      </contour>
      <contour>
        <pt x="597" y="238" on="1"/>
        <pt x="602" y="260" on="0"/>
        <pt x="607" y="305" on="0"/>
        <pt x="607" y="328" on="1"/>
        <pt x="607" y="353" on="0"/>
        <pt x="604" y="379" on="1"/>
        <pt x="605" y="368" on="0"/>
        <pt x="606" y="348" on="0"/>
        <pt x="606" y="337" on="1"/>
        <pt x="606" y="286" on="0"/>
      </contour>
      <contour>
        <pt x="695" y="250" on="1"/>
        <pt x="686" y="201" on="1"/>
        <pt x="681" y="183" on="0"/>
        <pt x="671" y="148" on="0"/>
        <pt x="664" y="131" on="1"/>
        <pt x="675" y="162" on="0"/>
        <pt x="690" y="224" on="0"/>
        <pt x="695" y="254" on="1"/>
      </contour>
      <contour>
        <pt x="204" y="-27" on="1"/>
        <pt x="204" y="-26" on="0"/>
        <pt x="203" y="-25" on="1"/>
        <pt x="203" y="-26" on="0"/>
      </contour>
      <contour>
        <pt x="664" y="131" on="1"/>
        <pt x="662" y="127" on="0"/>
        <pt x="661" y="124" on="1"/>
        <pt x="662" y="127" on="0"/>
      </contour>
      <contour>
        <pt x="653" y="107" on="1"/>
        <pt x="655" y="110" on="0"/>
        <pt x="656" y="113" on="1"/>
        <pt x="655" y="110" on="0"/>
      </contour>
      <contour>
        <pt x="566" y="498" on="1"/>
        <pt x="565" y="500" on="0"/>
        <pt x="563" y="502" on="1"/>
        <pt x="564" y="500" on="0"/>
      </contour>
      <contour>
        <pt x="661" y="124" on="1"/>
        <pt x="659" y="119" on="0"/>
        <pt x="657" y="114" on="1"/>
        <pt x="659" y="119" on="0"/>
      </contour>
    </TTGlyph>
    <TTGlyph name="OE" xMin="40" yMin="-7" xMax="881" yMax="745">
      <contour>
        <pt x="866" y="358" on="1"/>
        <pt x="876" y="348" on="0"/>
        <pt x="876" y="334" on="1"/>
        <pt x="876" y="325" on="0"/>
        <pt x="869" y="311" on="0"/>
        <pt x="864" y="303" on="1"/>
        <pt x="818" y="311" on="0"/>
        <pt x="733" y="319" on="0"/>
        <pt x="686" y="321" on="1"/>
        <pt x="730" y="316" on="0"/>
        <pt x="817" y="310" on="0"/>
        <pt x="859" y="296" on="1"/>
        <pt x="850" y="285" on="0"/>
        <pt x="838" y="285" on="1"/>
        <pt x="824" y="285" on="0"/>
        <pt x="797" y="290" on="0"/>
        <pt x="783" y="291" on="1"/>
        <pt x="783" y="302" on="1"/>
        <pt x="777" y="301" on="0"/>
        <pt x="766" y="300" on="0"/>
        <pt x="760" y="300" on="1"/>
        <pt x="736" y="300" on="0"/>
        <pt x="689" y="309" on="0"/>
        <pt x="665" y="309" on="1"/>
        <pt x="657" y="309" on="0"/>
        <pt x="640" y="305" on="0"/>
        <pt x="632" y="303" on="1"/>
        <pt x="747" y="292" on="1"/>
        <pt x="722" y="293" on="0"/>
        <pt x="688" y="295" on="0"/>
        <pt x="655" y="296" on="0"/>
        <pt x="636" y="296" on="1"/>
        <pt x="591" y="296" on="1"/>
        <pt x="584" y="300" on="1"/>
        <pt x="575" y="223" on="0"/>
        <pt x="540" y="151" on="1"/>
        <pt x="560" y="150" on="1"/>
        <pt x="582" y="150" on="0"/>
        <pt x="645" y="147" on="0"/>
        <pt x="713" y="142" on="0"/>
        <pt x="780" y="135" on="0"/>
        <pt x="834" y="126" on="0"/>
        <pt x="867" y="116" on="0"/>
        <pt x="867" y="110" on="1"/>
        <pt x="866" y="103" on="1"/>
        <pt x="845" y="107" on="0"/>
        <pt x="806" y="109" on="0"/>
        <pt x="787" y="110" on="1"/>
        <pt x="806" y="108" on="0"/>
        <pt x="844" y="103" on="0"/>
        <pt x="864" y="98" on="1"/>
        <pt x="862" y="84" on="1"/>
        <pt x="870" y="82" on="0"/>
        <pt x="881" y="71" on="0"/>
        <pt x="881" y="63" on="1"/>
        <pt x="881" y="52" on="0"/>
        <pt x="869" y="32" on="0"/>
        <pt x="861" y="26" on="1"/>
        <pt x="853" y="34" on="0"/>
        <pt x="795" y="44" on="0"/>
        <pt x="728" y="49" on="0"/>
        <pt x="666" y="50" on="0"/>
        <pt x="653" y="50" on="1"/>
        <pt x="674" y="47" on="0"/>
        <pt x="729" y="44" on="0"/>
        <pt x="785" y="39" on="0"/>
        <pt x="837" y="29" on="0"/>
        <pt x="855" y="20" on="1"/>
        <pt x="846" y="11" on="0"/>
        <pt x="836" y="11" on="1"/>
        <pt x="819" y="11" on="0"/>
        <pt x="795" y="17" on="0"/>
        <pt x="779" y="19" on="1"/>
        <pt x="772" y="29" on="1"/>
        <pt x="766" y="28" on="0"/>
        <pt x="760" y="28" on="1"/>
        <pt x="748" y="28" on="1"/>
        <pt x="716" y="28" on="0"/>
        <pt x="652" y="39" on="0"/>
        <pt x="620" y="39" on="1"/>
        <pt x="612" y="39" on="0"/>
        <pt x="614" y="38" on="0"/>
        <pt x="606" y="36" on="1"/>
        <pt x="606" y="31" on="1"/>
        <pt x="629" y="31" on="0"/>
        <pt x="667" y="29" on="0"/>
        <pt x="703" y="25" on="0"/>
        <pt x="722" y="23" on="1"/>
        <pt x="740" y="21" on="0"/>
        <pt x="761" y="19" on="1"/>
        <pt x="725" y="21" on="0"/>
        <pt x="692" y="22" on="1"/>
        <pt x="658" y="24" on="0"/>
        <pt x="591" y="27" on="0"/>
        <pt x="523" y="29" on="0"/>
        <pt x="485" y="29" on="1"/>
        <pt x="471" y="37" on="0"/>
        <pt x="451" y="40" on="1"/>
        <pt x="422" y="18" on="0"/>
        <pt x="353" y="-7" on="0"/>
        <pt x="316" y="-7" on="1"/>
        <pt x="241" y="-7" on="0"/>
        <pt x="136" y="69" on="0"/>
        <pt x="70" y="186" on="0"/>
        <pt x="40" y="325" on="0"/>
        <pt x="40" y="387" on="1"/>
        <pt x="40" y="430" on="0"/>
        <pt x="58" y="525" on="0"/>
        <pt x="98" y="609" on="0"/>
        <pt x="165" y="672" on="0"/>
        <pt x="213" y="681" on="1"/>
        <pt x="215" y="673" on="0"/>
        <pt x="220" y="663" on="0"/>
        <pt x="220" y="658" on="1"/>
        <pt x="220" y="657" on="0"/>
        <pt x="201" y="643" on="0"/>
        <pt x="177" y="627" on="0"/>
        <pt x="154" y="610" on="0"/>
        <pt x="150" y="606" on="1"/>
        <pt x="158" y="599" on="1"/>
        <pt x="184" y="623" on="0"/>
        <pt x="218" y="623" on="1"/>
        <pt x="227" y="623" on="0"/>
        <pt x="258" y="612" on="0"/>
        <pt x="259" y="600" on="1"/>
        <pt x="251" y="589" on="1"/>
        <pt x="244" y="580" on="0"/>
        <pt x="223" y="567" on="0"/>
        <pt x="216" y="558" on="1"/>
        <pt x="184" y="520" on="0"/>
        <pt x="163" y="433" on="0"/>
        <pt x="163" y="385" on="1"/>
        <pt x="163" y="362" on="0"/>
        <pt x="170" y="299" on="0"/>
        <pt x="185" y="234" on="0"/>
        <pt x="211" y="178" on="0"/>
        <pt x="229" y="162" on="1"/>
        <pt x="249" y="145" on="0"/>
        <pt x="294" y="118" on="0"/>
        <pt x="321" y="118" on="1"/>
        <pt x="359" y="118" on="0"/>
        <pt x="412" y="157" on="0"/>
        <pt x="446" y="217" on="0"/>
        <pt x="465" y="290" on="0"/>
        <pt x="474" y="358" on="0"/>
        <pt x="476" y="412" on="0"/>
        <pt x="476" y="424" on="1"/>
        <pt x="476" y="462" on="0"/>
        <pt x="464" y="540" on="0"/>
        <pt x="442" y="572" on="1"/>
        <pt x="429" y="591" on="0"/>
        <pt x="410" y="611" on="0"/>
        <pt x="390" y="624" on="0"/>
        <pt x="368" y="635" on="0"/>
        <pt x="352" y="645" on="1"/>
        <pt x="347" y="649" on="0"/>
        <pt x="347" y="656" on="1"/>
        <pt x="350" y="662" on="1"/>
        <pt x="392" y="649" on="0"/>
        <pt x="448" y="597" on="0"/>
        <pt x="483" y="528" on="0"/>
        <pt x="497" y="449" on="0"/>
        <pt x="497" y="409" on="1"/>
        <pt x="497" y="351" on="0"/>
        <pt x="474" y="227" on="0"/>
        <pt x="441" y="178" on="1"/>
        <pt x="476" y="230" on="0"/>
        <pt x="498" y="339" on="0"/>
        <pt x="498" y="403" on="1"/>
        <pt x="498" y="443" on="0"/>
        <pt x="484" y="525" on="0"/>
        <pt x="451" y="596" on="0"/>
        <pt x="396" y="652" on="0"/>
        <pt x="354" y="667" on="1"/>
        <pt x="360" y="682" on="1"/>
        <pt x="355" y="683" on="0"/>
        <pt x="329" y="689" on="0"/>
        <pt x="301" y="698" on="0"/>
        <pt x="279" y="709" on="0"/>
        <pt x="279" y="716" on="1"/>
        <pt x="279" y="723" on="0"/>
        <pt x="293" y="733" on="0"/>
        <pt x="313" y="740" on="0"/>
        <pt x="332" y="743" on="0"/>
        <pt x="337" y="744" on="1"/>
        <pt x="364" y="737" on="0"/>
        <pt x="416" y="717" on="0"/>
        <pt x="439" y="700" on="1"/>
        <pt x="436" y="709" on="0"/>
        <pt x="418" y="723" on="0"/>
        <pt x="395" y="734" on="0"/>
        <pt x="372" y="742" on="0"/>
        <pt x="364" y="745" on="1"/>
        <pt x="405" y="742" on="0"/>
        <pt x="443" y="724" on="1"/>
        <pt x="445" y="728" on="0"/>
        <pt x="471" y="733" on="0"/>
        <pt x="509" y="737" on="0"/>
        <pt x="553" y="739" on="0"/>
        <pt x="593" y="740" on="0"/>
        <pt x="609" y="740" on="1"/>
        <pt x="631" y="740" on="1"/>
        <pt x="673" y="740" on="0"/>
        <pt x="755" y="719" on="0"/>
        <pt x="793" y="719" on="1"/>
        <pt x="798" y="719" on="0"/>
        <pt x="811" y="721" on="0"/>
        <pt x="816" y="721" on="1"/>
        <pt x="825" y="721" on="0"/>
        <pt x="834" y="713" on="0"/>
        <pt x="834" y="701" on="1"/>
        <pt x="796" y="703" on="0"/>
        <pt x="722" y="709" on="0"/>
        <pt x="684" y="716" on="1"/>
        <pt x="720" y="705" on="0"/>
        <pt x="795" y="701" on="0"/>
        <pt x="833" y="696" on="1"/>
        <pt x="832" y="693" on="0"/>
        <pt x="832" y="687" on="1"/>
        <pt x="832" y="681" on="0"/>
        <pt x="833" y="679" on="1"/>
        <pt x="843" y="679" on="1"/>
        <pt x="853" y="669" on="0"/>
        <pt x="853" y="656" on="1"/>
        <pt x="853" y="647" on="0"/>
        <pt x="846" y="633" on="0"/>
        <pt x="841" y="625" on="1"/>
        <pt x="796" y="633" on="0"/>
        <pt x="709" y="641" on="0"/>
        <pt x="663" y="641" on="1"/>
        <pt x="707" y="636" on="0"/>
        <pt x="794" y="632" on="0"/>
        <pt x="836" y="618" on="1"/>
        <pt x="832" y="614" on="0"/>
        <pt x="822" y="607" on="0"/>
        <pt x="816" y="607" on="1"/>
        <pt x="802" y="607" on="0"/>
        <pt x="781" y="611" on="0"/>
        <pt x="767" y="612" on="1"/>
        <pt x="760" y="623" on="1"/>
        <pt x="754" y="622" on="0"/>
        <pt x="742" y="621" on="0"/>
        <pt x="737" y="621" on="1"/>
        <pt x="714" y="621" on="0"/>
        <pt x="668" y="628" on="0"/>
        <pt x="645" y="628" on="1"/>
        <pt x="636" y="628" on="0"/>
        <pt x="597" y="626" on="0"/>
        <pt x="588" y="624" on="1"/>
        <pt x="626" y="621" on="0"/>
        <pt x="720" y="617" on="0"/>
        <pt x="758" y="612" on="1"/>
        <pt x="733" y="614" on="0"/>
        <pt x="706" y="614" on="1"/>
        <pt x="545" y="614" on="1"/>
        <pt x="563" y="578" on="0"/>
        <pt x="583" y="500" on="0"/>
        <pt x="587" y="459" on="1"/>
        <pt x="577" y="458" on="1"/>
        <pt x="581" y="419" on="1"/>
        <pt x="589" y="420" on="1"/>
        <pt x="588" y="435" on="1"/>
        <pt x="590" y="424" on="0"/>
        <pt x="597" y="421" on="1"/>
        <pt x="604" y="417" on="0"/>
        <pt x="618" y="417" on="1"/>
        <pt x="648" y="417" on="0"/>
        <pt x="697" y="411" on="0"/>
        <pt x="742" y="404" on="0"/>
        <pt x="788" y="398" on="0"/>
        <pt x="816" y="398" on="1"/>
        <pt x="821" y="398" on="0"/>
        <pt x="832" y="399" on="0"/>
        <pt x="837" y="399" on="1"/>
        <pt x="846" y="399" on="0"/>
        <pt x="857" y="392" on="0"/>
        <pt x="857" y="379" on="1"/>
        <pt x="822" y="381" on="0"/>
        <pt x="788" y="382" on="1"/>
        <pt x="761" y="383" on="0"/>
        <pt x="735" y="388" on="1"/>
        <pt x="761" y="383" on="0"/>
        <pt x="787" y="381" on="1"/>
        <pt x="822" y="379" on="0"/>
        <pt x="856" y="374" on="1"/>
        <pt x="854" y="368" on="0"/>
        <pt x="854" y="366" on="1"/>
        <pt x="854" y="364" on="0"/>
        <pt x="856" y="358" on="1"/>
      </contour>
      <contour>
        <pt x="437" y="45" on="1"/>
        <pt x="412" y="26" on="0"/>
        <pt x="351" y="6" on="0"/>
        <pt x="319" y="6" on="1"/>
        <pt x="275" y="6" on="0"/>
        <pt x="195" y="42" on="0"/>
        <pt x="160" y="68" on="1"/>
        <pt x="158" y="62" on="1"/>
        <pt x="192" y="34" on="0"/>
        <pt x="273" y="-3" on="0"/>
        <pt x="318" y="-3" on="1"/>
        <pt x="353" y="-3" on="0"/>
        <pt x="416" y="20" on="0"/>
        <pt x="444" y="40" on="1"/>
      </contour>
      <contour>
        <pt x="529" y="151" on="1"/>
        <pt x="539" y="152" on="0"/>
        <pt x="557" y="191" on="0"/>
        <pt x="572" y="242" on="0"/>
        <pt x="581" y="290" on="0"/>
        <pt x="583" y="300" on="1"/>
        <pt x="577" y="303" on="1"/>
        <pt x="571" y="263" on="0"/>
        <pt x="549" y="186" on="0"/>
      </contour>
      <contour>
        <pt x="514" y="152" on="1"/>
        <pt x="534" y="188" on="0"/>
        <pt x="558" y="265" on="0"/>
        <pt x="563" y="306" on="1"/>
        <pt x="559" y="307" on="1"/>
        <pt x="555" y="266" on="0"/>
        <pt x="529" y="189" on="0"/>
        <pt x="511" y="152" on="1"/>
      </contour>
      <contour>
        <pt x="518" y="614" on="1"/>
        <pt x="542" y="571" on="0"/>
        <pt x="555" y="519" on="1"/>
        <pt x="552" y="537" on="0"/>
        <pt x="543" y="570" on="0"/>
        <pt x="534" y="597" on="0"/>
        <pt x="524" y="614" on="0"/>
      </contour>
      <contour>
        <pt x="701" y="120" on="1"/>
        <pt x="719" y="115" on="0"/>
        <pt x="756" y="112" on="0"/>
        <pt x="775" y="110" on="1"/>
        <pt x="764" y="111" on="1"/>
        <pt x="753" y="113" on="0"/>
        <pt x="726" y="117" on="0"/>
        <pt x="702" y="120" on="0"/>
      </contour>
      <contour>
        <pt x="568" y="374" on="1"/>
        <pt x="566" y="375" on="1"/>
        <pt x="565" y="372" on="0"/>
        <pt x="564" y="346" on="0"/>
        <pt x="564" y="343" on="1"/>
        <pt x="566" y="342" on="1"/>
      </contour>
      <contour>
        <pt x="568" y="418" on="1"/>
        <pt x="568" y="420" on="0"/>
        <pt x="567" y="422" on="1"/>
        <pt x="567" y="423" on="1"/>
        <pt x="567" y="417" on="1"/>
      </contour>
    </TTGlyph>
    <TTGlyph name="Oacute" xMin="40" yMin="-81" xMax="700" yMax="925">
      <component glyphName="O" x="0" y="0" flags="0x204"/>
      <component glyphName="acute.cap" x="192" y="-49" flags="0x4"/>
    </TTGlyph>
    <TTGlyph name="Ocircumflex" xMin="40" yMin="-81" xMax="700" yMax="1016">
      <component glyphName="O" x="0" y="0" flags="0x204"/>
      <component glyphName="circumflex.cap" x="217" y="-9" flags="0x4"/>
    </TTGlyph>
    <TTGlyph name="Odieresis" xMin="40" yMin="-81" xMax="700" yMax="893">
      <component glyphName="O" x="0" y="0" flags="0x204"/>
      <component glyphName="dieresis.cap" x="148" y="-48" flags="0x4"/>
    </TTGlyph>
    <TTGlyph name="Ograve" xMin="40" yMin="-81" xMax="700" yMax="985">
      <component glyphName="O" x="0" y="0" flags="0x204"/>
      <component glyphName="grave.cap" x="243" y="-29" flags="0x4"/>
    </TTGlyph>
    <TTGlyph name="Oslash" xMin="40" yMin="-209" xMax="718" yMax="860">
      <contour>
        <pt x="706" y="853" on="1"/>
        <pt x="714" y="853" on="0"/>
        <pt x="718" y="844" on="0"/>
        <pt x="718" y="837" on="1"/>
        <pt x="718" y="816" on="0"/>
        <pt x="694" y="757" on="0"/>
        <pt x="660" y="695" on="0"/>
        <pt x="625" y="638" on="0"/>
        <pt x="614" y="620" on="1"/>
        <pt x="643" y="583" on="0"/>
        <pt x="675" y="509" on="0"/>
        <pt x="683" y="463" on="1"/>
        <pt x="672" y="450" on="1"/>
        <pt x="677" y="430" on="0"/>
        <pt x="680" y="388" on="0"/>
        <pt x="680" y="367" on="1"/>
        <pt x="680" y="298" on="0"/>
        <pt x="641" y="161" on="0"/>
        <pt x="563" y="52" on="0"/>
        <pt x="446" y="-16" on="0"/>
        <pt x="367" y="-16" on="1"/>
        <pt x="332" y="-16" on="0"/>
        <pt x="265" y="1" on="0"/>
        <pt x="233" y="16" on="1"/>
        <pt x="230" y="10" on="1"/>
        <pt x="262" y="-5" on="0"/>
        <pt x="331" y="-25" on="0"/>
        <pt x="367" y="-25" on="1"/>
        <pt x="451" y="-25" on="0"/>
        <pt x="572" y="48" on="0"/>
        <pt x="651" y="164" on="0"/>
        <pt x="688" y="310" on="0"/>
        <pt x="688" y="383" on="1"/>
        <pt x="688" y="403" on="1"/>
        <pt x="688" y="411" on="0"/>
        <pt x="687" y="419" on="1"/>
        <pt x="689" y="406" on="0"/>
        <pt x="689" y="393" on="1"/>
        <pt x="689" y="364" on="1"/>
        <pt x="689" y="295" on="0"/>
        <pt x="648" y="154" on="0"/>
        <pt x="567" y="42" on="0"/>
        <pt x="448" y="-29" on="0"/>
        <pt x="370" y="-29" on="1"/>
        <pt x="333" y="-29" on="0"/>
        <pt x="261" y="-11" on="0"/>
        <pt x="228" y="6" on="1"/>
        <pt x="217" y="-11" on="0"/>
        <pt x="195" y="-48" on="0"/>
        <pt x="189" y="-67" on="1"/>
        <pt x="187" y="-72" on="0"/>
        <pt x="185" y="-97" on="0"/>
        <pt x="182" y="-123" on="0"/>
        <pt x="177" y="-142" on="0"/>
        <pt x="172" y="-142" on="1"/>
        <pt x="170" y="-131" on="0"/>
        <pt x="167" y="-112" on="0"/>
        <pt x="167" y="-101" on="1"/>
        <pt x="167" y="-93" on="1"/>
        <pt x="167" y="-90" on="0"/>
        <pt x="167" y="-86" on="1"/>
        <pt x="163" y="-100" on="0"/>
        <pt x="163" y="-112" on="1"/>
        <pt x="163" y="-119" on="0"/>
        <pt x="164" y="-133" on="0"/>
        <pt x="165" y="-140" on="1"/>
        <pt x="158" y="-139" on="1"/>
        <pt x="150" y="-142" on="1"/>
        <pt x="158" y="-173" on="1"/>
        <pt x="158" y="-181" on="1"/>
        <pt x="158" y="-189" on="0"/>
        <pt x="154" y="-209" on="0"/>
        <pt x="145" y="-209" on="1"/>
        <pt x="131" y="-209" on="0"/>
        <pt x="114" y="-188" on="0"/>
        <pt x="105" y="-160" on="0"/>
        <pt x="102" y="-129" on="0"/>
        <pt x="102" y="-119" on="1"/>
        <pt x="102" y="-70" on="0"/>
        <pt x="137" y="7" on="0"/>
        <pt x="160" y="49" on="1"/>
        <pt x="159" y="51" on="1"/>
        <pt x="148" y="30" on="0"/>
        <pt x="125" y="-13" on="0"/>
        <pt x="111" y="-36" on="1"/>
        <pt x="101" y="-56" on="0"/>
        <pt x="95" y="-99" on="0"/>
        <pt x="95" y="-121" on="1"/>
        <pt x="95" y="-141" on="0"/>
        <pt x="98" y="-162" on="1"/>
        <pt x="90" y="-147" on="0"/>
        <pt x="81" y="-115" on="0"/>
        <pt x="81" y="-98" on="1"/>
        <pt x="81" y="-77" on="0"/>
        <pt x="93" y="-34" on="0"/>
        <pt x="112" y="7" on="0"/>
        <pt x="134" y="46" on="0"/>
        <pt x="145" y="64" on="1"/>
        <pt x="116" y="94" on="0"/>
        <pt x="76" y="165" on="0"/>
        <pt x="51" y="244" on="0"/>
        <pt x="40" y="326" on="0"/>
        <pt x="40" y="367" on="1"/>
        <pt x="40" y="414" on="0"/>
        <pt x="66" y="514" on="0"/>
        <pt x="118" y="597" on="0"/>
        <pt x="196" y="655" on="0"/>
        <pt x="249" y="660" on="1"/>
        <pt x="253" y="655" on="1"/>
        <pt x="253" y="651" on="1"/>
        <pt x="253" y="646" on="0"/>
        <pt x="247" y="636" on="0"/>
        <pt x="230" y="622" on="0"/>
        <pt x="199" y="605" on="0"/>
        <pt x="174" y="593" on="1"/>
        <pt x="181" y="584" on="1"/>
        <pt x="210" y="602" on="0"/>
        <pt x="240" y="602" on="1"/>
        <pt x="263" y="602" on="0"/>
        <pt x="290" y="593" on="0"/>
        <pt x="298" y="571" on="1"/>
        <pt x="259" y="563" on="0"/>
        <pt x="207" y="522" on="0"/>
        <pt x="176" y="464" on="0"/>
        <pt x="163" y="395" on="0"/>
        <pt x="163" y="359" on="1"/>
        <pt x="163" y="339" on="0"/>
        <pt x="167" y="289" on="0"/>
        <pt x="177" y="239" on="0"/>
        <pt x="196" y="194" on="0"/>
        <pt x="210" y="180" on="1"/>
        <pt x="272" y="287" on="0"/>
        <pt x="404" y="493" on="0"/>
        <pt x="470" y="597" on="1"/>
        <pt x="467" y="599" on="0"/>
        <pt x="443" y="609" on="0"/>
        <pt x="418" y="621" on="0"/>
        <pt x="398" y="632" on="0"/>
        <pt x="398" y="636" on="1"/>
        <pt x="398" y="638" on="0"/>
        <pt x="400" y="642" on="1"/>
        <pt x="421" y="637" on="0"/>
        <pt x="460" y="622" on="0"/>
        <pt x="480" y="613" on="1"/>
        <pt x="482" y="616" on="1"/>
        <pt x="463" y="626" on="0"/>
        <pt x="425" y="641" on="0"/>
        <pt x="404" y="646" on="1"/>
        <pt x="409" y="662" on="1"/>
        <pt x="404" y="663" on="0"/>
        <pt x="375" y="667" on="0"/>
        <pt x="343" y="675" on="0"/>
        <pt x="319" y="686" on="0"/>
        <pt x="319" y="694" on="1"/>
        <pt x="319" y="701" on="0"/>
        <pt x="335" y="711" on="0"/>
        <pt x="355" y="718" on="0"/>
        <pt x="365" y="720" on="1"/>
        <pt x="380" y="723" on="1"/>
        <pt x="415" y="715" on="0"/>
        <pt x="485" y="693" on="0"/>
        <pt x="517" y="674" on="1"/>
        <pt x="520" y="679" on="1"/>
        <pt x="494" y="696" on="0"/>
        <pt x="437" y="717" on="0"/>
        <pt x="408" y="725" on="1"/>
        <pt x="440" y="725" on="0"/>
        <pt x="503" y="713" on="0"/>
        <pt x="529" y="694" on="1"/>
        <pt x="555" y="736" on="0"/>
        <pt x="610" y="815" on="0"/>
        <pt x="631" y="860" on="1"/>
        <pt x="634" y="856" on="0"/>
        <pt x="642" y="854" on="0"/>
        <pt x="649" y="852" on="0"/>
        <pt x="655" y="848" on="0"/>
        <pt x="655" y="843" on="1"/>
        <pt x="655" y="833" on="0"/>
        <pt x="641" y="807" on="0"/>
        <pt x="636" y="799" on="1"/>
        <pt x="645" y="794" on="1"/>
        <pt x="648" y="799" on="0"/>
        <pt x="663" y="819" on="0"/>
        <pt x="681" y="838" on="0"/>
        <pt x="699" y="853" on="0"/>
      </contour>
      <contour>
        <pt x="292" y="115" on="1"/>
        <pt x="310" y="105" on="0"/>
        <pt x="351" y="96" on="0"/>
        <pt x="371" y="96" on="1"/>
        <pt x="428" y="96" on="0"/>
        <pt x="506" y="149" on="0"/>
        <pt x="554" y="232" on="0"/>
        <pt x="575" y="332" on="0"/>
        <pt x="575" y="379" on="1"/>
        <pt x="575" y="414" on="0"/>
        <pt x="563" y="484" on="0"/>
        <pt x="549" y="516" on="1"/>
        <pt x="522" y="462" on="0"/>
        <pt x="455" y="364" on="0"/>
        <pt x="386" y="267" on="0"/>
        <pt x="319" y="169" on="0"/>
      </contour>
      <contour>
        <pt x="407" y="492" on="1"/>
        <pt x="357" y="414" on="0"/>
        <pt x="257" y="259" on="0"/>
        <pt x="211" y="179" on="1"/>
        <pt x="214" y="174" on="1"/>
        <pt x="260" y="255" on="0"/>
        <pt x="365" y="407" on="0"/>
        <pt x="411" y="488" on="1"/>
        <pt x="407" y="488" on="0"/>
      </contour>
      <contour>
        <pt x="667" y="379" on="1"/>
        <pt x="667" y="438" on="0"/>
        <pt x="638" y="554" on="0"/>
        <pt x="603" y="602" on="1"/>
        <pt x="601" y="599" on="1"/>
        <pt x="631" y="548" on="0"/>
        <pt x="665" y="443" on="0"/>
        <pt x="665" y="383" on="1"/>
        <pt x="665" y="332" on="0"/>
        <pt x="646" y="227" on="0"/>
        <pt x="605" y="133" on="0"/>
        <pt x="571" y="93" on="1"/>
        <pt x="539" y="54" on="0"/>
        <pt x="492" y="29" on="1"/>
        <pt x="540" y="53" on="0"/>
        <pt x="573" y="90" on="1"/>
        <pt x="607" y="129" on="0"/>
        <pt x="649" y="223" on="0"/>
        <pt x="667" y="327" on="0"/>
      </contour>
      <contour>
        <pt x="601" y="373" on="1"/>
        <pt x="601" y="394" on="0"/>
        <pt x="596" y="436" on="0"/>
        <pt x="589" y="456" on="1"/>
        <pt x="592" y="436" on="0"/>
        <pt x="596" y="394" on="0"/>
        <pt x="596" y="374" on="1"/>
        <pt x="596" y="310" on="0"/>
        <pt x="557" y="186" on="0"/>
        <pt x="512" y="139" on="1"/>
        <pt x="561" y="185" on="0"/>
        <pt x="601" y="308" on="0"/>
      </contour>
      <contour>
        <pt x="225" y="160" on="1"/>
        <pt x="252" y="205" on="0"/>
        <pt x="278" y="250" on="1"/>
        <pt x="303" y="291" on="0"/>
        <pt x="328" y="333" on="1"/>
        <pt x="302" y="292" on="0"/>
        <pt x="276" y="252" on="1"/>
        <pt x="249" y="208" on="0"/>
        <pt x="223" y="162" on="1"/>
      </contour>
      <contour>
        <pt x="357" y="250" on="1"/>
        <pt x="335" y="219" on="0"/>
        <pt x="294" y="156" on="0"/>
        <pt x="274" y="123" on="1"/>
      </contour>
      <contour>
        <pt x="172" y="-65" on="1"/>
        <pt x="200" y="-7" on="1"/>
        <pt x="168" y="-64" on="1"/>
      </contour>
    </TTGlyph>
    <TTGlyph name="Otilde" xMin="40" yMin="-100" xMax="700" yMax="964">
      <component glyphName="O" x="0" y="-19" flags="0x204"/>
      <component glyphName="tilde.cap" x="150" y="-89" flags="0x4"/>
    </TTGlyph>
</ttFont>
